G75*
%MOIN*%
%OFA0B0*%
%FSLAX25Y25*%
%IPPOS*%
%LPD*%
%AMOC8*
5,1,8,0,0,1.08239X$1,22.5*
%
%ADD10C,0.00000*%
%ADD11R,0.09554X0.09554*%
%ADD12R,0.08372X0.08372*%
%ADD13C,0.06000*%
%ADD14OC8,0.06800*%
%ADD15C,0.05556*%
%ADD16C,0.05556*%
%ADD17OC8,0.06000*%
%ADD18R,0.07131X0.07131*%
%ADD19OC8,0.07131*%
%ADD20R,0.12668X0.12668*%
%ADD21R,0.06000X0.06000*%
%ADD22C,0.01200*%
D10*
X0001000Y0006667D02*
X0414386Y0006667D01*
X0414386Y0204738D01*
X0001000Y0204738D01*
X0001000Y0006667D01*
D11*
X0261000Y0022612D03*
X0306000Y0022612D03*
X0351000Y0022612D03*
X0396000Y0022612D03*
X0396000Y0054974D03*
X0351000Y0054974D03*
X0306000Y0054974D03*
X0261000Y0054974D03*
X0351000Y0103360D03*
X0396000Y0103360D03*
X0396000Y0135722D03*
X0351000Y0135722D03*
X0351000Y0163360D03*
X0396000Y0163360D03*
X0396000Y0195722D03*
X0351000Y0195722D03*
D12*
X0351000Y0151155D03*
X0396000Y0151155D03*
X0396000Y0091155D03*
X0351000Y0091155D03*
X0351000Y0067178D03*
X0306000Y0067178D03*
X0261000Y0067178D03*
X0396000Y0067178D03*
D13*
X0076000Y0059467D02*
X0076000Y0053867D01*
X0066000Y0053867D02*
X0066000Y0059467D01*
X0056000Y0059467D02*
X0056000Y0053867D01*
X0046000Y0053867D02*
X0046000Y0059467D01*
X0036000Y0059467D02*
X0036000Y0053867D01*
X0026000Y0053867D02*
X0026000Y0059467D01*
X0016000Y0059467D02*
X0016000Y0053867D01*
X0016000Y0029467D02*
X0016000Y0023867D01*
X0026000Y0023867D02*
X0026000Y0029467D01*
X0036000Y0029467D02*
X0036000Y0023867D01*
X0046000Y0023867D02*
X0046000Y0029467D01*
X0056000Y0029467D02*
X0056000Y0023867D01*
X0066000Y0023867D02*
X0066000Y0029467D01*
X0076000Y0029467D02*
X0076000Y0023867D01*
D14*
X0111000Y0024167D03*
X0121000Y0024167D03*
X0131000Y0024167D03*
X0141000Y0024167D03*
X0151000Y0024167D03*
X0161000Y0024167D03*
X0171000Y0024167D03*
X0181000Y0024167D03*
X0181000Y0014167D03*
X0171000Y0014167D03*
X0161000Y0014167D03*
X0151000Y0014167D03*
X0141000Y0014167D03*
X0131000Y0014167D03*
X0121000Y0014167D03*
X0111000Y0014167D03*
X0111000Y0076667D03*
X0121000Y0076667D03*
X0131000Y0076667D03*
X0141000Y0076667D03*
X0151000Y0076667D03*
X0161000Y0076667D03*
X0171000Y0076667D03*
X0181000Y0076667D03*
X0181000Y0086667D03*
X0171000Y0086667D03*
X0161000Y0086667D03*
X0151000Y0086667D03*
X0141000Y0086667D03*
X0131000Y0086667D03*
X0121000Y0086667D03*
X0111000Y0086667D03*
D15*
X0106000Y0149167D03*
X0096000Y0149167D03*
X0066000Y0149167D03*
X0056000Y0149167D03*
X0026000Y0149167D03*
X0016000Y0149167D03*
X0011000Y0199167D03*
X0031000Y0199167D03*
X0051000Y0199167D03*
X0071000Y0199167D03*
X0091000Y0199167D03*
X0111000Y0199167D03*
X0131000Y0199167D03*
X0151000Y0199167D03*
X0171000Y0199167D03*
X0191000Y0199167D03*
X0211000Y0199167D03*
X0231000Y0199167D03*
X0251000Y0199167D03*
X0271000Y0199167D03*
X0291000Y0199167D03*
X0311000Y0199167D03*
X0306000Y0149167D03*
X0296000Y0149167D03*
X0266000Y0149167D03*
X0256000Y0149167D03*
X0226000Y0149167D03*
X0216000Y0149167D03*
X0186000Y0149167D03*
X0176000Y0149167D03*
X0146000Y0149167D03*
X0136000Y0149167D03*
D16*
X0201000Y0064245D02*
X0201000Y0059089D01*
X0211000Y0059089D02*
X0211000Y0064245D01*
X0221000Y0064245D02*
X0221000Y0059089D01*
X0231000Y0059089D02*
X0231000Y0064245D01*
X0231000Y0034245D02*
X0231000Y0029089D01*
X0221000Y0029089D02*
X0221000Y0034245D01*
X0211000Y0034245D02*
X0211000Y0029089D01*
X0201000Y0029089D02*
X0201000Y0034245D01*
D17*
X0201000Y0019167D03*
X0231000Y0019167D03*
X0121000Y0041667D03*
X0121000Y0056667D03*
X0091000Y0056667D03*
X0091000Y0041667D03*
X0096000Y0076667D03*
X0096000Y0086667D03*
X0066000Y0086667D03*
X0066000Y0076667D03*
X0041000Y0076667D03*
X0041000Y0086667D03*
X0011000Y0086667D03*
X0011000Y0076667D03*
X0011000Y0111667D03*
X0011000Y0141667D03*
X0091000Y0141667D03*
X0091000Y0111667D03*
X0171000Y0111667D03*
X0201000Y0086667D03*
X0201000Y0076667D03*
X0231000Y0076667D03*
X0246000Y0076667D03*
X0246000Y0086667D03*
X0231000Y0086667D03*
X0276000Y0086667D03*
X0286000Y0086667D03*
X0276000Y0076667D03*
X0316000Y0086667D03*
X0251000Y0111667D03*
X0251000Y0141667D03*
X0171000Y0141667D03*
D18*
X0153559Y0109324D03*
X0073559Y0109324D03*
X0233559Y0109324D03*
X0311059Y0109324D03*
D19*
X0311059Y0119167D03*
X0311059Y0129009D03*
X0233559Y0129009D03*
X0233559Y0119167D03*
X0153559Y0119167D03*
X0153559Y0129009D03*
X0073559Y0129009D03*
X0073559Y0119167D03*
D20*
X0046000Y0101450D03*
X0046000Y0136883D03*
X0126000Y0136883D03*
X0126000Y0101450D03*
X0206000Y0101450D03*
X0206000Y0136883D03*
X0283500Y0136883D03*
X0283500Y0101450D03*
D21*
X0251000Y0101667D03*
X0251000Y0131667D03*
X0171000Y0131667D03*
X0171000Y0101667D03*
X0091000Y0101667D03*
X0091000Y0131667D03*
X0011000Y0131667D03*
X0011000Y0101667D03*
D22*
X0161261Y0057302D02*
X0160661Y0057902D01*
X0162581Y0057387D01*
X0163575Y0055666D01*
X0163060Y0053746D01*
X0161339Y0052752D01*
X0159419Y0053267D01*
X0158425Y0054988D01*
X0158940Y0056908D01*
X0160661Y0057902D01*
X0160788Y0056936D01*
X0161988Y0056614D01*
X0162609Y0055539D01*
X0162287Y0054339D01*
X0161212Y0053718D01*
X0160012Y0054040D01*
X0159391Y0055115D01*
X0159713Y0056315D01*
X0160788Y0056936D01*
X0160915Y0055970D01*
X0161395Y0055841D01*
X0161643Y0055412D01*
X0161514Y0054932D01*
X0161085Y0054684D01*
X0160605Y0054813D01*
X0160357Y0055242D01*
X0160486Y0055722D01*
X0160915Y0055970D01*
X0170739Y0058352D02*
X0171339Y0057752D01*
X0169419Y0058267D01*
X0168425Y0059988D01*
X0168940Y0061908D01*
X0170661Y0062902D01*
X0172581Y0062387D01*
X0173575Y0060666D01*
X0173060Y0058746D01*
X0171339Y0057752D01*
X0171212Y0058718D01*
X0170012Y0059040D01*
X0169391Y0060115D01*
X0169713Y0061315D01*
X0170788Y0061936D01*
X0171988Y0061614D01*
X0172609Y0060539D01*
X0172287Y0059339D01*
X0171212Y0058718D01*
X0171085Y0059684D01*
X0170605Y0059813D01*
X0170357Y0060242D01*
X0170486Y0060722D01*
X0170915Y0060970D01*
X0171395Y0060841D01*
X0171643Y0060412D01*
X0171514Y0059932D01*
X0171085Y0059684D01*
X0180739Y0041031D02*
X0181339Y0040431D01*
X0179419Y0040946D01*
X0178425Y0042667D01*
X0178940Y0044587D01*
X0180661Y0045581D01*
X0182581Y0045066D01*
X0183575Y0043345D01*
X0183060Y0041425D01*
X0181339Y0040431D01*
X0181212Y0041397D01*
X0180012Y0041719D01*
X0179391Y0042794D01*
X0179713Y0043994D01*
X0180788Y0044615D01*
X0181988Y0044293D01*
X0182609Y0043218D01*
X0182287Y0042018D01*
X0181212Y0041397D01*
X0181085Y0042363D01*
X0180605Y0042492D01*
X0180357Y0042921D01*
X0180486Y0043401D01*
X0180915Y0043649D01*
X0181395Y0043520D01*
X0181643Y0043091D01*
X0181514Y0042611D01*
X0181085Y0042363D01*
X0171261Y0039981D02*
X0170661Y0040581D01*
X0172581Y0040066D01*
X0173575Y0038345D01*
X0173060Y0036425D01*
X0171339Y0035431D01*
X0169419Y0035946D01*
X0168425Y0037667D01*
X0168940Y0039587D01*
X0170661Y0040581D01*
X0170788Y0039615D01*
X0171988Y0039293D01*
X0172609Y0038218D01*
X0172287Y0037018D01*
X0171212Y0036397D01*
X0170012Y0036719D01*
X0169391Y0037794D01*
X0169713Y0038994D01*
X0170788Y0039615D01*
X0170915Y0038649D01*
X0171395Y0038520D01*
X0171643Y0038091D01*
X0171514Y0037611D01*
X0171085Y0037363D01*
X0170605Y0037492D01*
X0170357Y0037921D01*
X0170486Y0038401D01*
X0170915Y0038649D01*
M02*
