G75*
%MOIN*%
%OFA0B0*%
%FSLAX25Y25*%
%IPPOS*%
%LPD*%
%AMOC8*
5,1,8,0,0,1.08239X$1,22.5*
%
%ADD10C,0.00000*%
%ADD11R,0.09154X0.09154*%
%ADD12R,0.07972X0.07972*%
%ADD13C,0.05600*%
%ADD14OC8,0.06400*%
%ADD15C,0.05156*%
%ADD16C,0.05156*%
%ADD17OC8,0.05600*%
%ADD18R,0.06731X0.06731*%
%ADD19OC8,0.06731*%
%ADD20R,0.12268X0.12268*%
%ADD21R,0.05600X0.05600*%
%ADD22C,0.01120*%
%ADD23C,0.01600*%
%ADD24C,0.01000*%
%ADD25C,0.02400*%
D10*
X0001000Y0006667D02*
X0414386Y0006667D01*
X0414386Y0204738D01*
X0001000Y0204738D01*
X0001000Y0006667D01*
D11*
X0261000Y0022612D03*
X0306000Y0022612D03*
X0351000Y0022612D03*
X0396000Y0022612D03*
X0396000Y0054974D03*
X0351000Y0054974D03*
X0306000Y0054974D03*
X0261000Y0054974D03*
X0351000Y0103360D03*
X0396000Y0103360D03*
X0396000Y0135722D03*
X0351000Y0135722D03*
X0351000Y0163360D03*
X0396000Y0163360D03*
X0396000Y0195722D03*
X0351000Y0195722D03*
D12*
X0351000Y0151155D03*
X0396000Y0151155D03*
X0396000Y0091155D03*
X0351000Y0091155D03*
X0351000Y0067178D03*
X0306000Y0067178D03*
X0261000Y0067178D03*
X0396000Y0067178D03*
D13*
X0076000Y0059467D02*
X0076000Y0053867D01*
X0066000Y0053867D02*
X0066000Y0059467D01*
X0056000Y0059467D02*
X0056000Y0053867D01*
X0046000Y0053867D02*
X0046000Y0059467D01*
X0036000Y0059467D02*
X0036000Y0053867D01*
X0026000Y0053867D02*
X0026000Y0059467D01*
X0016000Y0059467D02*
X0016000Y0053867D01*
X0016000Y0029467D02*
X0016000Y0023867D01*
X0026000Y0023867D02*
X0026000Y0029467D01*
X0036000Y0029467D02*
X0036000Y0023867D01*
X0046000Y0023867D02*
X0046000Y0029467D01*
X0056000Y0029467D02*
X0056000Y0023867D01*
X0066000Y0023867D02*
X0066000Y0029467D01*
X0076000Y0029467D02*
X0076000Y0023867D01*
D14*
X0111000Y0024167D03*
X0121000Y0024167D03*
X0131000Y0024167D03*
X0141000Y0024167D03*
X0151000Y0024167D03*
X0161000Y0024167D03*
X0171000Y0024167D03*
X0181000Y0024167D03*
X0181000Y0014167D03*
X0171000Y0014167D03*
X0161000Y0014167D03*
X0151000Y0014167D03*
X0141000Y0014167D03*
X0131000Y0014167D03*
X0121000Y0014167D03*
X0111000Y0014167D03*
X0111000Y0076667D03*
X0121000Y0076667D03*
X0131000Y0076667D03*
X0141000Y0076667D03*
X0151000Y0076667D03*
X0161000Y0076667D03*
X0171000Y0076667D03*
X0181000Y0076667D03*
X0181000Y0086667D03*
X0171000Y0086667D03*
X0161000Y0086667D03*
X0151000Y0086667D03*
X0141000Y0086667D03*
X0131000Y0086667D03*
X0121000Y0086667D03*
X0111000Y0086667D03*
D15*
X0106000Y0149167D03*
X0096000Y0149167D03*
X0066000Y0149167D03*
X0056000Y0149167D03*
X0026000Y0149167D03*
X0016000Y0149167D03*
X0011000Y0199167D03*
X0031000Y0199167D03*
X0051000Y0199167D03*
X0071000Y0199167D03*
X0091000Y0199167D03*
X0111000Y0199167D03*
X0131000Y0199167D03*
X0151000Y0199167D03*
X0171000Y0199167D03*
X0191000Y0199167D03*
X0211000Y0199167D03*
X0231000Y0199167D03*
X0251000Y0199167D03*
X0271000Y0199167D03*
X0291000Y0199167D03*
X0311000Y0199167D03*
X0306000Y0149167D03*
X0296000Y0149167D03*
X0266000Y0149167D03*
X0256000Y0149167D03*
X0226000Y0149167D03*
X0216000Y0149167D03*
X0186000Y0149167D03*
X0176000Y0149167D03*
X0146000Y0149167D03*
X0136000Y0149167D03*
D16*
X0201000Y0064245D02*
X0201000Y0059089D01*
X0211000Y0059089D02*
X0211000Y0064245D01*
X0221000Y0064245D02*
X0221000Y0059089D01*
X0231000Y0059089D02*
X0231000Y0064245D01*
X0231000Y0034245D02*
X0231000Y0029089D01*
X0221000Y0029089D02*
X0221000Y0034245D01*
X0211000Y0034245D02*
X0211000Y0029089D01*
X0201000Y0029089D02*
X0201000Y0034245D01*
D17*
X0201000Y0019167D03*
X0231000Y0019167D03*
X0121000Y0041667D03*
X0121000Y0056667D03*
X0091000Y0056667D03*
X0091000Y0041667D03*
X0096000Y0076667D03*
X0096000Y0086667D03*
X0066000Y0086667D03*
X0066000Y0076667D03*
X0041000Y0076667D03*
X0041000Y0086667D03*
X0011000Y0086667D03*
X0011000Y0076667D03*
X0011000Y0111667D03*
X0011000Y0141667D03*
X0091000Y0141667D03*
X0091000Y0111667D03*
X0171000Y0111667D03*
X0201000Y0086667D03*
X0201000Y0076667D03*
X0231000Y0076667D03*
X0246000Y0076667D03*
X0246000Y0086667D03*
X0231000Y0086667D03*
X0276000Y0086667D03*
X0286000Y0086667D03*
X0276000Y0076667D03*
X0316000Y0086667D03*
X0251000Y0111667D03*
X0251000Y0141667D03*
X0171000Y0141667D03*
D18*
X0153559Y0109324D03*
X0073559Y0109324D03*
X0233559Y0109324D03*
X0311059Y0109324D03*
D19*
X0311059Y0119167D03*
X0311059Y0129009D03*
X0233559Y0129009D03*
X0233559Y0119167D03*
X0153559Y0119167D03*
X0153559Y0129009D03*
X0073559Y0129009D03*
X0073559Y0119167D03*
D20*
X0046000Y0101450D03*
X0046000Y0136883D03*
X0126000Y0136883D03*
X0126000Y0101450D03*
X0206000Y0101450D03*
X0206000Y0136883D03*
X0283500Y0136883D03*
X0283500Y0101450D03*
D21*
X0251000Y0101667D03*
X0251000Y0131667D03*
X0171000Y0131667D03*
X0171000Y0101667D03*
X0091000Y0101667D03*
X0091000Y0131667D03*
X0011000Y0131667D03*
X0011000Y0101667D03*
D22*
X0161243Y0057170D02*
X0160683Y0057730D01*
X0162476Y0057249D01*
X0163403Y0055644D01*
X0162922Y0053851D01*
X0161317Y0052924D01*
X0159524Y0053405D01*
X0158597Y0055010D01*
X0159078Y0056803D01*
X0160683Y0057730D01*
X0160802Y0056828D01*
X0161922Y0056528D01*
X0162501Y0055525D01*
X0162201Y0054405D01*
X0161198Y0053826D01*
X0160078Y0054126D01*
X0159499Y0055129D01*
X0159799Y0056249D01*
X0160802Y0056828D01*
X0160921Y0055927D01*
X0161369Y0055807D01*
X0161600Y0055406D01*
X0161480Y0054958D01*
X0161079Y0054727D01*
X0160631Y0054847D01*
X0160400Y0055248D01*
X0160520Y0055696D01*
X0160921Y0055927D01*
X0170757Y0058484D02*
X0171317Y0057924D01*
X0169524Y0058405D01*
X0168597Y0060010D01*
X0169078Y0061803D01*
X0170683Y0062730D01*
X0172476Y0062249D01*
X0173403Y0060644D01*
X0172922Y0058851D01*
X0171317Y0057924D01*
X0171198Y0058826D01*
X0170078Y0059126D01*
X0169499Y0060129D01*
X0169799Y0061249D01*
X0170802Y0061828D01*
X0171922Y0061528D01*
X0172501Y0060525D01*
X0172201Y0059405D01*
X0171198Y0058826D01*
X0171079Y0059727D01*
X0170631Y0059847D01*
X0170400Y0060248D01*
X0170520Y0060696D01*
X0170921Y0060927D01*
X0171369Y0060807D01*
X0171600Y0060406D01*
X0171480Y0059958D01*
X0171079Y0059727D01*
X0180757Y0041163D02*
X0181317Y0040603D01*
X0179524Y0041084D01*
X0178597Y0042689D01*
X0179078Y0044482D01*
X0180683Y0045409D01*
X0182476Y0044928D01*
X0183403Y0043323D01*
X0182922Y0041530D01*
X0181317Y0040603D01*
X0181198Y0041505D01*
X0180078Y0041805D01*
X0179499Y0042808D01*
X0179799Y0043928D01*
X0180802Y0044507D01*
X0181922Y0044207D01*
X0182501Y0043204D01*
X0182201Y0042084D01*
X0181198Y0041505D01*
X0181079Y0042406D01*
X0180631Y0042526D01*
X0180400Y0042927D01*
X0180520Y0043375D01*
X0180921Y0043606D01*
X0181369Y0043486D01*
X0181600Y0043085D01*
X0181480Y0042637D01*
X0181079Y0042406D01*
X0171243Y0039849D02*
X0170683Y0040409D01*
X0172476Y0039928D01*
X0173403Y0038323D01*
X0172922Y0036530D01*
X0171317Y0035603D01*
X0169524Y0036084D01*
X0168597Y0037689D01*
X0169078Y0039482D01*
X0170683Y0040409D01*
X0170802Y0039507D01*
X0171922Y0039207D01*
X0172501Y0038204D01*
X0172201Y0037084D01*
X0171198Y0036505D01*
X0170078Y0036805D01*
X0169499Y0037808D01*
X0169799Y0038928D01*
X0170802Y0039507D01*
X0170921Y0038606D01*
X0171369Y0038486D01*
X0171600Y0038085D01*
X0171480Y0037637D01*
X0171079Y0037406D01*
X0170631Y0037526D01*
X0170400Y0037927D01*
X0170520Y0038375D01*
X0170921Y0038606D01*
D23*
X0171000Y0038006D02*
X0171000Y0024167D01*
X0171000Y0014167D01*
X0181000Y0014167D02*
X0181000Y0024167D01*
X0181000Y0043006D01*
X0181000Y0044167D01*
X0171639Y0044167D01*
X0171459Y0044165D01*
X0171278Y0044158D01*
X0171098Y0044148D01*
X0170919Y0044133D01*
X0170739Y0044113D01*
X0170560Y0044090D01*
X0170382Y0044062D01*
X0170205Y0044030D01*
X0170028Y0043994D01*
X0169852Y0043953D01*
X0169677Y0043909D01*
X0169504Y0043860D01*
X0169331Y0043807D01*
X0169160Y0043750D01*
X0168990Y0043689D01*
X0168822Y0043624D01*
X0168656Y0043555D01*
X0168491Y0043482D01*
X0168327Y0043405D01*
X0168166Y0043324D01*
X0168007Y0043240D01*
X0167849Y0043152D01*
X0167694Y0043060D01*
X0167541Y0042964D01*
X0167391Y0042865D01*
X0167243Y0042762D01*
X0167097Y0042655D01*
X0166954Y0042545D01*
X0166814Y0042432D01*
X0166676Y0042316D01*
X0166541Y0042196D01*
X0166409Y0042073D01*
X0166280Y0041947D01*
X0153533Y0036667D02*
X0060631Y0036667D01*
X0052725Y0033392D02*
X0046000Y0026667D01*
X0052726Y0033391D02*
X0052916Y0033577D01*
X0053111Y0033759D01*
X0053310Y0033935D01*
X0053513Y0034107D01*
X0053720Y0034274D01*
X0053931Y0034436D01*
X0054146Y0034593D01*
X0054365Y0034745D01*
X0054587Y0034891D01*
X0054812Y0035032D01*
X0055041Y0035168D01*
X0055273Y0035298D01*
X0055508Y0035423D01*
X0055746Y0035542D01*
X0055987Y0035656D01*
X0056230Y0035763D01*
X0056476Y0035865D01*
X0056724Y0035961D01*
X0056974Y0036051D01*
X0057227Y0036135D01*
X0057481Y0036213D01*
X0057737Y0036285D01*
X0057995Y0036351D01*
X0058255Y0036411D01*
X0058515Y0036464D01*
X0058777Y0036511D01*
X0059040Y0036552D01*
X0059304Y0036587D01*
X0059568Y0036615D01*
X0059833Y0036638D01*
X0060099Y0036653D01*
X0060365Y0036663D01*
X0060631Y0036666D01*
X0046000Y0056667D02*
X0053500Y0064167D01*
X0149107Y0064167D01*
X0156607Y0061060D02*
X0161000Y0056667D01*
X0161000Y0055327D01*
X0161000Y0054167D01*
X0172036Y0054167D01*
X0178071Y0056667D02*
X0196000Y0056667D01*
X0201000Y0061667D01*
X0178071Y0056667D02*
X0177931Y0056665D01*
X0177791Y0056659D01*
X0177651Y0056649D01*
X0177511Y0056636D01*
X0177372Y0056618D01*
X0177233Y0056596D01*
X0177096Y0056571D01*
X0176958Y0056542D01*
X0176822Y0056509D01*
X0176687Y0056472D01*
X0176553Y0056431D01*
X0176420Y0056386D01*
X0176288Y0056338D01*
X0176158Y0056286D01*
X0176029Y0056231D01*
X0175902Y0056172D01*
X0175776Y0056109D01*
X0175652Y0056043D01*
X0175531Y0055974D01*
X0175411Y0055901D01*
X0175293Y0055824D01*
X0175178Y0055745D01*
X0175064Y0055662D01*
X0174954Y0055576D01*
X0174845Y0055487D01*
X0174739Y0055395D01*
X0174636Y0055300D01*
X0174535Y0055203D01*
X0174536Y0055202D02*
X0174453Y0055121D01*
X0174367Y0055043D01*
X0174279Y0054969D01*
X0174189Y0054897D01*
X0174096Y0054828D01*
X0174000Y0054762D01*
X0173903Y0054699D01*
X0173804Y0054640D01*
X0173703Y0054584D01*
X0173600Y0054531D01*
X0173495Y0054481D01*
X0173389Y0054435D01*
X0173282Y0054393D01*
X0173173Y0054354D01*
X0173062Y0054318D01*
X0172951Y0054286D01*
X0172839Y0054258D01*
X0172726Y0054234D01*
X0172612Y0054213D01*
X0172498Y0054196D01*
X0172383Y0054183D01*
X0172267Y0054174D01*
X0172152Y0054168D01*
X0172036Y0054166D01*
X0166281Y0041946D02*
X0165964Y0041637D01*
X0165640Y0041336D01*
X0165308Y0041043D01*
X0164970Y0040758D01*
X0164624Y0040482D01*
X0164272Y0040214D01*
X0163914Y0039955D01*
X0163549Y0039704D01*
X0163178Y0039463D01*
X0162801Y0039231D01*
X0162419Y0039008D01*
X0162031Y0038795D01*
X0161639Y0038591D01*
X0161241Y0038397D01*
X0160839Y0038213D01*
X0160432Y0038038D01*
X0160021Y0037874D01*
X0159606Y0037720D01*
X0159188Y0037576D01*
X0158766Y0037442D01*
X0158341Y0037319D01*
X0157913Y0037206D01*
X0157483Y0037104D01*
X0157050Y0037012D01*
X0156615Y0036931D01*
X0156178Y0036861D01*
X0155740Y0036802D01*
X0155300Y0036753D01*
X0154859Y0036715D01*
X0154418Y0036688D01*
X0153975Y0036671D01*
X0153533Y0036666D01*
X0161000Y0024167D02*
X0161000Y0014167D01*
X0181000Y0024167D02*
X0222036Y0024167D01*
X0224536Y0025202D02*
X0231000Y0031667D01*
X0224536Y0025202D02*
X0224453Y0025121D01*
X0224367Y0025043D01*
X0224279Y0024969D01*
X0224189Y0024897D01*
X0224096Y0024828D01*
X0224000Y0024762D01*
X0223903Y0024699D01*
X0223804Y0024640D01*
X0223703Y0024584D01*
X0223600Y0024531D01*
X0223495Y0024481D01*
X0223389Y0024435D01*
X0223282Y0024393D01*
X0223173Y0024354D01*
X0223062Y0024318D01*
X0222951Y0024286D01*
X0222839Y0024258D01*
X0222726Y0024234D01*
X0222612Y0024213D01*
X0222498Y0024196D01*
X0222383Y0024183D01*
X0222267Y0024174D01*
X0222152Y0024168D01*
X0222036Y0024166D01*
X0156607Y0061060D02*
X0156421Y0061242D01*
X0156230Y0061419D01*
X0156035Y0061592D01*
X0155836Y0061759D01*
X0155633Y0061922D01*
X0155426Y0062080D01*
X0155215Y0062232D01*
X0155000Y0062379D01*
X0154782Y0062521D01*
X0154560Y0062658D01*
X0154335Y0062789D01*
X0154107Y0062915D01*
X0153876Y0063034D01*
X0153642Y0063149D01*
X0153405Y0063257D01*
X0153166Y0063360D01*
X0152924Y0063456D01*
X0152680Y0063547D01*
X0152434Y0063632D01*
X0152186Y0063710D01*
X0151936Y0063783D01*
X0151684Y0063849D01*
X0151431Y0063909D01*
X0151176Y0063963D01*
X0150920Y0064011D01*
X0150663Y0064052D01*
X0150405Y0064087D01*
X0150147Y0064116D01*
X0149887Y0064138D01*
X0149627Y0064154D01*
X0149367Y0064164D01*
X0149107Y0064167D01*
X0233559Y0109324D02*
X0233500Y0111667D01*
X0233071Y0111667D01*
X0232900Y0111669D01*
X0232729Y0111675D01*
X0232559Y0111686D01*
X0232389Y0111700D01*
X0232219Y0111719D01*
X0232049Y0111741D01*
X0231881Y0111768D01*
X0231712Y0111799D01*
X0231545Y0111834D01*
X0231379Y0111872D01*
X0231213Y0111915D01*
X0231049Y0111962D01*
X0230886Y0112013D01*
X0230724Y0112068D01*
X0230564Y0112127D01*
X0230405Y0112189D01*
X0230247Y0112255D01*
X0230091Y0112325D01*
X0229937Y0112399D01*
X0229785Y0112477D01*
X0229635Y0112558D01*
X0229486Y0112643D01*
X0229340Y0112731D01*
X0229196Y0112823D01*
X0229054Y0112919D01*
X0228915Y0113017D01*
X0228778Y0113120D01*
X0228643Y0113225D01*
X0228511Y0113334D01*
X0228382Y0113445D01*
X0228256Y0113560D01*
X0228132Y0113678D01*
X0228011Y0113799D01*
X0227893Y0113923D01*
X0227778Y0114049D01*
X0227667Y0114178D01*
X0227558Y0114310D01*
X0227453Y0114445D01*
X0227350Y0114582D01*
X0227252Y0114721D01*
X0227156Y0114863D01*
X0227064Y0115007D01*
X0226976Y0115153D01*
X0226891Y0115302D01*
X0226810Y0115452D01*
X0226732Y0115604D01*
X0226658Y0115758D01*
X0226588Y0115914D01*
X0226522Y0116072D01*
X0226460Y0116231D01*
X0226401Y0116391D01*
X0226346Y0116553D01*
X0226295Y0116716D01*
X0226248Y0116880D01*
X0226205Y0117046D01*
X0226167Y0117212D01*
X0226132Y0117379D01*
X0226101Y0117548D01*
X0226074Y0117716D01*
X0226052Y0117886D01*
X0226033Y0118056D01*
X0226019Y0118226D01*
X0226008Y0118396D01*
X0226002Y0118567D01*
X0226000Y0118738D01*
X0226000Y0149167D01*
X0223640Y0151527D01*
X0217266Y0154167D02*
X0181000Y0154167D01*
X0141000Y0154167D01*
X0146000Y0149167D01*
X0141000Y0154167D02*
X0114734Y0154167D01*
X0108360Y0151527D02*
X0106000Y0149167D01*
X0108360Y0151527D02*
X0108514Y0151677D01*
X0108671Y0151823D01*
X0108831Y0151965D01*
X0108995Y0152104D01*
X0109162Y0152238D01*
X0109332Y0152369D01*
X0109505Y0152496D01*
X0109682Y0152618D01*
X0109861Y0152736D01*
X0110043Y0152850D01*
X0110227Y0152959D01*
X0110414Y0153064D01*
X0110604Y0153165D01*
X0110795Y0153261D01*
X0110989Y0153352D01*
X0111186Y0153439D01*
X0111384Y0153521D01*
X0111584Y0153599D01*
X0111786Y0153671D01*
X0111989Y0153739D01*
X0112194Y0153802D01*
X0112401Y0153860D01*
X0112609Y0153913D01*
X0112818Y0153961D01*
X0113028Y0154004D01*
X0113239Y0154042D01*
X0113451Y0154075D01*
X0113664Y0154103D01*
X0113877Y0154126D01*
X0114091Y0154144D01*
X0114305Y0154157D01*
X0114519Y0154164D01*
X0114734Y0154167D01*
X0066000Y0149167D02*
X0061000Y0154167D01*
X0031000Y0154167D01*
X0026000Y0149167D01*
X0181000Y0154167D02*
X0186000Y0149167D01*
X0217266Y0154167D02*
X0217481Y0154164D01*
X0217695Y0154157D01*
X0217909Y0154144D01*
X0218123Y0154126D01*
X0218336Y0154103D01*
X0218549Y0154075D01*
X0218761Y0154042D01*
X0218972Y0154004D01*
X0219182Y0153961D01*
X0219391Y0153913D01*
X0219599Y0153860D01*
X0219806Y0153802D01*
X0220011Y0153739D01*
X0220214Y0153671D01*
X0220416Y0153599D01*
X0220616Y0153521D01*
X0220814Y0153439D01*
X0221011Y0153352D01*
X0221205Y0153261D01*
X0221396Y0153165D01*
X0221586Y0153064D01*
X0221773Y0152959D01*
X0221957Y0152850D01*
X0222139Y0152736D01*
X0222318Y0152618D01*
X0222495Y0152496D01*
X0222668Y0152369D01*
X0222838Y0152238D01*
X0223005Y0152104D01*
X0223169Y0151965D01*
X0223329Y0151823D01*
X0223486Y0151677D01*
X0223640Y0151527D01*
X0266000Y0149167D02*
X0268360Y0151527D01*
X0274734Y0154167D02*
X0299964Y0154167D01*
X0301732Y0153434D02*
X0306000Y0149167D01*
X0318500Y0149167D01*
X0318500Y0116465D01*
X0311059Y0109324D01*
X0274734Y0154167D02*
X0274519Y0154164D01*
X0274305Y0154157D01*
X0274091Y0154144D01*
X0273877Y0154126D01*
X0273664Y0154103D01*
X0273451Y0154075D01*
X0273239Y0154042D01*
X0273028Y0154004D01*
X0272818Y0153961D01*
X0272609Y0153913D01*
X0272401Y0153860D01*
X0272194Y0153802D01*
X0271989Y0153739D01*
X0271786Y0153671D01*
X0271584Y0153599D01*
X0271384Y0153521D01*
X0271186Y0153439D01*
X0270989Y0153352D01*
X0270795Y0153261D01*
X0270604Y0153165D01*
X0270414Y0153064D01*
X0270227Y0152959D01*
X0270043Y0152850D01*
X0269861Y0152736D01*
X0269682Y0152618D01*
X0269505Y0152496D01*
X0269332Y0152369D01*
X0269162Y0152238D01*
X0268995Y0152104D01*
X0268831Y0151965D01*
X0268671Y0151823D01*
X0268514Y0151677D01*
X0268360Y0151527D01*
X0299964Y0154167D02*
X0300062Y0154165D01*
X0300160Y0154159D01*
X0300258Y0154150D01*
X0300355Y0154136D01*
X0300452Y0154119D01*
X0300548Y0154098D01*
X0300643Y0154073D01*
X0300737Y0154045D01*
X0300829Y0154012D01*
X0300921Y0153977D01*
X0301011Y0153937D01*
X0301099Y0153895D01*
X0301186Y0153848D01*
X0301270Y0153799D01*
X0301353Y0153746D01*
X0301433Y0153690D01*
X0301512Y0153630D01*
X0301588Y0153568D01*
X0301661Y0153503D01*
X0301732Y0153435D01*
X0318500Y0149167D02*
X0351000Y0149167D01*
X0351000Y0151155D01*
X0351000Y0151667D01*
X0396000Y0151667D01*
X0396000Y0151155D01*
X0396000Y0091155D02*
X0396000Y0067178D01*
X0396000Y0066667D01*
X0351000Y0066667D01*
X0351000Y0067178D01*
X0306000Y0067178D02*
X0306000Y0066667D01*
X0261000Y0066667D01*
X0261000Y0067178D01*
D24*
X0259107Y0074167D02*
X0258929Y0074165D01*
X0258750Y0074159D01*
X0258572Y0074148D01*
X0258394Y0074133D01*
X0258217Y0074114D01*
X0258040Y0074091D01*
X0257863Y0074063D01*
X0257688Y0074031D01*
X0257513Y0073996D01*
X0257339Y0073956D01*
X0257166Y0073911D01*
X0256994Y0073863D01*
X0256823Y0073811D01*
X0256654Y0073755D01*
X0256486Y0073694D01*
X0256320Y0073630D01*
X0256155Y0073561D01*
X0255991Y0073489D01*
X0255830Y0073413D01*
X0255670Y0073333D01*
X0255513Y0073250D01*
X0255357Y0073162D01*
X0255203Y0073071D01*
X0255052Y0072976D01*
X0254903Y0072878D01*
X0254757Y0072776D01*
X0254612Y0072671D01*
X0254471Y0072562D01*
X0254332Y0072450D01*
X0254196Y0072335D01*
X0254062Y0072217D01*
X0253931Y0072095D01*
X0253804Y0071970D01*
X0253803Y0071970D02*
X0253640Y0071807D01*
X0259107Y0074167D02*
X0271000Y0074167D01*
X0273500Y0071667D01*
X0278500Y0071667D01*
X0286000Y0079167D01*
X0286000Y0086667D01*
X0276000Y0076667D02*
X0251000Y0101667D01*
X0248500Y0096667D02*
X0246000Y0096667D01*
X0246000Y0147512D01*
X0246009Y0148216D01*
X0246034Y0148921D01*
X0246077Y0149624D01*
X0246136Y0150326D01*
X0246213Y0151026D01*
X0246306Y0151725D01*
X0246416Y0152420D01*
X0246543Y0153113D01*
X0246687Y0153803D01*
X0246847Y0154489D01*
X0247024Y0155171D01*
X0247217Y0155849D01*
X0247427Y0156521D01*
X0247653Y0157189D01*
X0247895Y0157851D01*
X0248152Y0158506D01*
X0248426Y0159155D01*
X0248715Y0159798D01*
X0249020Y0160433D01*
X0249340Y0161061D01*
X0249674Y0161681D01*
X0250024Y0162292D01*
X0250389Y0162895D01*
X0250768Y0163489D01*
X0251161Y0164074D01*
X0251568Y0164649D01*
X0251989Y0165214D01*
X0252424Y0165768D01*
X0252871Y0166312D01*
X0253332Y0166845D01*
X0253806Y0167367D01*
X0254292Y0167877D01*
X0254790Y0168375D01*
X0255300Y0168861D01*
X0255822Y0169335D01*
X0256355Y0169796D01*
X0256899Y0170243D01*
X0257453Y0170678D01*
X0258018Y0171099D01*
X0258593Y0171506D01*
X0259178Y0171899D01*
X0259772Y0172278D01*
X0260375Y0172643D01*
X0260986Y0172993D01*
X0261606Y0173327D01*
X0262234Y0173647D01*
X0262869Y0173952D01*
X0263512Y0174241D01*
X0264161Y0174515D01*
X0264816Y0174772D01*
X0265478Y0175014D01*
X0266146Y0175240D01*
X0266818Y0175450D01*
X0267496Y0175643D01*
X0268178Y0175820D01*
X0268864Y0175980D01*
X0269554Y0176124D01*
X0270247Y0176251D01*
X0270942Y0176361D01*
X0271641Y0176454D01*
X0272341Y0176531D01*
X0273043Y0176590D01*
X0273746Y0176633D01*
X0274451Y0176658D01*
X0275155Y0176667D01*
X0326869Y0176667D01*
X0338189Y0181355D02*
X0351000Y0194167D01*
X0351000Y0195722D01*
X0351000Y0196667D01*
X0396000Y0196667D01*
X0396000Y0195722D01*
X0396000Y0164167D02*
X0351000Y0164167D01*
X0351000Y0163360D01*
X0396000Y0163360D02*
X0396000Y0164167D01*
X0396000Y0136667D02*
X0351000Y0136667D01*
X0351000Y0135722D01*
X0311059Y0119167D02*
X0306000Y0119167D01*
X0306000Y0091482D01*
X0307637Y0087529D02*
X0311863Y0083304D01*
X0313500Y0079351D02*
X0313500Y0064167D01*
X0311000Y0061667D01*
X0258071Y0061667D01*
X0254536Y0060202D02*
X0252770Y0058436D01*
X0254535Y0060203D02*
X0254636Y0060300D01*
X0254739Y0060395D01*
X0254845Y0060487D01*
X0254954Y0060576D01*
X0255064Y0060662D01*
X0255178Y0060745D01*
X0255293Y0060824D01*
X0255411Y0060901D01*
X0255531Y0060974D01*
X0255652Y0061043D01*
X0255776Y0061109D01*
X0255902Y0061172D01*
X0256029Y0061231D01*
X0256158Y0061286D01*
X0256288Y0061338D01*
X0256420Y0061386D01*
X0256553Y0061431D01*
X0256687Y0061472D01*
X0256822Y0061509D01*
X0256958Y0061542D01*
X0257096Y0061571D01*
X0257233Y0061596D01*
X0257372Y0061618D01*
X0257511Y0061636D01*
X0257651Y0061649D01*
X0257791Y0061659D01*
X0257931Y0061665D01*
X0258071Y0061667D01*
X0247266Y0069167D02*
X0219964Y0069167D01*
X0217464Y0068131D02*
X0211000Y0061667D01*
X0217464Y0068131D02*
X0217547Y0068212D01*
X0217633Y0068290D01*
X0217721Y0068364D01*
X0217811Y0068436D01*
X0217904Y0068505D01*
X0218000Y0068571D01*
X0218097Y0068634D01*
X0218196Y0068693D01*
X0218297Y0068749D01*
X0218400Y0068802D01*
X0218505Y0068852D01*
X0218611Y0068898D01*
X0218718Y0068940D01*
X0218827Y0068979D01*
X0218938Y0069015D01*
X0219049Y0069047D01*
X0219161Y0069075D01*
X0219274Y0069099D01*
X0219388Y0069120D01*
X0219502Y0069137D01*
X0219617Y0069150D01*
X0219733Y0069159D01*
X0219848Y0069165D01*
X0219964Y0069167D01*
X0208071Y0081667D02*
X0207931Y0081665D01*
X0207791Y0081659D01*
X0207651Y0081649D01*
X0207511Y0081636D01*
X0207372Y0081618D01*
X0207233Y0081596D01*
X0207096Y0081571D01*
X0206958Y0081542D01*
X0206822Y0081509D01*
X0206687Y0081472D01*
X0206553Y0081431D01*
X0206420Y0081386D01*
X0206288Y0081338D01*
X0206158Y0081286D01*
X0206029Y0081231D01*
X0205902Y0081172D01*
X0205776Y0081109D01*
X0205652Y0081043D01*
X0205531Y0080974D01*
X0205411Y0080901D01*
X0205293Y0080824D01*
X0205178Y0080745D01*
X0205064Y0080662D01*
X0204954Y0080576D01*
X0204845Y0080487D01*
X0204739Y0080395D01*
X0204636Y0080300D01*
X0204535Y0080203D01*
X0204536Y0080202D02*
X0201000Y0076667D01*
X0197770Y0091667D02*
X0197517Y0091664D01*
X0197264Y0091655D01*
X0197012Y0091639D01*
X0196760Y0091617D01*
X0196508Y0091589D01*
X0196257Y0091555D01*
X0196008Y0091515D01*
X0195759Y0091469D01*
X0195512Y0091417D01*
X0195265Y0091358D01*
X0195021Y0091294D01*
X0194778Y0091223D01*
X0194537Y0091147D01*
X0194297Y0091064D01*
X0194060Y0090976D01*
X0193825Y0090882D01*
X0193593Y0090783D01*
X0193363Y0090677D01*
X0193135Y0090566D01*
X0192911Y0090450D01*
X0192689Y0090328D01*
X0192471Y0090200D01*
X0192255Y0090068D01*
X0192043Y0089930D01*
X0191835Y0089787D01*
X0191630Y0089638D01*
X0191428Y0089485D01*
X0191231Y0089327D01*
X0191037Y0089164D01*
X0190848Y0088997D01*
X0190662Y0088825D01*
X0190481Y0088648D01*
X0183500Y0081667D01*
X0146000Y0081667D01*
X0141000Y0076667D01*
X0136000Y0074167D02*
X0136000Y0086667D01*
X0141000Y0086667D01*
X0131000Y0076667D02*
X0126000Y0081667D01*
X0108500Y0081667D01*
X0106000Y0084167D01*
X0098500Y0084167D01*
X0096000Y0086667D01*
X0106000Y0091667D02*
X0111000Y0086667D01*
X0106000Y0091667D02*
X0064720Y0091667D01*
X0062220Y0094166D02*
X0062115Y0094164D01*
X0062010Y0094158D01*
X0061905Y0094149D01*
X0061801Y0094136D01*
X0061697Y0094119D01*
X0061594Y0094099D01*
X0061492Y0094075D01*
X0061390Y0094047D01*
X0061290Y0094015D01*
X0061191Y0093980D01*
X0061093Y0093942D01*
X0060997Y0093900D01*
X0060902Y0093854D01*
X0060809Y0093806D01*
X0060717Y0093754D01*
X0060628Y0093698D01*
X0060540Y0093640D01*
X0060455Y0093579D01*
X0060372Y0093514D01*
X0060291Y0093447D01*
X0060213Y0093376D01*
X0060138Y0093303D01*
X0062637Y0090804D02*
X0062532Y0090702D01*
X0062424Y0090603D01*
X0062314Y0090506D01*
X0062202Y0090413D01*
X0062087Y0090322D01*
X0061970Y0090235D01*
X0061850Y0090150D01*
X0061729Y0090069D01*
X0061605Y0089991D01*
X0061479Y0089916D01*
X0061351Y0089844D01*
X0061222Y0089776D01*
X0061091Y0089712D01*
X0060958Y0089650D01*
X0060823Y0089593D01*
X0060687Y0089538D01*
X0060550Y0089488D01*
X0060411Y0089441D01*
X0060272Y0089397D01*
X0060131Y0089357D01*
X0059989Y0089321D01*
X0059846Y0089289D01*
X0059703Y0089261D01*
X0059558Y0089236D01*
X0059414Y0089215D01*
X0059268Y0089198D01*
X0059123Y0089184D01*
X0058977Y0089175D01*
X0058830Y0089169D01*
X0058684Y0089167D01*
X0043500Y0089167D01*
X0041000Y0086667D01*
X0041000Y0091667D02*
X0040860Y0091665D01*
X0040720Y0091659D01*
X0040580Y0091649D01*
X0040440Y0091636D01*
X0040301Y0091618D01*
X0040162Y0091596D01*
X0040025Y0091571D01*
X0039887Y0091542D01*
X0039751Y0091509D01*
X0039616Y0091472D01*
X0039482Y0091431D01*
X0039349Y0091386D01*
X0039217Y0091338D01*
X0039087Y0091286D01*
X0038958Y0091231D01*
X0038831Y0091172D01*
X0038705Y0091109D01*
X0038581Y0091043D01*
X0038460Y0090974D01*
X0038340Y0090901D01*
X0038222Y0090824D01*
X0038107Y0090745D01*
X0037993Y0090662D01*
X0037883Y0090576D01*
X0037774Y0090487D01*
X0037668Y0090395D01*
X0037565Y0090300D01*
X0037464Y0090203D01*
X0037367Y0090102D01*
X0037272Y0089999D01*
X0037180Y0089893D01*
X0037091Y0089784D01*
X0037005Y0089674D01*
X0036922Y0089560D01*
X0036843Y0089445D01*
X0036766Y0089327D01*
X0036693Y0089207D01*
X0036624Y0089086D01*
X0036558Y0088962D01*
X0036495Y0088836D01*
X0036436Y0088709D01*
X0036381Y0088580D01*
X0036329Y0088450D01*
X0036281Y0088318D01*
X0036236Y0088185D01*
X0036195Y0088051D01*
X0036158Y0087916D01*
X0036125Y0087780D01*
X0036096Y0087642D01*
X0036071Y0087505D01*
X0036049Y0087366D01*
X0036031Y0087227D01*
X0036018Y0087087D01*
X0036008Y0086947D01*
X0036002Y0086807D01*
X0036000Y0086667D01*
X0036000Y0074167D01*
X0038500Y0071667D01*
X0061000Y0071667D01*
X0066000Y0076667D01*
X0046000Y0081667D02*
X0103500Y0081667D01*
X0108500Y0076667D01*
X0111000Y0076667D01*
X0101000Y0071667D02*
X0133500Y0071667D01*
X0136000Y0074167D02*
X0138500Y0071667D01*
X0238929Y0071667D01*
X0242464Y0073131D02*
X0246000Y0076667D01*
X0247266Y0069167D02*
X0247481Y0069170D01*
X0247695Y0069177D01*
X0247909Y0069190D01*
X0248123Y0069208D01*
X0248336Y0069231D01*
X0248549Y0069259D01*
X0248761Y0069292D01*
X0248972Y0069330D01*
X0249182Y0069373D01*
X0249391Y0069421D01*
X0249599Y0069474D01*
X0249806Y0069532D01*
X0250011Y0069595D01*
X0250214Y0069663D01*
X0250416Y0069735D01*
X0250616Y0069813D01*
X0250814Y0069895D01*
X0251011Y0069982D01*
X0251205Y0070073D01*
X0251396Y0070169D01*
X0251586Y0070270D01*
X0251773Y0070375D01*
X0251958Y0070484D01*
X0252139Y0070598D01*
X0252318Y0070716D01*
X0252495Y0070838D01*
X0252668Y0070965D01*
X0252838Y0071096D01*
X0253005Y0071230D01*
X0253169Y0071369D01*
X0253329Y0071511D01*
X0253486Y0071657D01*
X0253640Y0071807D01*
X0252769Y0058437D02*
X0252521Y0058194D01*
X0252267Y0057958D01*
X0252008Y0057727D01*
X0251743Y0057503D01*
X0251473Y0057286D01*
X0251198Y0057075D01*
X0250917Y0056870D01*
X0250633Y0056672D01*
X0250343Y0056481D01*
X0250049Y0056297D01*
X0249750Y0056120D01*
X0249448Y0055950D01*
X0249142Y0055787D01*
X0248831Y0055632D01*
X0248518Y0055484D01*
X0248200Y0055344D01*
X0247880Y0055211D01*
X0247556Y0055086D01*
X0247230Y0054969D01*
X0246900Y0054859D01*
X0246569Y0054757D01*
X0246235Y0054664D01*
X0245899Y0054578D01*
X0245561Y0054500D01*
X0245221Y0054430D01*
X0244879Y0054369D01*
X0244537Y0054315D01*
X0244193Y0054270D01*
X0243848Y0054233D01*
X0243502Y0054204D01*
X0243156Y0054184D01*
X0242809Y0054171D01*
X0242462Y0054167D01*
X0182036Y0054167D01*
X0180268Y0053434D02*
X0176732Y0049899D01*
X0174964Y0049167D02*
X0063500Y0049167D01*
X0056000Y0056667D01*
X0066000Y0056667D02*
X0076000Y0056667D01*
X0096000Y0076667D02*
X0101000Y0071667D01*
X0064720Y0091666D02*
X0064615Y0091664D01*
X0064510Y0091658D01*
X0064405Y0091649D01*
X0064301Y0091636D01*
X0064197Y0091619D01*
X0064094Y0091599D01*
X0063992Y0091575D01*
X0063890Y0091547D01*
X0063790Y0091515D01*
X0063691Y0091480D01*
X0063593Y0091442D01*
X0063497Y0091400D01*
X0063402Y0091354D01*
X0063309Y0091306D01*
X0063217Y0091254D01*
X0063128Y0091198D01*
X0063040Y0091140D01*
X0062955Y0091079D01*
X0062872Y0091014D01*
X0062791Y0090947D01*
X0062713Y0090876D01*
X0062638Y0090803D01*
X0062220Y0094167D02*
X0118500Y0094167D01*
X0121000Y0091667D01*
X0161000Y0091667D01*
X0171000Y0101667D01*
X0197770Y0091667D02*
X0233500Y0091667D01*
X0239536Y0089167D02*
X0243500Y0089167D01*
X0246000Y0086667D01*
X0248500Y0091667D02*
X0241000Y0091667D01*
X0219275Y0113392D01*
X0211369Y0116667D02*
X0175131Y0116667D01*
X0163811Y0121355D02*
X0156000Y0129167D01*
X0153559Y0129009D01*
X0151000Y0134167D02*
X0146140Y0129307D01*
X0139766Y0126667D02*
X0096858Y0126667D01*
X0086858Y0122525D02*
X0078500Y0114167D01*
X0073559Y0119167D02*
X0033500Y0119167D01*
X0033500Y0071667D01*
X0036000Y0069167D01*
X0036000Y0056667D01*
X0026000Y0056667D02*
X0016000Y0056667D01*
X0031000Y0046667D02*
X0176184Y0046667D01*
X0180137Y0048304D02*
X0180268Y0048434D01*
X0182036Y0049167D02*
X0225801Y0049167D01*
X0243212Y0041955D02*
X0261000Y0024167D01*
X0261000Y0022612D01*
X0277651Y0014167D02*
X0206000Y0014167D01*
X0201000Y0019167D01*
X0225801Y0049167D02*
X0226405Y0049160D01*
X0227009Y0049137D01*
X0227612Y0049100D01*
X0228214Y0049048D01*
X0228815Y0048982D01*
X0229414Y0048901D01*
X0230010Y0048805D01*
X0230605Y0048694D01*
X0231196Y0048569D01*
X0231784Y0048429D01*
X0232368Y0048275D01*
X0232948Y0048107D01*
X0233524Y0047924D01*
X0234096Y0047728D01*
X0234662Y0047517D01*
X0235223Y0047293D01*
X0235779Y0047055D01*
X0236328Y0046803D01*
X0236871Y0046538D01*
X0237408Y0046260D01*
X0237937Y0045968D01*
X0238459Y0045664D01*
X0238974Y0045347D01*
X0239480Y0045017D01*
X0239979Y0044676D01*
X0240468Y0044322D01*
X0240949Y0043956D01*
X0241421Y0043578D01*
X0241883Y0043189D01*
X0242336Y0042789D01*
X0242779Y0042377D01*
X0243211Y0041955D01*
X0277651Y0014166D02*
X0278146Y0014172D01*
X0278640Y0014190D01*
X0279134Y0014221D01*
X0279627Y0014263D01*
X0280118Y0014318D01*
X0280609Y0014384D01*
X0281097Y0014463D01*
X0281583Y0014553D01*
X0282067Y0014656D01*
X0282549Y0014770D01*
X0283027Y0014896D01*
X0283502Y0015034D01*
X0283974Y0015183D01*
X0284441Y0015344D01*
X0284905Y0015517D01*
X0285364Y0015700D01*
X0285819Y0015895D01*
X0286269Y0016101D01*
X0286713Y0016318D01*
X0287152Y0016546D01*
X0287586Y0016785D01*
X0288013Y0017034D01*
X0288434Y0017293D01*
X0288849Y0017563D01*
X0289257Y0017843D01*
X0289658Y0018133D01*
X0290052Y0018432D01*
X0290438Y0018741D01*
X0290816Y0019060D01*
X0291187Y0019387D01*
X0291549Y0019724D01*
X0291903Y0020070D01*
X0358981Y0087148D01*
X0381962Y0096667D02*
X0401000Y0096667D01*
X0403500Y0099167D01*
X0403500Y0134167D01*
X0396000Y0134167D01*
X0396000Y0135722D01*
X0396000Y0136667D01*
X0396000Y0104167D02*
X0351000Y0104167D01*
X0351000Y0103360D01*
X0307637Y0087529D02*
X0307535Y0087634D01*
X0307436Y0087742D01*
X0307339Y0087852D01*
X0307246Y0087964D01*
X0307155Y0088079D01*
X0307068Y0088196D01*
X0306983Y0088316D01*
X0306902Y0088437D01*
X0306824Y0088561D01*
X0306749Y0088687D01*
X0306677Y0088815D01*
X0306609Y0088944D01*
X0306545Y0089075D01*
X0306483Y0089208D01*
X0306426Y0089343D01*
X0306371Y0089479D01*
X0306321Y0089616D01*
X0306274Y0089755D01*
X0306230Y0089894D01*
X0306190Y0090035D01*
X0306154Y0090177D01*
X0306122Y0090320D01*
X0306094Y0090463D01*
X0306069Y0090608D01*
X0306048Y0090752D01*
X0306031Y0090898D01*
X0306017Y0091043D01*
X0306008Y0091189D01*
X0306002Y0091336D01*
X0306000Y0091482D01*
X0311863Y0083304D02*
X0311965Y0083199D01*
X0312064Y0083091D01*
X0312161Y0082981D01*
X0312254Y0082869D01*
X0312345Y0082754D01*
X0312432Y0082637D01*
X0312517Y0082517D01*
X0312598Y0082396D01*
X0312676Y0082272D01*
X0312751Y0082146D01*
X0312823Y0082018D01*
X0312891Y0081889D01*
X0312955Y0081758D01*
X0313017Y0081625D01*
X0313074Y0081490D01*
X0313129Y0081354D01*
X0313179Y0081217D01*
X0313226Y0081078D01*
X0313270Y0080939D01*
X0313310Y0080798D01*
X0313346Y0080656D01*
X0313378Y0080513D01*
X0313406Y0080370D01*
X0313431Y0080225D01*
X0313452Y0080081D01*
X0313469Y0079935D01*
X0313483Y0079790D01*
X0313492Y0079644D01*
X0313498Y0079497D01*
X0313500Y0079351D01*
X0253500Y0086667D02*
X0253500Y0094167D01*
X0251000Y0094167D01*
X0248500Y0096667D01*
X0239536Y0089166D02*
X0239327Y0089169D01*
X0239117Y0089176D01*
X0238908Y0089189D01*
X0238699Y0089207D01*
X0238491Y0089230D01*
X0238284Y0089258D01*
X0238077Y0089292D01*
X0237871Y0089330D01*
X0237666Y0089373D01*
X0237462Y0089422D01*
X0237259Y0089475D01*
X0237058Y0089534D01*
X0236858Y0089597D01*
X0236660Y0089665D01*
X0236464Y0089738D01*
X0236269Y0089816D01*
X0236077Y0089898D01*
X0235886Y0089986D01*
X0235698Y0090077D01*
X0235512Y0090174D01*
X0235329Y0090275D01*
X0235148Y0090380D01*
X0234969Y0090490D01*
X0234794Y0090605D01*
X0234621Y0090723D01*
X0234451Y0090846D01*
X0234284Y0090973D01*
X0234121Y0091104D01*
X0233961Y0091238D01*
X0233804Y0091377D01*
X0233650Y0091520D01*
X0233500Y0091666D01*
X0248500Y0081667D02*
X0253500Y0086667D01*
X0248500Y0081667D02*
X0208071Y0081667D01*
X0238929Y0071667D02*
X0239069Y0071669D01*
X0239209Y0071675D01*
X0239349Y0071685D01*
X0239489Y0071698D01*
X0239628Y0071716D01*
X0239767Y0071738D01*
X0239904Y0071763D01*
X0240042Y0071792D01*
X0240178Y0071825D01*
X0240313Y0071862D01*
X0240447Y0071903D01*
X0240580Y0071948D01*
X0240712Y0071996D01*
X0240842Y0072048D01*
X0240971Y0072103D01*
X0241098Y0072162D01*
X0241224Y0072225D01*
X0241348Y0072291D01*
X0241469Y0072360D01*
X0241589Y0072433D01*
X0241707Y0072510D01*
X0241822Y0072589D01*
X0241936Y0072672D01*
X0242046Y0072758D01*
X0242155Y0072847D01*
X0242261Y0072939D01*
X0242364Y0073034D01*
X0242465Y0073131D01*
X0182036Y0054167D02*
X0181938Y0054165D01*
X0181840Y0054159D01*
X0181742Y0054150D01*
X0181645Y0054136D01*
X0181548Y0054119D01*
X0181452Y0054098D01*
X0181357Y0054073D01*
X0181263Y0054045D01*
X0181171Y0054012D01*
X0181079Y0053977D01*
X0180989Y0053937D01*
X0180901Y0053895D01*
X0180814Y0053848D01*
X0180730Y0053799D01*
X0180647Y0053746D01*
X0180567Y0053690D01*
X0180488Y0053630D01*
X0180412Y0053568D01*
X0180339Y0053503D01*
X0180268Y0053435D01*
X0180137Y0048304D02*
X0180032Y0048202D01*
X0179924Y0048103D01*
X0179814Y0048006D01*
X0179702Y0047913D01*
X0179587Y0047822D01*
X0179470Y0047735D01*
X0179350Y0047650D01*
X0179229Y0047569D01*
X0179105Y0047491D01*
X0178979Y0047416D01*
X0178851Y0047344D01*
X0178722Y0047276D01*
X0178591Y0047212D01*
X0178458Y0047150D01*
X0178323Y0047093D01*
X0178187Y0047038D01*
X0178050Y0046988D01*
X0177911Y0046941D01*
X0177772Y0046897D01*
X0177631Y0046857D01*
X0177489Y0046821D01*
X0177346Y0046789D01*
X0177203Y0046761D01*
X0177058Y0046736D01*
X0176914Y0046715D01*
X0176768Y0046698D01*
X0176623Y0046684D01*
X0176477Y0046675D01*
X0176330Y0046669D01*
X0176184Y0046667D01*
X0180268Y0048435D02*
X0180339Y0048503D01*
X0180412Y0048568D01*
X0180488Y0048630D01*
X0180567Y0048690D01*
X0180647Y0048746D01*
X0180730Y0048799D01*
X0180814Y0048848D01*
X0180901Y0048895D01*
X0180989Y0048937D01*
X0181079Y0048977D01*
X0181171Y0049012D01*
X0181263Y0049045D01*
X0181357Y0049073D01*
X0181452Y0049098D01*
X0181548Y0049119D01*
X0181645Y0049136D01*
X0181742Y0049150D01*
X0181840Y0049159D01*
X0181938Y0049165D01*
X0182036Y0049167D01*
X0176732Y0049899D02*
X0176661Y0049831D01*
X0176588Y0049766D01*
X0176512Y0049704D01*
X0176433Y0049644D01*
X0176353Y0049588D01*
X0176270Y0049535D01*
X0176186Y0049486D01*
X0176099Y0049439D01*
X0176011Y0049397D01*
X0175921Y0049357D01*
X0175829Y0049322D01*
X0175737Y0049289D01*
X0175643Y0049261D01*
X0175548Y0049236D01*
X0175452Y0049215D01*
X0175355Y0049198D01*
X0175258Y0049184D01*
X0175160Y0049175D01*
X0175062Y0049169D01*
X0174964Y0049167D01*
X0166000Y0029167D02*
X0078500Y0029167D01*
X0076000Y0026667D01*
X0066000Y0026667D01*
X0026000Y0026667D02*
X0016000Y0026667D01*
X0031000Y0046667D02*
X0031000Y0121667D01*
X0068500Y0121667D01*
X0073500Y0126667D01*
X0073559Y0129009D01*
X0091000Y0141667D02*
X0103071Y0141667D01*
X0115142Y0146667D02*
X0131184Y0146667D01*
X0108953Y0169620D02*
X0109526Y0170179D01*
X0110112Y0170723D01*
X0110711Y0171253D01*
X0111323Y0171768D01*
X0111948Y0172268D01*
X0112585Y0172752D01*
X0113233Y0173221D01*
X0113893Y0173674D01*
X0114563Y0174110D01*
X0115244Y0174530D01*
X0115935Y0174932D01*
X0116636Y0175318D01*
X0117346Y0175687D01*
X0118065Y0176037D01*
X0118793Y0176371D01*
X0119528Y0176686D01*
X0120271Y0176983D01*
X0121021Y0177262D01*
X0121777Y0177522D01*
X0122540Y0177763D01*
X0123308Y0177986D01*
X0124082Y0178190D01*
X0124860Y0178375D01*
X0125643Y0178541D01*
X0126429Y0178687D01*
X0127219Y0178814D01*
X0128012Y0178922D01*
X0128807Y0179010D01*
X0129604Y0179079D01*
X0130403Y0179128D01*
X0131202Y0179157D01*
X0132002Y0179167D01*
X0285822Y0179167D01*
X0294661Y0182828D02*
X0311000Y0199167D01*
X0326869Y0176666D02*
X0327262Y0176671D01*
X0327654Y0176685D01*
X0328047Y0176709D01*
X0328438Y0176743D01*
X0328829Y0176786D01*
X0329218Y0176839D01*
X0329606Y0176902D01*
X0329992Y0176974D01*
X0330376Y0177055D01*
X0330759Y0177146D01*
X0331139Y0177246D01*
X0331516Y0177355D01*
X0331890Y0177474D01*
X0332262Y0177602D01*
X0332630Y0177739D01*
X0332995Y0177885D01*
X0333356Y0178039D01*
X0333713Y0178203D01*
X0334066Y0178375D01*
X0334415Y0178556D01*
X0334759Y0178746D01*
X0335099Y0178943D01*
X0335433Y0179150D01*
X0335763Y0179364D01*
X0336087Y0179586D01*
X0336405Y0179816D01*
X0336718Y0180054D01*
X0337024Y0180300D01*
X0337325Y0180553D01*
X0337619Y0180813D01*
X0337907Y0181080D01*
X0338188Y0181355D01*
X0291000Y0199167D02*
X0288640Y0196807D01*
X0294661Y0182828D02*
X0294448Y0182620D01*
X0294230Y0182418D01*
X0294008Y0182220D01*
X0293781Y0182028D01*
X0293549Y0181841D01*
X0293313Y0181660D01*
X0293073Y0181485D01*
X0292828Y0181315D01*
X0292580Y0181151D01*
X0292328Y0180993D01*
X0292072Y0180842D01*
X0291813Y0180696D01*
X0291550Y0180557D01*
X0291284Y0180423D01*
X0291015Y0180297D01*
X0290743Y0180176D01*
X0290468Y0180062D01*
X0290190Y0179955D01*
X0289910Y0179854D01*
X0289628Y0179761D01*
X0289344Y0179673D01*
X0289057Y0179593D01*
X0288769Y0179519D01*
X0288479Y0179453D01*
X0288188Y0179393D01*
X0287895Y0179340D01*
X0287601Y0179294D01*
X0287306Y0179255D01*
X0287010Y0179224D01*
X0286714Y0179199D01*
X0286417Y0179181D01*
X0286119Y0179171D01*
X0285822Y0179167D01*
X0282266Y0194167D02*
X0196000Y0194167D01*
X0166000Y0194167D01*
X0086000Y0194167D01*
X0091000Y0199167D01*
X0086000Y0194167D02*
X0019107Y0194167D01*
X0013803Y0196363D02*
X0011000Y0199167D01*
X0013804Y0196364D02*
X0013931Y0196239D01*
X0014062Y0196117D01*
X0014196Y0195999D01*
X0014332Y0195884D01*
X0014471Y0195772D01*
X0014612Y0195663D01*
X0014757Y0195558D01*
X0014903Y0195456D01*
X0015052Y0195358D01*
X0015203Y0195263D01*
X0015357Y0195172D01*
X0015513Y0195084D01*
X0015670Y0195001D01*
X0015830Y0194921D01*
X0015991Y0194845D01*
X0016155Y0194773D01*
X0016320Y0194704D01*
X0016486Y0194640D01*
X0016654Y0194579D01*
X0016823Y0194523D01*
X0016994Y0194471D01*
X0017166Y0194423D01*
X0017339Y0194378D01*
X0017513Y0194338D01*
X0017688Y0194303D01*
X0017863Y0194271D01*
X0018040Y0194243D01*
X0018217Y0194220D01*
X0018394Y0194201D01*
X0018572Y0194186D01*
X0018750Y0194175D01*
X0018929Y0194169D01*
X0019107Y0194167D01*
X0061000Y0189167D02*
X0126000Y0189167D01*
X0126311Y0188855D01*
X0137631Y0184167D02*
X0201000Y0184167D01*
X0201000Y0189167D02*
X0226000Y0189167D01*
X0171000Y0199167D02*
X0166000Y0194167D01*
X0137631Y0184166D02*
X0137238Y0184171D01*
X0136846Y0184185D01*
X0136453Y0184209D01*
X0136062Y0184243D01*
X0135671Y0184286D01*
X0135282Y0184339D01*
X0134894Y0184402D01*
X0134508Y0184474D01*
X0134124Y0184555D01*
X0133741Y0184646D01*
X0133361Y0184746D01*
X0132984Y0184855D01*
X0132610Y0184974D01*
X0132238Y0185102D01*
X0131870Y0185239D01*
X0131505Y0185385D01*
X0131144Y0185539D01*
X0130787Y0185703D01*
X0130434Y0185875D01*
X0130085Y0186056D01*
X0129741Y0186246D01*
X0129401Y0186443D01*
X0129067Y0186650D01*
X0128737Y0186864D01*
X0128413Y0187086D01*
X0128095Y0187316D01*
X0127782Y0187554D01*
X0127476Y0187800D01*
X0127175Y0188053D01*
X0126881Y0188313D01*
X0126593Y0188580D01*
X0126312Y0188855D01*
X0108953Y0169620D02*
X0083500Y0144167D01*
X0103071Y0141667D02*
X0103245Y0141669D01*
X0103418Y0141676D01*
X0103591Y0141686D01*
X0103764Y0141701D01*
X0103937Y0141720D01*
X0104109Y0141744D01*
X0104280Y0141771D01*
X0104450Y0141803D01*
X0104620Y0141839D01*
X0104789Y0141879D01*
X0104957Y0141923D01*
X0105124Y0141971D01*
X0105289Y0142024D01*
X0105453Y0142080D01*
X0105616Y0142141D01*
X0105777Y0142205D01*
X0105936Y0142274D01*
X0106094Y0142346D01*
X0106250Y0142422D01*
X0106404Y0142502D01*
X0106556Y0142586D01*
X0106706Y0142673D01*
X0106854Y0142764D01*
X0106999Y0142859D01*
X0107143Y0142957D01*
X0107283Y0143059D01*
X0107421Y0143164D01*
X0107557Y0143272D01*
X0107690Y0143384D01*
X0107820Y0143499D01*
X0107947Y0143617D01*
X0108071Y0143738D01*
X0108241Y0143904D01*
X0108415Y0144067D01*
X0108593Y0144224D01*
X0108775Y0144378D01*
X0108960Y0144528D01*
X0109149Y0144672D01*
X0109341Y0144813D01*
X0109537Y0144948D01*
X0109736Y0145080D01*
X0109937Y0145206D01*
X0110142Y0145327D01*
X0110350Y0145444D01*
X0110560Y0145555D01*
X0110773Y0145662D01*
X0110988Y0145763D01*
X0111205Y0145860D01*
X0111425Y0145951D01*
X0111647Y0146036D01*
X0111871Y0146117D01*
X0112097Y0146192D01*
X0112325Y0146262D01*
X0112554Y0146326D01*
X0112784Y0146385D01*
X0113016Y0146438D01*
X0113249Y0146486D01*
X0113484Y0146529D01*
X0113719Y0146565D01*
X0113955Y0146596D01*
X0114191Y0146622D01*
X0114429Y0146642D01*
X0114666Y0146656D01*
X0114904Y0146664D01*
X0115142Y0146667D01*
X0131184Y0146667D02*
X0131330Y0146669D01*
X0131477Y0146675D01*
X0131623Y0146684D01*
X0131768Y0146698D01*
X0131914Y0146715D01*
X0132058Y0146736D01*
X0132203Y0146761D01*
X0132346Y0146789D01*
X0132489Y0146821D01*
X0132631Y0146857D01*
X0132772Y0146897D01*
X0132911Y0146941D01*
X0133050Y0146988D01*
X0133187Y0147038D01*
X0133323Y0147093D01*
X0133458Y0147150D01*
X0133591Y0147212D01*
X0133722Y0147276D01*
X0133851Y0147344D01*
X0133979Y0147416D01*
X0134105Y0147491D01*
X0134229Y0147569D01*
X0134350Y0147650D01*
X0134470Y0147735D01*
X0134587Y0147822D01*
X0134702Y0147913D01*
X0134814Y0148006D01*
X0134924Y0148103D01*
X0135032Y0148202D01*
X0135137Y0148304D01*
X0136000Y0149167D01*
X0146140Y0129307D02*
X0145986Y0129157D01*
X0145829Y0129011D01*
X0145669Y0128869D01*
X0145505Y0128730D01*
X0145338Y0128596D01*
X0145168Y0128465D01*
X0144995Y0128338D01*
X0144818Y0128216D01*
X0144639Y0128098D01*
X0144458Y0127984D01*
X0144273Y0127875D01*
X0144086Y0127770D01*
X0143896Y0127669D01*
X0143705Y0127573D01*
X0143511Y0127482D01*
X0143314Y0127395D01*
X0143116Y0127313D01*
X0142916Y0127235D01*
X0142714Y0127163D01*
X0142511Y0127095D01*
X0142306Y0127032D01*
X0142099Y0126974D01*
X0141891Y0126921D01*
X0141682Y0126873D01*
X0141472Y0126830D01*
X0141261Y0126792D01*
X0141049Y0126759D01*
X0140836Y0126731D01*
X0140623Y0126708D01*
X0140409Y0126690D01*
X0140195Y0126677D01*
X0139981Y0126670D01*
X0139766Y0126667D01*
X0151000Y0134167D02*
X0168500Y0134167D01*
X0171000Y0131667D01*
X0163812Y0121355D02*
X0164093Y0121080D01*
X0164381Y0120813D01*
X0164675Y0120553D01*
X0164976Y0120300D01*
X0165282Y0120054D01*
X0165595Y0119816D01*
X0165913Y0119586D01*
X0166237Y0119364D01*
X0166567Y0119150D01*
X0166901Y0118943D01*
X0167241Y0118746D01*
X0167585Y0118556D01*
X0167934Y0118375D01*
X0168287Y0118203D01*
X0168644Y0118039D01*
X0169005Y0117885D01*
X0169370Y0117739D01*
X0169738Y0117602D01*
X0170110Y0117474D01*
X0170484Y0117355D01*
X0170861Y0117246D01*
X0171241Y0117146D01*
X0171624Y0117055D01*
X0172008Y0116974D01*
X0172394Y0116902D01*
X0172782Y0116839D01*
X0173171Y0116786D01*
X0173562Y0116743D01*
X0173953Y0116709D01*
X0174346Y0116685D01*
X0174738Y0116671D01*
X0175131Y0116666D01*
X0211369Y0116666D02*
X0211643Y0116663D01*
X0211918Y0116653D01*
X0212191Y0116636D01*
X0212465Y0116612D01*
X0212738Y0116582D01*
X0213009Y0116545D01*
X0213280Y0116501D01*
X0213550Y0116451D01*
X0213819Y0116394D01*
X0214086Y0116331D01*
X0214351Y0116261D01*
X0214614Y0116185D01*
X0214876Y0116102D01*
X0215135Y0116012D01*
X0215393Y0115917D01*
X0215647Y0115815D01*
X0215900Y0115707D01*
X0216149Y0115593D01*
X0216396Y0115472D01*
X0216639Y0115346D01*
X0216880Y0115214D01*
X0217117Y0115075D01*
X0217350Y0114931D01*
X0217580Y0114782D01*
X0217807Y0114627D01*
X0218029Y0114466D01*
X0218247Y0114300D01*
X0218462Y0114128D01*
X0218671Y0113952D01*
X0218877Y0113770D01*
X0219078Y0113583D01*
X0219274Y0113391D01*
X0251000Y0111667D02*
X0281858Y0111667D01*
X0282200Y0111671D01*
X0282541Y0111684D01*
X0282882Y0111704D01*
X0283223Y0111733D01*
X0283563Y0111770D01*
X0283901Y0111815D01*
X0284239Y0111869D01*
X0284575Y0111930D01*
X0284910Y0112000D01*
X0285242Y0112078D01*
X0285573Y0112164D01*
X0285902Y0112257D01*
X0286228Y0112359D01*
X0286552Y0112469D01*
X0286873Y0112586D01*
X0287191Y0112711D01*
X0287506Y0112844D01*
X0287817Y0112984D01*
X0288126Y0113132D01*
X0288430Y0113287D01*
X0288731Y0113449D01*
X0289027Y0113619D01*
X0289320Y0113796D01*
X0289608Y0113980D01*
X0289892Y0114170D01*
X0290170Y0114368D01*
X0290444Y0114572D01*
X0290714Y0114783D01*
X0290977Y0115000D01*
X0291236Y0115224D01*
X0291489Y0115453D01*
X0291736Y0115689D01*
X0291978Y0115931D01*
X0292214Y0116178D01*
X0292443Y0116431D01*
X0292667Y0116690D01*
X0292884Y0116953D01*
X0293095Y0117223D01*
X0293299Y0117497D01*
X0293497Y0117775D01*
X0293687Y0118059D01*
X0293871Y0118347D01*
X0294048Y0118640D01*
X0294218Y0118936D01*
X0294380Y0119237D01*
X0294535Y0119541D01*
X0294683Y0119850D01*
X0294823Y0120161D01*
X0294956Y0120476D01*
X0295081Y0120794D01*
X0295198Y0121115D01*
X0295308Y0121439D01*
X0295410Y0121765D01*
X0295503Y0122094D01*
X0295589Y0122425D01*
X0295667Y0122757D01*
X0295737Y0123092D01*
X0295798Y0123428D01*
X0295852Y0123766D01*
X0295897Y0124104D01*
X0295934Y0124444D01*
X0295963Y0124785D01*
X0295983Y0125126D01*
X0295996Y0125467D01*
X0296000Y0125809D01*
X0296000Y0149167D01*
X0216000Y0149167D02*
X0213500Y0146667D01*
X0191000Y0146667D01*
X0186000Y0141667D01*
X0171000Y0141667D01*
X0096858Y0126667D02*
X0096521Y0126663D01*
X0096185Y0126651D01*
X0095849Y0126631D01*
X0095514Y0126603D01*
X0095179Y0126567D01*
X0094845Y0126523D01*
X0094513Y0126471D01*
X0094182Y0126411D01*
X0093852Y0126344D01*
X0093524Y0126268D01*
X0093198Y0126185D01*
X0092874Y0126094D01*
X0092552Y0125995D01*
X0092233Y0125889D01*
X0091916Y0125775D01*
X0091602Y0125654D01*
X0091291Y0125525D01*
X0090983Y0125389D01*
X0090679Y0125246D01*
X0090378Y0125095D01*
X0090080Y0124937D01*
X0089787Y0124772D01*
X0089498Y0124601D01*
X0089212Y0124422D01*
X0088931Y0124237D01*
X0088655Y0124045D01*
X0088383Y0123846D01*
X0088116Y0123641D01*
X0087854Y0123430D01*
X0087597Y0123213D01*
X0087345Y0122989D01*
X0087099Y0122760D01*
X0086858Y0122525D01*
X0060137Y0093304D02*
X0060032Y0093202D01*
X0059924Y0093103D01*
X0059814Y0093006D01*
X0059702Y0092913D01*
X0059587Y0092822D01*
X0059470Y0092735D01*
X0059350Y0092650D01*
X0059229Y0092569D01*
X0059105Y0092491D01*
X0058979Y0092416D01*
X0058851Y0092344D01*
X0058722Y0092276D01*
X0058591Y0092212D01*
X0058458Y0092150D01*
X0058323Y0092093D01*
X0058187Y0092038D01*
X0058050Y0091988D01*
X0057911Y0091941D01*
X0057772Y0091897D01*
X0057631Y0091857D01*
X0057489Y0091821D01*
X0057346Y0091789D01*
X0057203Y0091761D01*
X0057058Y0091736D01*
X0056914Y0091715D01*
X0056768Y0091698D01*
X0056623Y0091684D01*
X0056477Y0091675D01*
X0056330Y0091669D01*
X0056184Y0091667D01*
X0041000Y0091667D01*
X0046000Y0081667D02*
X0041000Y0076667D01*
X0011000Y0086667D02*
X0011000Y0101667D01*
X0011000Y0141667D02*
X0021369Y0141667D01*
X0029274Y0144942D02*
X0029381Y0145046D01*
X0029491Y0145147D01*
X0029603Y0145246D01*
X0029717Y0145342D01*
X0029834Y0145434D01*
X0029953Y0145524D01*
X0030075Y0145611D01*
X0030198Y0145695D01*
X0030324Y0145775D01*
X0030452Y0145853D01*
X0030581Y0145927D01*
X0030712Y0145998D01*
X0030846Y0146065D01*
X0030980Y0146129D01*
X0031117Y0146190D01*
X0031255Y0146247D01*
X0031394Y0146300D01*
X0031535Y0146350D01*
X0031676Y0146397D01*
X0031819Y0146440D01*
X0031963Y0146479D01*
X0032108Y0146515D01*
X0032254Y0146546D01*
X0032401Y0146575D01*
X0032548Y0146599D01*
X0032696Y0146620D01*
X0032844Y0146637D01*
X0032993Y0146650D01*
X0033142Y0146659D01*
X0033291Y0146665D01*
X0033440Y0146667D01*
X0053500Y0146667D01*
X0056000Y0149167D01*
X0029274Y0144942D02*
X0029084Y0144756D01*
X0028889Y0144574D01*
X0028690Y0144398D01*
X0028487Y0144226D01*
X0028280Y0144059D01*
X0028069Y0143897D01*
X0027854Y0143740D01*
X0027635Y0143588D01*
X0027413Y0143442D01*
X0027188Y0143301D01*
X0026959Y0143165D01*
X0026727Y0143035D01*
X0026492Y0142910D01*
X0026254Y0142791D01*
X0026013Y0142677D01*
X0025770Y0142570D01*
X0025524Y0142468D01*
X0025276Y0142372D01*
X0025026Y0142282D01*
X0024773Y0142198D01*
X0024519Y0142120D01*
X0024263Y0142048D01*
X0024005Y0141982D01*
X0023745Y0141922D01*
X0023485Y0141869D01*
X0023223Y0141822D01*
X0022960Y0141781D01*
X0022696Y0141746D01*
X0022432Y0141718D01*
X0022167Y0141695D01*
X0021901Y0141680D01*
X0021635Y0141670D01*
X0021369Y0141667D01*
X0151000Y0024167D02*
X0151000Y0014167D01*
X0358981Y0087148D02*
X0359534Y0087688D01*
X0360101Y0088215D01*
X0360679Y0088729D01*
X0361270Y0089228D01*
X0361872Y0089714D01*
X0362485Y0090185D01*
X0363110Y0090641D01*
X0363746Y0091082D01*
X0364391Y0091508D01*
X0365047Y0091918D01*
X0365712Y0092313D01*
X0366386Y0092692D01*
X0367070Y0093054D01*
X0367761Y0093400D01*
X0368461Y0093730D01*
X0369168Y0094043D01*
X0369883Y0094339D01*
X0370604Y0094618D01*
X0371332Y0094880D01*
X0372066Y0095124D01*
X0372806Y0095351D01*
X0373550Y0095560D01*
X0374300Y0095751D01*
X0375054Y0095924D01*
X0375811Y0096080D01*
X0376573Y0096217D01*
X0377337Y0096336D01*
X0378104Y0096437D01*
X0378873Y0096520D01*
X0379643Y0096584D01*
X0380416Y0096630D01*
X0381189Y0096658D01*
X0381962Y0096667D01*
X0396000Y0103360D02*
X0396000Y0104167D01*
X0288640Y0196807D02*
X0288486Y0196657D01*
X0288329Y0196511D01*
X0288169Y0196369D01*
X0288005Y0196230D01*
X0287838Y0196096D01*
X0287668Y0195965D01*
X0287495Y0195838D01*
X0287318Y0195716D01*
X0287139Y0195598D01*
X0286957Y0195484D01*
X0286773Y0195375D01*
X0286586Y0195270D01*
X0286396Y0195169D01*
X0286205Y0195073D01*
X0286011Y0194982D01*
X0285814Y0194895D01*
X0285616Y0194813D01*
X0285416Y0194735D01*
X0285214Y0194663D01*
X0285011Y0194595D01*
X0284806Y0194532D01*
X0284599Y0194474D01*
X0284391Y0194421D01*
X0284182Y0194373D01*
X0283972Y0194330D01*
X0283761Y0194292D01*
X0283549Y0194259D01*
X0283336Y0194231D01*
X0283123Y0194208D01*
X0282909Y0194190D01*
X0282695Y0194177D01*
X0282481Y0194170D01*
X0282266Y0194167D01*
D25*
X0226000Y0189167D03*
X0201000Y0189167D03*
X0201000Y0184167D03*
X0196000Y0194167D03*
X0126000Y0189167D03*
X0061000Y0189167D03*
X0083500Y0144167D03*
X0078500Y0114167D03*
X0133500Y0071667D03*
X0166000Y0029167D03*
X0248500Y0091667D03*
M02*
