%
M48
M72
T01C0.01200
T02C0.02756
T03C0.03200
T04C0.04000
T05C0.04331
T06C0.05315
T07C0.06102
T08C0.08268
%
T01
X133500Y71667
X166000Y29167
X248500Y91667
X83500Y144167
X78500Y114167
X201000Y184167
X201000Y189167
X196000Y194167
X226000Y189167
X126000Y189167
X61000Y189167
T02
X201000Y31667
X211000Y31667
X221000Y31667
X231000Y31667
X231000Y61667
X221000Y61667
X211000Y61667
X201000Y61667
X186000Y149167
X176000Y149167
X146000Y149167
X136000Y149167
X106000Y149167
X96000Y149167
X66000Y149167
X56000Y149167
X26000Y149167
X16000Y149167
X11000Y199167
X31000Y199167
X51000Y199167
X71000Y199167
X91000Y199167
X111000Y199167
X131000Y199167
X151000Y199167
X171000Y199167
X191000Y199167
X211000Y199167
X231000Y199167
X251000Y199167
X271000Y199167
X291000Y199167
X311000Y199167
X306000Y149167
X296000Y149167
X266000Y149167
X256000Y149167
X226000Y149167
X216000Y149167
T03
X276000Y76667
X276000Y86667
X286000Y86667
X316000Y86667
X251000Y101667
X251000Y111667
X251000Y131667
X251000Y141667
X171000Y141667
X171000Y131667
X171000Y111667
X171000Y101667
X201000Y86667
X201000Y76667
X231000Y76667
X246000Y76667
X246000Y86667
X231000Y86667
X171000Y60327
X161000Y55327
X181000Y43006
X171000Y38006
X201000Y19167
X231000Y19167
X121000Y41667
X121000Y56667
X91000Y56667
X76000Y56667
X66000Y56667
X56000Y56667
X46000Y56667
X36000Y56667
X26000Y56667
X16000Y56667
X11000Y76667
X11000Y86667
X11000Y101667
X11000Y111667
X11000Y131667
X11000Y141667
X91000Y141667
X91000Y131667
X91000Y111667
X91000Y101667
X96000Y86667
X96000Y76667
X66000Y76667
X66000Y86667
X41000Y86667
X41000Y76667
X91000Y41667
X76000Y26667
X66000Y26667
X56000Y26667
X46000Y26667
X36000Y26667
X26000Y26667
X16000Y26667
T04
X111000Y14167
X121000Y14167
X131000Y14167
X141000Y14167
X151000Y14167
X161000Y14167
X171000Y14167
X181000Y14167
X181000Y24167
X171000Y24167
X161000Y24167
X151000Y24167
X141000Y24167
X131000Y24167
X121000Y24167
X111000Y24167
X111000Y76667
X121000Y76667
X131000Y76667
X141000Y76667
X151000Y76667
X161000Y76667
X171000Y76667
X181000Y76667
X181000Y86667
X171000Y86667
X161000Y86667
X151000Y86667
X141000Y86667
X131000Y86667
X121000Y86667
X111000Y86667
T05
X73559Y109324
X73559Y119167
X73559Y129009
X153559Y129009
X153559Y119167
X153559Y109324
X233559Y109324
X233559Y119167
X233559Y129009
X311059Y129009
X311059Y119167
X311059Y109324
T06
X396000Y67178
X351000Y67178
X306000Y67178
X261000Y67178
X351000Y91155
X396000Y91155
X396000Y151155
X351000Y151155
T07
X396000Y22612
X351000Y22612
X306000Y22612
X261000Y22612
X261000Y54974
X306000Y54974
X351000Y54974
X396000Y54974
X396000Y103360
X351000Y103360
X351000Y135722
X396000Y135722
X396000Y163360
X351000Y163360
X351000Y195722
X396000Y195722
T08
X283500Y101450
X283500Y136883
X206000Y136883
X206000Y101450
X126000Y101450
X126000Y136883
X46000Y136883
X46000Y101450
M30
