G75*
%MOIN*%
%OFA0B0*%
%FSLAX25Y25*%
%IPPOS*%
%LPD*%
%AMOC8*
5,1,8,0,0,1.08239X$1,22.5*
%
%ADD10C,0.00000*%
%ADD11C,0.00500*%
%ADD12C,0.00315*%
%ADD13C,0.00400*%
%ADD14C,0.00600*%
%ADD15C,0.00300*%
%ADD16C,0.00800*%
%ADD17C,0.00200*%
%ADD18C,0.01000*%
D10*
X0001000Y0006667D02*
X0414386Y0006667D01*
X0414386Y0204738D01*
X0001000Y0204738D01*
X0001000Y0006667D01*
D11*
X0004746Y0029917D02*
X0004746Y0031418D01*
X0004746Y0030667D02*
X0009250Y0030667D01*
X0009250Y0029917D02*
X0009250Y0031418D01*
X0008499Y0032986D02*
X0005497Y0032986D01*
X0004746Y0033737D01*
X0004746Y0035238D01*
X0005497Y0035988D01*
X0006247Y0037590D02*
X0004746Y0039091D01*
X0009250Y0039091D01*
X0009250Y0037590D02*
X0009250Y0040592D01*
X0008499Y0035988D02*
X0009250Y0035238D01*
X0009250Y0033737D01*
X0008499Y0032986D01*
X0021251Y0039417D02*
X0021251Y0043920D01*
X0019750Y0043920D02*
X0022753Y0043920D01*
X0024354Y0043920D02*
X0024354Y0039417D01*
X0027356Y0039417D01*
X0028958Y0040167D02*
X0031960Y0043170D01*
X0031960Y0040167D01*
X0031210Y0039417D01*
X0029708Y0039417D01*
X0028958Y0040167D01*
X0028958Y0043170D01*
X0029708Y0043920D01*
X0031210Y0043920D01*
X0031960Y0043170D01*
X0033562Y0043920D02*
X0036564Y0043920D01*
X0036564Y0043170D01*
X0033562Y0040167D01*
X0033562Y0039417D01*
X0038166Y0041669D02*
X0041168Y0041669D01*
X0042770Y0040918D02*
X0045022Y0040918D01*
X0045772Y0041669D01*
X0045772Y0043170D01*
X0045022Y0043920D01*
X0042770Y0043920D01*
X0042770Y0039417D01*
X0040418Y0039417D02*
X0040418Y0043920D01*
X0038166Y0041669D01*
X0094220Y0041362D02*
X0096889Y0044031D01*
X0096889Y0044698D01*
X0096222Y0045365D01*
X0094887Y0045365D01*
X0094220Y0044698D01*
X0094220Y0041362D02*
X0096889Y0041362D01*
X0098364Y0041362D02*
X0098364Y0045365D01*
X0099031Y0043364D02*
X0101033Y0041362D01*
X0098364Y0042697D02*
X0101033Y0045365D01*
X0109993Y0052971D02*
X0112662Y0055640D01*
X0112662Y0056307D01*
X0111995Y0056975D01*
X0110660Y0056975D01*
X0109993Y0056307D01*
X0114136Y0056975D02*
X0114136Y0052971D01*
X0114136Y0054306D02*
X0116805Y0056975D01*
X0114804Y0054973D02*
X0116805Y0052971D01*
X0112662Y0052971D02*
X0109993Y0052971D01*
X0076033Y0076362D02*
X0074031Y0078364D01*
X0073364Y0077697D02*
X0076033Y0080365D01*
X0073364Y0080365D02*
X0073364Y0076362D01*
X0071889Y0076362D02*
X0069220Y0076362D01*
X0071889Y0079031D01*
X0071889Y0079698D01*
X0071222Y0080365D01*
X0069887Y0080365D01*
X0069220Y0079698D01*
X0069220Y0086362D02*
X0071889Y0089031D01*
X0071889Y0089698D01*
X0071222Y0090365D01*
X0069887Y0090365D01*
X0069220Y0089698D01*
X0073364Y0090365D02*
X0073364Y0086362D01*
X0073364Y0087697D02*
X0076033Y0090365D01*
X0074031Y0088364D02*
X0076033Y0086362D01*
X0071889Y0086362D02*
X0069220Y0086362D01*
X0095977Y0102664D02*
X0095977Y0105164D01*
X0094751Y0103931D02*
X0097251Y0103931D01*
X0095977Y0132664D02*
X0095977Y0135164D01*
X0094751Y0133931D02*
X0097251Y0133931D01*
X0174751Y0133931D02*
X0177251Y0133931D01*
X0175977Y0135164D02*
X0175977Y0132664D01*
X0175977Y0105164D02*
X0175977Y0102664D01*
X0174751Y0103931D02*
X0177251Y0103931D01*
X0204220Y0089031D02*
X0205555Y0090365D01*
X0205555Y0086362D01*
X0206889Y0086362D02*
X0204220Y0086362D01*
X0208364Y0087029D02*
X0211033Y0089698D01*
X0211033Y0087029D01*
X0210365Y0086362D01*
X0209031Y0086362D01*
X0208364Y0087029D01*
X0208364Y0089698D01*
X0209031Y0090365D01*
X0210365Y0090365D01*
X0211033Y0089698D01*
X0212507Y0090365D02*
X0212507Y0086362D01*
X0212507Y0087697D02*
X0214509Y0086362D01*
X0212507Y0087697D02*
X0214509Y0089031D01*
X0208364Y0080365D02*
X0208364Y0076362D01*
X0208364Y0077697D02*
X0210365Y0079031D01*
X0208364Y0077697D02*
X0210365Y0076362D01*
X0206889Y0076362D02*
X0204220Y0076362D01*
X0205555Y0076362D02*
X0205555Y0080365D01*
X0204220Y0079031D01*
X0243283Y0059383D02*
X0278717Y0059383D01*
X0278717Y0018045D01*
X0243283Y0018045D01*
X0243283Y0059383D01*
X0264993Y0072971D02*
X0267662Y0075640D01*
X0267662Y0076307D01*
X0266995Y0076975D01*
X0265660Y0076975D01*
X0264993Y0076307D01*
X0269136Y0076975D02*
X0269136Y0072971D01*
X0269136Y0074306D02*
X0271805Y0076975D01*
X0269804Y0074973D02*
X0271805Y0072971D01*
X0267662Y0072971D02*
X0264993Y0072971D01*
X0264993Y0082971D02*
X0267662Y0085640D01*
X0267662Y0086307D01*
X0266995Y0086975D01*
X0265660Y0086975D01*
X0264993Y0086307D01*
X0264993Y0082971D02*
X0267662Y0082971D01*
X0269136Y0082971D02*
X0269136Y0086975D01*
X0269804Y0084973D02*
X0271805Y0082971D01*
X0269136Y0084306D02*
X0271805Y0086975D01*
X0289220Y0086362D02*
X0291889Y0086362D01*
X0290555Y0086362D02*
X0290555Y0090365D01*
X0289220Y0089031D01*
X0293364Y0089698D02*
X0293364Y0087029D01*
X0296033Y0089698D01*
X0296033Y0087029D01*
X0295365Y0086362D01*
X0294031Y0086362D01*
X0293364Y0087029D01*
X0293364Y0089698D02*
X0294031Y0090365D01*
X0295365Y0090365D01*
X0296033Y0089698D01*
X0297507Y0090365D02*
X0297507Y0086362D01*
X0297507Y0087697D02*
X0299509Y0089031D01*
X0297507Y0087697D02*
X0299509Y0086362D01*
X0333283Y0098950D02*
X0333283Y0140289D01*
X0368717Y0140289D01*
X0368717Y0098950D01*
X0333283Y0098950D01*
X0378283Y0098950D02*
X0378283Y0140289D01*
X0413717Y0140289D01*
X0413717Y0098950D01*
X0378283Y0098950D01*
X0378283Y0059383D02*
X0413717Y0059383D01*
X0413717Y0018045D01*
X0378283Y0018045D01*
X0378283Y0059383D01*
X0368717Y0059383D02*
X0368717Y0018045D01*
X0333283Y0018045D01*
X0333283Y0059383D01*
X0368717Y0059383D01*
X0323717Y0059383D02*
X0323717Y0018045D01*
X0288283Y0018045D01*
X0288283Y0059383D01*
X0323717Y0059383D01*
X0255977Y0102664D02*
X0255977Y0105164D01*
X0254751Y0103931D02*
X0257251Y0103931D01*
X0255977Y0132664D02*
X0255977Y0135164D01*
X0254751Y0133931D02*
X0257251Y0133931D01*
X0333283Y0158950D02*
X0333283Y0200289D01*
X0368717Y0200289D01*
X0368717Y0158950D01*
X0333283Y0158950D01*
X0378283Y0158950D02*
X0378283Y0200289D01*
X0413717Y0200289D01*
X0413717Y0158950D01*
X0378283Y0158950D01*
X0224827Y0019475D02*
X0224827Y0015471D01*
X0224827Y0016806D02*
X0226829Y0015471D01*
X0224827Y0016806D02*
X0226829Y0018140D01*
X0223352Y0015471D02*
X0220683Y0015471D01*
X0222018Y0015471D02*
X0222018Y0019475D01*
X0220683Y0018140D01*
X0036805Y0072971D02*
X0034804Y0074973D01*
X0034136Y0074306D02*
X0036805Y0076975D01*
X0034136Y0076975D02*
X0034136Y0072971D01*
X0032662Y0072971D02*
X0029993Y0072971D01*
X0032662Y0075640D01*
X0032662Y0076307D01*
X0031995Y0076975D01*
X0030660Y0076975D01*
X0029993Y0076307D01*
X0029993Y0082971D02*
X0032662Y0085640D01*
X0032662Y0086307D01*
X0031995Y0086975D01*
X0030660Y0086975D01*
X0029993Y0086307D01*
X0029993Y0082971D02*
X0032662Y0082971D01*
X0034136Y0082971D02*
X0034136Y0086975D01*
X0034804Y0084973D02*
X0036805Y0082971D01*
X0034136Y0084306D02*
X0036805Y0086975D01*
X0015977Y0102664D02*
X0015977Y0105164D01*
X0014751Y0103931D02*
X0017251Y0103931D01*
X0015977Y0132664D02*
X0015977Y0135164D01*
X0014751Y0133931D02*
X0017251Y0133931D01*
D12*
X0259031Y0041667D02*
X0262969Y0041667D01*
X0261000Y0043635D02*
X0261000Y0039698D01*
X0304031Y0041667D02*
X0307969Y0041667D01*
X0306000Y0043635D02*
X0306000Y0039698D01*
X0349031Y0041667D02*
X0352969Y0041667D01*
X0351000Y0043635D02*
X0351000Y0039698D01*
X0394031Y0041667D02*
X0397969Y0041667D01*
X0396000Y0043635D02*
X0396000Y0039698D01*
X0396000Y0114698D02*
X0396000Y0118635D01*
X0394031Y0116667D02*
X0397969Y0116667D01*
X0352969Y0116667D02*
X0349031Y0116667D01*
X0351000Y0118635D02*
X0351000Y0114698D01*
X0351000Y0174698D02*
X0351000Y0178635D01*
X0349031Y0176667D02*
X0352969Y0176667D01*
X0394031Y0176667D02*
X0397969Y0176667D01*
X0396000Y0178635D02*
X0396000Y0174698D01*
D13*
X0259678Y0119065D02*
X0255074Y0119065D01*
X0257376Y0116763D01*
X0257376Y0119833D01*
X0257376Y0115229D02*
X0258143Y0114462D01*
X0258143Y0112160D01*
X0258143Y0113694D02*
X0259678Y0115229D01*
X0257376Y0115229D02*
X0255841Y0115229D01*
X0255074Y0114462D01*
X0255074Y0112160D01*
X0259678Y0112160D01*
X0258143Y0110625D02*
X0255074Y0110625D01*
X0258143Y0110625D02*
X0259678Y0109090D01*
X0258143Y0107556D01*
X0255074Y0107556D01*
X0255926Y0090982D02*
X0255926Y0087879D01*
X0254892Y0087879D02*
X0256961Y0087879D01*
X0258115Y0087879D02*
X0260183Y0089947D01*
X0260183Y0090464D01*
X0259666Y0090982D01*
X0258632Y0090982D01*
X0258115Y0090464D01*
X0255926Y0090982D02*
X0254892Y0089947D01*
X0253738Y0089430D02*
X0253221Y0088913D01*
X0251669Y0088913D01*
X0251669Y0087879D02*
X0251669Y0090982D01*
X0253221Y0090982D01*
X0253738Y0090464D01*
X0253738Y0089430D01*
X0252704Y0088913D02*
X0253738Y0087879D01*
X0258115Y0087879D02*
X0260183Y0087879D01*
X0256443Y0080982D02*
X0254892Y0079430D01*
X0256961Y0079430D01*
X0256443Y0077879D02*
X0256443Y0080982D01*
X0253738Y0080464D02*
X0253738Y0079430D01*
X0253221Y0078913D01*
X0251669Y0078913D01*
X0251669Y0077879D02*
X0251669Y0080982D01*
X0253221Y0080982D01*
X0253738Y0080464D01*
X0252704Y0078913D02*
X0253738Y0077879D01*
X0224576Y0074940D02*
X0224576Y0074423D01*
X0224059Y0073906D01*
X0223025Y0073906D01*
X0222508Y0074423D01*
X0222508Y0074940D01*
X0223025Y0075457D01*
X0224059Y0075457D01*
X0224576Y0074940D01*
X0224059Y0073906D02*
X0224576Y0073389D01*
X0224576Y0072871D01*
X0224059Y0072354D01*
X0223025Y0072354D01*
X0222508Y0072871D01*
X0222508Y0073389D01*
X0223025Y0073906D01*
X0221354Y0073906D02*
X0220836Y0073389D01*
X0219285Y0073389D01*
X0220319Y0073389D02*
X0221354Y0072354D01*
X0221354Y0073906D02*
X0221354Y0074940D01*
X0220836Y0075457D01*
X0219285Y0075457D01*
X0219285Y0072354D01*
X0219285Y0082354D02*
X0219285Y0085457D01*
X0220836Y0085457D01*
X0221354Y0084940D01*
X0221354Y0083906D01*
X0220836Y0083389D01*
X0219285Y0083389D01*
X0220319Y0083389D02*
X0221354Y0082354D01*
X0222508Y0082871D02*
X0223025Y0082354D01*
X0224059Y0082354D01*
X0224576Y0082871D01*
X0224576Y0083906D01*
X0224059Y0084423D01*
X0223542Y0084423D01*
X0222508Y0083906D01*
X0222508Y0085457D01*
X0224576Y0085457D01*
X0182178Y0109090D02*
X0180643Y0107556D01*
X0177574Y0107556D01*
X0177574Y0110625D02*
X0180643Y0110625D01*
X0182178Y0109090D01*
X0182178Y0112160D02*
X0177574Y0112160D01*
X0177574Y0114462D01*
X0178341Y0115229D01*
X0179876Y0115229D01*
X0180643Y0114462D01*
X0180643Y0112160D01*
X0180643Y0113694D02*
X0182178Y0115229D01*
X0181411Y0116763D02*
X0182178Y0117531D01*
X0182178Y0119065D01*
X0181411Y0119833D01*
X0180643Y0119833D01*
X0179876Y0119065D01*
X0179876Y0118298D01*
X0179876Y0119065D02*
X0179109Y0119833D01*
X0178341Y0119833D01*
X0177574Y0119065D01*
X0177574Y0117531D01*
X0178341Y0116763D01*
X0102178Y0116763D02*
X0099109Y0119833D01*
X0098341Y0119833D01*
X0097574Y0119065D01*
X0097574Y0117531D01*
X0098341Y0116763D01*
X0098341Y0115229D02*
X0099876Y0115229D01*
X0100643Y0114462D01*
X0100643Y0112160D01*
X0100643Y0113694D02*
X0102178Y0115229D01*
X0102178Y0116763D02*
X0102178Y0119833D01*
X0098341Y0115229D02*
X0097574Y0114462D01*
X0097574Y0112160D01*
X0102178Y0112160D01*
X0100643Y0110625D02*
X0097574Y0110625D01*
X0100643Y0110625D02*
X0102178Y0109090D01*
X0100643Y0107556D01*
X0097574Y0107556D01*
X0088542Y0085457D02*
X0088542Y0082354D01*
X0087508Y0082354D02*
X0089576Y0082354D01*
X0087508Y0084423D02*
X0088542Y0085457D01*
X0085319Y0085457D02*
X0085319Y0082354D01*
X0084285Y0082354D02*
X0086354Y0082354D01*
X0084285Y0084423D02*
X0085319Y0085457D01*
X0083131Y0084940D02*
X0083131Y0083906D01*
X0082614Y0083389D01*
X0081062Y0083389D01*
X0082097Y0083389D02*
X0083131Y0082354D01*
X0081062Y0082354D02*
X0081062Y0085457D01*
X0082614Y0085457D01*
X0083131Y0084940D01*
X0084285Y0075457D02*
X0085836Y0075457D01*
X0086354Y0074940D01*
X0086354Y0073906D01*
X0085836Y0073389D01*
X0084285Y0073389D01*
X0085319Y0073389D02*
X0086354Y0072354D01*
X0087508Y0072871D02*
X0088025Y0072354D01*
X0089059Y0072354D01*
X0089576Y0072871D01*
X0089576Y0073389D01*
X0089059Y0073906D01*
X0088542Y0073906D01*
X0089059Y0073906D02*
X0089576Y0074423D01*
X0089576Y0074940D01*
X0089059Y0075457D01*
X0088025Y0075457D01*
X0087508Y0074940D01*
X0084285Y0075457D02*
X0084285Y0072354D01*
X0096669Y0060982D02*
X0098221Y0060982D01*
X0098738Y0060464D01*
X0098738Y0059430D01*
X0098221Y0058913D01*
X0096669Y0058913D01*
X0096669Y0057879D02*
X0096669Y0060982D01*
X0097704Y0058913D02*
X0098738Y0057879D01*
X0099892Y0057879D02*
X0101961Y0059947D01*
X0101961Y0060464D01*
X0101443Y0060982D01*
X0100409Y0060982D01*
X0099892Y0060464D01*
X0099892Y0057879D02*
X0101961Y0057879D01*
X0106062Y0040457D02*
X0107614Y0040457D01*
X0108131Y0039940D01*
X0108131Y0038906D01*
X0107614Y0038389D01*
X0106062Y0038389D01*
X0107097Y0038389D02*
X0108131Y0037354D01*
X0109285Y0037354D02*
X0111354Y0037354D01*
X0110319Y0037354D02*
X0110319Y0040457D01*
X0109285Y0039423D01*
X0112508Y0039940D02*
X0112508Y0037871D01*
X0114576Y0039940D01*
X0114576Y0037871D01*
X0114059Y0037354D01*
X0113025Y0037354D01*
X0112508Y0037871D01*
X0112508Y0039940D02*
X0113025Y0040457D01*
X0114059Y0040457D01*
X0114576Y0039940D01*
X0106062Y0040457D02*
X0106062Y0037354D01*
X0161993Y0043636D02*
X0162594Y0042596D01*
X0163414Y0042376D01*
X0163535Y0040966D02*
X0166816Y0040087D01*
X0167336Y0040387D01*
X0167556Y0041208D01*
X0166955Y0042248D01*
X0166135Y0042468D01*
X0165494Y0043577D02*
X0165714Y0044397D01*
X0165114Y0045438D01*
X0164293Y0045657D01*
X0162213Y0044456D01*
X0161993Y0043636D01*
X0163535Y0040966D02*
X0164736Y0038886D01*
X0169284Y0041434D02*
X0170844Y0042335D01*
X0171064Y0043155D01*
X0170163Y0044716D01*
X0168083Y0043514D01*
X0167962Y0044924D02*
X0167142Y0045144D01*
X0166541Y0046184D01*
X0166761Y0047004D01*
X0170042Y0046125D01*
X0167962Y0044924D01*
X0166761Y0047004D02*
X0168841Y0048205D01*
X0169662Y0047986D01*
X0170262Y0046946D01*
X0170042Y0046125D01*
X0168201Y0049315D02*
X0166121Y0048114D01*
X0165300Y0048334D01*
X0164700Y0049374D01*
X0164920Y0050194D01*
X0168201Y0049315D01*
X0168421Y0050135D01*
X0167820Y0051175D01*
X0167000Y0051395D01*
X0164920Y0050194D01*
X0163759Y0051003D02*
X0162558Y0053084D01*
X0163159Y0052043D02*
X0166279Y0053845D01*
X0164638Y0054285D01*
X0169158Y0055862D02*
X0170359Y0053782D01*
X0169758Y0054822D02*
X0172879Y0056623D01*
X0171238Y0057063D01*
X0174006Y0057890D02*
X0174607Y0056850D01*
X0175427Y0056630D01*
X0175548Y0055220D02*
X0176749Y0053140D01*
X0176148Y0054180D02*
X0179268Y0055982D01*
X0177628Y0056421D01*
X0177507Y0057831D02*
X0177727Y0058652D01*
X0177127Y0059692D01*
X0176306Y0059911D01*
X0174226Y0058710D01*
X0174006Y0057890D01*
X0173600Y0054174D02*
X0174420Y0053954D01*
X0175021Y0052914D01*
X0174801Y0052093D01*
X0171520Y0052973D01*
X0171300Y0052152D01*
X0171900Y0051112D01*
X0172721Y0050892D01*
X0174801Y0052093D01*
X0175441Y0050984D02*
X0173361Y0049783D01*
X0176642Y0048904D01*
X0174562Y0047703D01*
X0173742Y0047922D01*
X0173141Y0048963D01*
X0173361Y0049783D01*
X0175441Y0050984D02*
X0176262Y0050764D01*
X0176862Y0049724D01*
X0176642Y0048904D01*
X0176763Y0047494D02*
X0177664Y0045934D01*
X0177444Y0045114D01*
X0175884Y0044213D01*
X0174683Y0046293D02*
X0176763Y0047494D01*
X0173600Y0054174D02*
X0171520Y0052973D01*
X0206669Y0023482D02*
X0208221Y0023482D01*
X0208738Y0022964D01*
X0208738Y0021930D01*
X0208221Y0021413D01*
X0206669Y0021413D01*
X0206669Y0020379D02*
X0206669Y0023482D01*
X0207704Y0021413D02*
X0208738Y0020379D01*
X0209892Y0020379D02*
X0209892Y0020896D01*
X0211961Y0022964D01*
X0211961Y0023482D01*
X0209892Y0023482D01*
X0249715Y0031867D02*
X0251250Y0031867D01*
X0250482Y0031867D02*
X0250482Y0036471D01*
X0249715Y0036471D02*
X0251250Y0036471D01*
X0252784Y0036471D02*
X0255854Y0031867D01*
X0255854Y0036471D01*
X0252784Y0036471D02*
X0252784Y0031867D01*
X0257388Y0031099D02*
X0260457Y0031099D01*
X0261992Y0031867D02*
X0265061Y0031867D01*
X0263527Y0031867D02*
X0263527Y0036471D01*
X0261992Y0034936D01*
X0266596Y0034936D02*
X0266596Y0031867D01*
X0266596Y0034169D02*
X0269665Y0034169D01*
X0269665Y0034936D02*
X0269665Y0031867D01*
X0269665Y0034936D02*
X0268131Y0036471D01*
X0266596Y0034936D01*
X0294715Y0036471D02*
X0296250Y0036471D01*
X0295482Y0036471D02*
X0295482Y0031867D01*
X0294715Y0031867D02*
X0296250Y0031867D01*
X0297784Y0031867D02*
X0297784Y0036471D01*
X0300854Y0031867D01*
X0300854Y0036471D01*
X0306992Y0035703D02*
X0307759Y0036471D01*
X0309294Y0036471D01*
X0310061Y0035703D01*
X0310061Y0034936D01*
X0306992Y0031867D01*
X0310061Y0031867D01*
X0311596Y0031867D02*
X0311596Y0034936D01*
X0313131Y0036471D01*
X0314665Y0034936D01*
X0314665Y0031867D01*
X0314665Y0034169D02*
X0311596Y0034169D01*
X0305457Y0031099D02*
X0302388Y0031099D01*
X0339715Y0031471D02*
X0341250Y0031471D01*
X0340482Y0031471D02*
X0340482Y0026867D01*
X0339715Y0026867D02*
X0341250Y0026867D01*
X0342784Y0026867D02*
X0342784Y0031471D01*
X0345854Y0026867D01*
X0345854Y0031471D01*
X0351992Y0030703D02*
X0352759Y0031471D01*
X0354294Y0031471D01*
X0355061Y0030703D01*
X0355061Y0029936D01*
X0354294Y0029169D01*
X0355061Y0028401D01*
X0355061Y0027634D01*
X0354294Y0026867D01*
X0352759Y0026867D01*
X0351992Y0027634D01*
X0350457Y0026099D02*
X0347388Y0026099D01*
X0353527Y0029169D02*
X0354294Y0029169D01*
X0356596Y0029169D02*
X0359665Y0029169D01*
X0359665Y0029936D02*
X0359665Y0026867D01*
X0359665Y0029936D02*
X0358131Y0031471D01*
X0356596Y0029936D01*
X0356596Y0026867D01*
X0379715Y0031867D02*
X0381250Y0031867D01*
X0380482Y0031867D02*
X0380482Y0036471D01*
X0379715Y0036471D02*
X0381250Y0036471D01*
X0382784Y0036471D02*
X0385854Y0031867D01*
X0385854Y0036471D01*
X0382784Y0036471D02*
X0382784Y0031867D01*
X0387388Y0031099D02*
X0390457Y0031099D01*
X0391992Y0034169D02*
X0395061Y0034169D01*
X0396596Y0034169D02*
X0399665Y0034169D01*
X0399665Y0034936D02*
X0399665Y0031867D01*
X0399665Y0034936D02*
X0398131Y0036471D01*
X0396596Y0034936D01*
X0396596Y0031867D01*
X0394294Y0031867D02*
X0394294Y0036471D01*
X0391992Y0034169D01*
X0309576Y0082871D02*
X0309576Y0083389D01*
X0309059Y0083906D01*
X0307508Y0083906D01*
X0307508Y0082871D01*
X0308025Y0082354D01*
X0309059Y0082354D01*
X0309576Y0082871D01*
X0308542Y0084940D02*
X0307508Y0083906D01*
X0306354Y0083906D02*
X0306354Y0084940D01*
X0305836Y0085457D01*
X0304285Y0085457D01*
X0304285Y0082354D01*
X0304285Y0083389D02*
X0305836Y0083389D01*
X0306354Y0083906D01*
X0305319Y0083389D02*
X0306354Y0082354D01*
X0308542Y0084940D02*
X0309576Y0085457D01*
X0021961Y0087879D02*
X0019892Y0087879D01*
X0020926Y0087879D02*
X0020926Y0090982D01*
X0019892Y0089947D01*
X0018738Y0089430D02*
X0018221Y0088913D01*
X0016669Y0088913D01*
X0016669Y0087879D02*
X0016669Y0090982D01*
X0018221Y0090982D01*
X0018738Y0090464D01*
X0018738Y0089430D01*
X0017704Y0088913D02*
X0018738Y0087879D01*
X0018221Y0080982D02*
X0018738Y0080464D01*
X0018738Y0079430D01*
X0018221Y0078913D01*
X0016669Y0078913D01*
X0016669Y0077879D02*
X0016669Y0080982D01*
X0018221Y0080982D01*
X0019892Y0080464D02*
X0019892Y0079947D01*
X0020409Y0079430D01*
X0021961Y0079430D01*
X0021961Y0078396D02*
X0021961Y0080464D01*
X0021443Y0080982D01*
X0020409Y0080982D01*
X0019892Y0080464D01*
X0019892Y0078396D02*
X0020409Y0077879D01*
X0021443Y0077879D01*
X0021961Y0078396D01*
X0018738Y0077879D02*
X0017704Y0078913D01*
X0017574Y0107556D02*
X0020643Y0107556D01*
X0022178Y0109090D01*
X0020643Y0110625D01*
X0017574Y0110625D01*
X0017574Y0112160D02*
X0017574Y0114462D01*
X0018341Y0115229D01*
X0019876Y0115229D01*
X0020643Y0114462D01*
X0020643Y0112160D01*
X0020643Y0113694D02*
X0022178Y0115229D01*
X0022178Y0116763D02*
X0022178Y0119833D01*
X0022178Y0118298D02*
X0017574Y0118298D01*
X0019109Y0116763D01*
X0017574Y0112160D02*
X0022178Y0112160D01*
D14*
X0016000Y0091167D02*
X0014500Y0091167D01*
X0014440Y0091165D01*
X0014379Y0091160D01*
X0014320Y0091151D01*
X0014261Y0091138D01*
X0014202Y0091122D01*
X0014145Y0091102D01*
X0014090Y0091079D01*
X0014035Y0091052D01*
X0013983Y0091023D01*
X0013932Y0090990D01*
X0013883Y0090954D01*
X0013837Y0090916D01*
X0013793Y0090874D01*
X0013751Y0090830D01*
X0013713Y0090784D01*
X0013677Y0090735D01*
X0013644Y0090684D01*
X0013615Y0090632D01*
X0013588Y0090577D01*
X0013565Y0090522D01*
X0013545Y0090465D01*
X0013529Y0090406D01*
X0013516Y0090347D01*
X0013507Y0090288D01*
X0013502Y0090227D01*
X0013500Y0090167D01*
X0013500Y0083167D02*
X0013502Y0083107D01*
X0013507Y0083046D01*
X0013516Y0082987D01*
X0013529Y0082928D01*
X0013545Y0082869D01*
X0013565Y0082812D01*
X0013588Y0082757D01*
X0013615Y0082702D01*
X0013644Y0082650D01*
X0013677Y0082599D01*
X0013713Y0082550D01*
X0013751Y0082504D01*
X0013793Y0082460D01*
X0013837Y0082418D01*
X0013883Y0082380D01*
X0013932Y0082344D01*
X0013983Y0082311D01*
X0014035Y0082282D01*
X0014090Y0082255D01*
X0014145Y0082232D01*
X0014202Y0082212D01*
X0014261Y0082196D01*
X0014320Y0082183D01*
X0014379Y0082174D01*
X0014440Y0082169D01*
X0014500Y0082167D01*
X0016000Y0082167D01*
X0016000Y0081167D02*
X0014500Y0081167D01*
X0014440Y0081165D01*
X0014379Y0081160D01*
X0014320Y0081151D01*
X0014261Y0081138D01*
X0014202Y0081122D01*
X0014145Y0081102D01*
X0014090Y0081079D01*
X0014035Y0081052D01*
X0013983Y0081023D01*
X0013932Y0080990D01*
X0013883Y0080954D01*
X0013837Y0080916D01*
X0013793Y0080874D01*
X0013751Y0080830D01*
X0013713Y0080784D01*
X0013677Y0080735D01*
X0013644Y0080684D01*
X0013615Y0080632D01*
X0013588Y0080577D01*
X0013565Y0080522D01*
X0013545Y0080465D01*
X0013529Y0080406D01*
X0013516Y0080347D01*
X0013507Y0080288D01*
X0013502Y0080227D01*
X0013500Y0080167D01*
X0013500Y0073167D02*
X0013502Y0073107D01*
X0013507Y0073046D01*
X0013516Y0072987D01*
X0013529Y0072928D01*
X0013545Y0072869D01*
X0013565Y0072812D01*
X0013588Y0072757D01*
X0013615Y0072702D01*
X0013644Y0072650D01*
X0013677Y0072599D01*
X0013713Y0072550D01*
X0013751Y0072504D01*
X0013793Y0072460D01*
X0013837Y0072418D01*
X0013883Y0072380D01*
X0013932Y0072344D01*
X0013983Y0072311D01*
X0014035Y0072282D01*
X0014090Y0072255D01*
X0014145Y0072232D01*
X0014202Y0072212D01*
X0014261Y0072196D01*
X0014320Y0072183D01*
X0014379Y0072174D01*
X0014440Y0072169D01*
X0014500Y0072167D01*
X0016000Y0072167D01*
X0036000Y0072167D02*
X0037500Y0072167D01*
X0037560Y0072169D01*
X0037621Y0072174D01*
X0037680Y0072183D01*
X0037739Y0072196D01*
X0037798Y0072212D01*
X0037855Y0072232D01*
X0037910Y0072255D01*
X0037965Y0072282D01*
X0038017Y0072311D01*
X0038068Y0072344D01*
X0038117Y0072380D01*
X0038163Y0072418D01*
X0038207Y0072460D01*
X0038249Y0072504D01*
X0038287Y0072550D01*
X0038323Y0072599D01*
X0038356Y0072650D01*
X0038385Y0072702D01*
X0038412Y0072757D01*
X0038435Y0072812D01*
X0038455Y0072869D01*
X0038471Y0072928D01*
X0038484Y0072987D01*
X0038493Y0073046D01*
X0038498Y0073107D01*
X0038500Y0073167D01*
X0038500Y0080167D02*
X0038498Y0080227D01*
X0038493Y0080288D01*
X0038484Y0080347D01*
X0038471Y0080406D01*
X0038455Y0080465D01*
X0038435Y0080522D01*
X0038412Y0080577D01*
X0038385Y0080632D01*
X0038356Y0080684D01*
X0038323Y0080735D01*
X0038287Y0080784D01*
X0038249Y0080830D01*
X0038207Y0080874D01*
X0038163Y0080916D01*
X0038117Y0080954D01*
X0038068Y0080990D01*
X0038017Y0081023D01*
X0037965Y0081052D01*
X0037910Y0081079D01*
X0037855Y0081102D01*
X0037798Y0081122D01*
X0037739Y0081138D01*
X0037680Y0081151D01*
X0037621Y0081160D01*
X0037560Y0081165D01*
X0037500Y0081167D01*
X0036000Y0081167D01*
X0036000Y0082167D02*
X0037500Y0082167D01*
X0037560Y0082169D01*
X0037621Y0082174D01*
X0037680Y0082183D01*
X0037739Y0082196D01*
X0037798Y0082212D01*
X0037855Y0082232D01*
X0037910Y0082255D01*
X0037965Y0082282D01*
X0038017Y0082311D01*
X0038068Y0082344D01*
X0038117Y0082380D01*
X0038163Y0082418D01*
X0038207Y0082460D01*
X0038249Y0082504D01*
X0038287Y0082550D01*
X0038323Y0082599D01*
X0038356Y0082650D01*
X0038385Y0082702D01*
X0038412Y0082757D01*
X0038435Y0082812D01*
X0038455Y0082869D01*
X0038471Y0082928D01*
X0038484Y0082987D01*
X0038493Y0083046D01*
X0038498Y0083107D01*
X0038500Y0083167D01*
X0038500Y0090167D02*
X0038498Y0090227D01*
X0038493Y0090288D01*
X0038484Y0090347D01*
X0038471Y0090406D01*
X0038455Y0090465D01*
X0038435Y0090522D01*
X0038412Y0090577D01*
X0038385Y0090632D01*
X0038356Y0090684D01*
X0038323Y0090735D01*
X0038287Y0090784D01*
X0038249Y0090830D01*
X0038207Y0090874D01*
X0038163Y0090916D01*
X0038117Y0090954D01*
X0038068Y0090990D01*
X0038017Y0091023D01*
X0037965Y0091052D01*
X0037910Y0091079D01*
X0037855Y0091102D01*
X0037798Y0091122D01*
X0037739Y0091138D01*
X0037680Y0091151D01*
X0037621Y0091160D01*
X0037560Y0091165D01*
X0037500Y0091167D01*
X0036000Y0091167D01*
X0069500Y0091167D02*
X0071000Y0091167D01*
X0069500Y0091167D02*
X0069440Y0091165D01*
X0069379Y0091160D01*
X0069320Y0091151D01*
X0069261Y0091138D01*
X0069202Y0091122D01*
X0069145Y0091102D01*
X0069090Y0091079D01*
X0069035Y0091052D01*
X0068983Y0091023D01*
X0068932Y0090990D01*
X0068883Y0090954D01*
X0068837Y0090916D01*
X0068793Y0090874D01*
X0068751Y0090830D01*
X0068713Y0090784D01*
X0068677Y0090735D01*
X0068644Y0090684D01*
X0068615Y0090632D01*
X0068588Y0090577D01*
X0068565Y0090522D01*
X0068545Y0090465D01*
X0068529Y0090406D01*
X0068516Y0090347D01*
X0068507Y0090288D01*
X0068502Y0090227D01*
X0068500Y0090167D01*
X0068500Y0083167D02*
X0068502Y0083107D01*
X0068507Y0083046D01*
X0068516Y0082987D01*
X0068529Y0082928D01*
X0068545Y0082869D01*
X0068565Y0082812D01*
X0068588Y0082757D01*
X0068615Y0082702D01*
X0068644Y0082650D01*
X0068677Y0082599D01*
X0068713Y0082550D01*
X0068751Y0082504D01*
X0068793Y0082460D01*
X0068837Y0082418D01*
X0068883Y0082380D01*
X0068932Y0082344D01*
X0068983Y0082311D01*
X0069035Y0082282D01*
X0069090Y0082255D01*
X0069145Y0082232D01*
X0069202Y0082212D01*
X0069261Y0082196D01*
X0069320Y0082183D01*
X0069379Y0082174D01*
X0069440Y0082169D01*
X0069500Y0082167D01*
X0071000Y0082167D01*
X0071000Y0081167D02*
X0069500Y0081167D01*
X0069440Y0081165D01*
X0069379Y0081160D01*
X0069320Y0081151D01*
X0069261Y0081138D01*
X0069202Y0081122D01*
X0069145Y0081102D01*
X0069090Y0081079D01*
X0069035Y0081052D01*
X0068983Y0081023D01*
X0068932Y0080990D01*
X0068883Y0080954D01*
X0068837Y0080916D01*
X0068793Y0080874D01*
X0068751Y0080830D01*
X0068713Y0080784D01*
X0068677Y0080735D01*
X0068644Y0080684D01*
X0068615Y0080632D01*
X0068588Y0080577D01*
X0068565Y0080522D01*
X0068545Y0080465D01*
X0068529Y0080406D01*
X0068516Y0080347D01*
X0068507Y0080288D01*
X0068502Y0080227D01*
X0068500Y0080167D01*
X0068500Y0073167D02*
X0068502Y0073107D01*
X0068507Y0073046D01*
X0068516Y0072987D01*
X0068529Y0072928D01*
X0068545Y0072869D01*
X0068565Y0072812D01*
X0068588Y0072757D01*
X0068615Y0072702D01*
X0068644Y0072650D01*
X0068677Y0072599D01*
X0068713Y0072550D01*
X0068751Y0072504D01*
X0068793Y0072460D01*
X0068837Y0072418D01*
X0068883Y0072380D01*
X0068932Y0072344D01*
X0068983Y0072311D01*
X0069035Y0072282D01*
X0069090Y0072255D01*
X0069145Y0072232D01*
X0069202Y0072212D01*
X0069261Y0072196D01*
X0069320Y0072183D01*
X0069379Y0072174D01*
X0069440Y0072169D01*
X0069500Y0072167D01*
X0071000Y0072167D01*
X0091000Y0072167D02*
X0092500Y0072167D01*
X0092560Y0072169D01*
X0092621Y0072174D01*
X0092680Y0072183D01*
X0092739Y0072196D01*
X0092798Y0072212D01*
X0092855Y0072232D01*
X0092910Y0072255D01*
X0092965Y0072282D01*
X0093017Y0072311D01*
X0093068Y0072344D01*
X0093117Y0072380D01*
X0093163Y0072418D01*
X0093207Y0072460D01*
X0093249Y0072504D01*
X0093287Y0072550D01*
X0093323Y0072599D01*
X0093356Y0072650D01*
X0093385Y0072702D01*
X0093412Y0072757D01*
X0093435Y0072812D01*
X0093455Y0072869D01*
X0093471Y0072928D01*
X0093484Y0072987D01*
X0093493Y0073046D01*
X0093498Y0073107D01*
X0093500Y0073167D01*
X0093500Y0080167D02*
X0093498Y0080227D01*
X0093493Y0080288D01*
X0093484Y0080347D01*
X0093471Y0080406D01*
X0093455Y0080465D01*
X0093435Y0080522D01*
X0093412Y0080577D01*
X0093385Y0080632D01*
X0093356Y0080684D01*
X0093323Y0080735D01*
X0093287Y0080784D01*
X0093249Y0080830D01*
X0093207Y0080874D01*
X0093163Y0080916D01*
X0093117Y0080954D01*
X0093068Y0080990D01*
X0093017Y0081023D01*
X0092965Y0081052D01*
X0092910Y0081079D01*
X0092855Y0081102D01*
X0092798Y0081122D01*
X0092739Y0081138D01*
X0092680Y0081151D01*
X0092621Y0081160D01*
X0092560Y0081165D01*
X0092500Y0081167D01*
X0091000Y0081167D01*
X0091000Y0082167D02*
X0092500Y0082167D01*
X0092560Y0082169D01*
X0092621Y0082174D01*
X0092680Y0082183D01*
X0092739Y0082196D01*
X0092798Y0082212D01*
X0092855Y0082232D01*
X0092910Y0082255D01*
X0092965Y0082282D01*
X0093017Y0082311D01*
X0093068Y0082344D01*
X0093117Y0082380D01*
X0093163Y0082418D01*
X0093207Y0082460D01*
X0093249Y0082504D01*
X0093287Y0082550D01*
X0093323Y0082599D01*
X0093356Y0082650D01*
X0093385Y0082702D01*
X0093412Y0082757D01*
X0093435Y0082812D01*
X0093455Y0082869D01*
X0093471Y0082928D01*
X0093484Y0082987D01*
X0093493Y0083046D01*
X0093498Y0083107D01*
X0093500Y0083167D01*
X0093500Y0090167D02*
X0093498Y0090227D01*
X0093493Y0090288D01*
X0093484Y0090347D01*
X0093471Y0090406D01*
X0093455Y0090465D01*
X0093435Y0090522D01*
X0093412Y0090577D01*
X0093385Y0090632D01*
X0093356Y0090684D01*
X0093323Y0090735D01*
X0093287Y0090784D01*
X0093249Y0090830D01*
X0093207Y0090874D01*
X0093163Y0090916D01*
X0093117Y0090954D01*
X0093068Y0090990D01*
X0093017Y0091023D01*
X0092965Y0091052D01*
X0092910Y0091079D01*
X0092855Y0091102D01*
X0092798Y0091122D01*
X0092739Y0091138D01*
X0092680Y0091151D01*
X0092621Y0091160D01*
X0092560Y0091165D01*
X0092500Y0091167D01*
X0091000Y0091167D01*
X0094500Y0061167D02*
X0096000Y0061167D01*
X0094500Y0061167D02*
X0094440Y0061165D01*
X0094379Y0061160D01*
X0094320Y0061151D01*
X0094261Y0061138D01*
X0094202Y0061122D01*
X0094145Y0061102D01*
X0094090Y0061079D01*
X0094035Y0061052D01*
X0093983Y0061023D01*
X0093932Y0060990D01*
X0093883Y0060954D01*
X0093837Y0060916D01*
X0093793Y0060874D01*
X0093751Y0060830D01*
X0093713Y0060784D01*
X0093677Y0060735D01*
X0093644Y0060684D01*
X0093615Y0060632D01*
X0093588Y0060577D01*
X0093565Y0060522D01*
X0093545Y0060465D01*
X0093529Y0060406D01*
X0093516Y0060347D01*
X0093507Y0060288D01*
X0093502Y0060227D01*
X0093500Y0060167D01*
X0093500Y0053167D02*
X0093502Y0053107D01*
X0093507Y0053046D01*
X0093516Y0052987D01*
X0093529Y0052928D01*
X0093545Y0052869D01*
X0093565Y0052812D01*
X0093588Y0052757D01*
X0093615Y0052702D01*
X0093644Y0052650D01*
X0093677Y0052599D01*
X0093713Y0052550D01*
X0093751Y0052504D01*
X0093793Y0052460D01*
X0093837Y0052418D01*
X0093883Y0052380D01*
X0093932Y0052344D01*
X0093983Y0052311D01*
X0094035Y0052282D01*
X0094090Y0052255D01*
X0094145Y0052232D01*
X0094202Y0052212D01*
X0094261Y0052196D01*
X0094320Y0052183D01*
X0094379Y0052174D01*
X0094440Y0052169D01*
X0094500Y0052167D01*
X0096000Y0052167D01*
X0096000Y0046167D02*
X0094500Y0046167D01*
X0094440Y0046165D01*
X0094379Y0046160D01*
X0094320Y0046151D01*
X0094261Y0046138D01*
X0094202Y0046122D01*
X0094145Y0046102D01*
X0094090Y0046079D01*
X0094035Y0046052D01*
X0093983Y0046023D01*
X0093932Y0045990D01*
X0093883Y0045954D01*
X0093837Y0045916D01*
X0093793Y0045874D01*
X0093751Y0045830D01*
X0093713Y0045784D01*
X0093677Y0045735D01*
X0093644Y0045684D01*
X0093615Y0045632D01*
X0093588Y0045577D01*
X0093565Y0045522D01*
X0093545Y0045465D01*
X0093529Y0045406D01*
X0093516Y0045347D01*
X0093507Y0045288D01*
X0093502Y0045227D01*
X0093500Y0045167D01*
X0093500Y0038167D02*
X0093502Y0038107D01*
X0093507Y0038046D01*
X0093516Y0037987D01*
X0093529Y0037928D01*
X0093545Y0037869D01*
X0093565Y0037812D01*
X0093588Y0037757D01*
X0093615Y0037702D01*
X0093644Y0037650D01*
X0093677Y0037599D01*
X0093713Y0037550D01*
X0093751Y0037504D01*
X0093793Y0037460D01*
X0093837Y0037418D01*
X0093883Y0037380D01*
X0093932Y0037344D01*
X0093983Y0037311D01*
X0094035Y0037282D01*
X0094090Y0037255D01*
X0094145Y0037232D01*
X0094202Y0037212D01*
X0094261Y0037196D01*
X0094320Y0037183D01*
X0094379Y0037174D01*
X0094440Y0037169D01*
X0094500Y0037167D01*
X0096000Y0037167D01*
X0081000Y0030167D02*
X0081000Y0053167D01*
X0011000Y0053167D01*
X0011000Y0045667D01*
X0011126Y0045665D01*
X0011251Y0045659D01*
X0011376Y0045649D01*
X0011501Y0045635D01*
X0011626Y0045618D01*
X0011750Y0045596D01*
X0011873Y0045571D01*
X0011995Y0045541D01*
X0012116Y0045508D01*
X0012236Y0045471D01*
X0012355Y0045431D01*
X0012472Y0045386D01*
X0012589Y0045338D01*
X0012703Y0045286D01*
X0012816Y0045231D01*
X0012927Y0045172D01*
X0013036Y0045110D01*
X0013143Y0045044D01*
X0013248Y0044975D01*
X0013351Y0044903D01*
X0013452Y0044828D01*
X0013550Y0044749D01*
X0013645Y0044667D01*
X0013738Y0044583D01*
X0013828Y0044495D01*
X0013916Y0044405D01*
X0014000Y0044312D01*
X0014082Y0044217D01*
X0014161Y0044119D01*
X0014236Y0044018D01*
X0014308Y0043915D01*
X0014377Y0043810D01*
X0014443Y0043703D01*
X0014505Y0043594D01*
X0014564Y0043483D01*
X0014619Y0043370D01*
X0014671Y0043256D01*
X0014719Y0043139D01*
X0014764Y0043022D01*
X0014804Y0042903D01*
X0014841Y0042783D01*
X0014874Y0042662D01*
X0014904Y0042540D01*
X0014929Y0042417D01*
X0014951Y0042293D01*
X0014968Y0042168D01*
X0014982Y0042043D01*
X0014992Y0041918D01*
X0014998Y0041793D01*
X0015000Y0041667D01*
X0014998Y0041541D01*
X0014992Y0041416D01*
X0014982Y0041291D01*
X0014968Y0041166D01*
X0014951Y0041041D01*
X0014929Y0040917D01*
X0014904Y0040794D01*
X0014874Y0040672D01*
X0014841Y0040551D01*
X0014804Y0040431D01*
X0014764Y0040312D01*
X0014719Y0040195D01*
X0014671Y0040078D01*
X0014619Y0039964D01*
X0014564Y0039851D01*
X0014505Y0039740D01*
X0014443Y0039631D01*
X0014377Y0039524D01*
X0014308Y0039419D01*
X0014236Y0039316D01*
X0014161Y0039215D01*
X0014082Y0039117D01*
X0014000Y0039022D01*
X0013916Y0038929D01*
X0013828Y0038839D01*
X0013738Y0038751D01*
X0013645Y0038667D01*
X0013550Y0038585D01*
X0013452Y0038506D01*
X0013351Y0038431D01*
X0013248Y0038359D01*
X0013143Y0038290D01*
X0013036Y0038224D01*
X0012927Y0038162D01*
X0012816Y0038103D01*
X0012703Y0038048D01*
X0012589Y0037996D01*
X0012472Y0037948D01*
X0012355Y0037903D01*
X0012236Y0037863D01*
X0012116Y0037826D01*
X0011995Y0037793D01*
X0011873Y0037763D01*
X0011750Y0037738D01*
X0011626Y0037716D01*
X0011501Y0037699D01*
X0011376Y0037685D01*
X0011251Y0037675D01*
X0011126Y0037669D01*
X0011000Y0037667D01*
X0011000Y0030167D01*
X0081000Y0030167D01*
X0116000Y0037167D02*
X0117500Y0037167D01*
X0117560Y0037169D01*
X0117621Y0037174D01*
X0117680Y0037183D01*
X0117739Y0037196D01*
X0117798Y0037212D01*
X0117855Y0037232D01*
X0117910Y0037255D01*
X0117965Y0037282D01*
X0118017Y0037311D01*
X0118068Y0037344D01*
X0118117Y0037380D01*
X0118163Y0037418D01*
X0118207Y0037460D01*
X0118249Y0037504D01*
X0118287Y0037550D01*
X0118323Y0037599D01*
X0118356Y0037650D01*
X0118385Y0037702D01*
X0118412Y0037757D01*
X0118435Y0037812D01*
X0118455Y0037869D01*
X0118471Y0037928D01*
X0118484Y0037987D01*
X0118493Y0038046D01*
X0118498Y0038107D01*
X0118500Y0038167D01*
X0118500Y0045167D02*
X0118498Y0045227D01*
X0118493Y0045288D01*
X0118484Y0045347D01*
X0118471Y0045406D01*
X0118455Y0045465D01*
X0118435Y0045522D01*
X0118412Y0045577D01*
X0118385Y0045632D01*
X0118356Y0045684D01*
X0118323Y0045735D01*
X0118287Y0045784D01*
X0118249Y0045830D01*
X0118207Y0045874D01*
X0118163Y0045916D01*
X0118117Y0045954D01*
X0118068Y0045990D01*
X0118017Y0046023D01*
X0117965Y0046052D01*
X0117910Y0046079D01*
X0117855Y0046102D01*
X0117798Y0046122D01*
X0117739Y0046138D01*
X0117680Y0046151D01*
X0117621Y0046160D01*
X0117560Y0046165D01*
X0117500Y0046167D01*
X0116000Y0046167D01*
X0116000Y0052167D02*
X0117500Y0052167D01*
X0117560Y0052169D01*
X0117621Y0052174D01*
X0117680Y0052183D01*
X0117739Y0052196D01*
X0117798Y0052212D01*
X0117855Y0052232D01*
X0117910Y0052255D01*
X0117965Y0052282D01*
X0118017Y0052311D01*
X0118068Y0052344D01*
X0118117Y0052380D01*
X0118163Y0052418D01*
X0118207Y0052460D01*
X0118249Y0052504D01*
X0118287Y0052550D01*
X0118323Y0052599D01*
X0118356Y0052650D01*
X0118385Y0052702D01*
X0118412Y0052757D01*
X0118435Y0052812D01*
X0118455Y0052869D01*
X0118471Y0052928D01*
X0118484Y0052987D01*
X0118493Y0053046D01*
X0118498Y0053107D01*
X0118500Y0053167D01*
X0118500Y0060167D02*
X0118498Y0060227D01*
X0118493Y0060288D01*
X0118484Y0060347D01*
X0118471Y0060406D01*
X0118455Y0060465D01*
X0118435Y0060522D01*
X0118412Y0060577D01*
X0118385Y0060632D01*
X0118356Y0060684D01*
X0118323Y0060735D01*
X0118287Y0060784D01*
X0118249Y0060830D01*
X0118207Y0060874D01*
X0118163Y0060916D01*
X0118117Y0060954D01*
X0118068Y0060990D01*
X0118017Y0061023D01*
X0117965Y0061052D01*
X0117910Y0061079D01*
X0117855Y0061102D01*
X0117798Y0061122D01*
X0117739Y0061138D01*
X0117680Y0061151D01*
X0117621Y0061160D01*
X0117560Y0061165D01*
X0117500Y0061167D01*
X0116000Y0061167D01*
X0157215Y0053220D02*
X0157173Y0053297D01*
X0157134Y0053375D01*
X0157099Y0053455D01*
X0157068Y0053536D01*
X0157040Y0053619D01*
X0157015Y0053702D01*
X0156994Y0053787D01*
X0156977Y0053873D01*
X0156964Y0053959D01*
X0156955Y0054046D01*
X0156949Y0054133D01*
X0156947Y0054220D01*
X0156949Y0054307D01*
X0156955Y0054394D01*
X0156964Y0054481D01*
X0156977Y0054567D01*
X0156994Y0054653D01*
X0157015Y0054738D01*
X0157040Y0054821D01*
X0157068Y0054904D01*
X0157099Y0054985D01*
X0157134Y0055065D01*
X0157173Y0055143D01*
X0157215Y0055220D01*
X0157260Y0055295D01*
X0157309Y0055367D01*
X0157360Y0055438D01*
X0157415Y0055506D01*
X0157472Y0055571D01*
X0157533Y0055634D01*
X0157596Y0055695D01*
X0157661Y0055752D01*
X0157729Y0055807D01*
X0157800Y0055858D01*
X0157872Y0055907D01*
X0157947Y0055952D01*
X0162048Y0058242D02*
X0162125Y0058284D01*
X0162203Y0058323D01*
X0162283Y0058358D01*
X0162364Y0058389D01*
X0162447Y0058417D01*
X0162530Y0058442D01*
X0162615Y0058463D01*
X0162701Y0058480D01*
X0162787Y0058493D01*
X0162874Y0058502D01*
X0162961Y0058508D01*
X0163048Y0058510D01*
X0163135Y0058508D01*
X0163222Y0058502D01*
X0163309Y0058493D01*
X0163395Y0058480D01*
X0163481Y0058463D01*
X0163566Y0058442D01*
X0163649Y0058417D01*
X0163732Y0058389D01*
X0163813Y0058358D01*
X0163893Y0058323D01*
X0163971Y0058284D01*
X0164048Y0058242D01*
X0164123Y0058197D01*
X0164195Y0058148D01*
X0164266Y0058097D01*
X0164334Y0058042D01*
X0164399Y0057985D01*
X0164462Y0057924D01*
X0164523Y0057861D01*
X0164580Y0057796D01*
X0164635Y0057728D01*
X0164686Y0057657D01*
X0164735Y0057585D01*
X0164780Y0057510D01*
X0167227Y0058266D02*
X0167185Y0058343D01*
X0167146Y0058421D01*
X0167111Y0058501D01*
X0167080Y0058582D01*
X0167052Y0058665D01*
X0167027Y0058748D01*
X0167006Y0058833D01*
X0166989Y0058919D01*
X0166976Y0059005D01*
X0166967Y0059092D01*
X0166961Y0059179D01*
X0166959Y0059266D01*
X0166961Y0059353D01*
X0166967Y0059440D01*
X0166976Y0059527D01*
X0166989Y0059613D01*
X0167006Y0059699D01*
X0167027Y0059784D01*
X0167052Y0059867D01*
X0167080Y0059950D01*
X0167111Y0060031D01*
X0167146Y0060111D01*
X0167185Y0060189D01*
X0167227Y0060266D01*
X0167272Y0060341D01*
X0167321Y0060413D01*
X0167372Y0060484D01*
X0167427Y0060552D01*
X0167484Y0060617D01*
X0167545Y0060680D01*
X0167608Y0060741D01*
X0167673Y0060798D01*
X0167741Y0060853D01*
X0167812Y0060904D01*
X0167884Y0060953D01*
X0167959Y0060998D01*
X0172131Y0063233D02*
X0172208Y0063275D01*
X0172286Y0063314D01*
X0172366Y0063349D01*
X0172447Y0063380D01*
X0172530Y0063408D01*
X0172613Y0063433D01*
X0172698Y0063454D01*
X0172784Y0063471D01*
X0172870Y0063484D01*
X0172957Y0063493D01*
X0173044Y0063499D01*
X0173131Y0063501D01*
X0173218Y0063499D01*
X0173305Y0063493D01*
X0173392Y0063484D01*
X0173478Y0063471D01*
X0173564Y0063454D01*
X0173649Y0063433D01*
X0173732Y0063408D01*
X0173815Y0063380D01*
X0173896Y0063349D01*
X0173976Y0063314D01*
X0174054Y0063275D01*
X0174131Y0063233D01*
X0174206Y0063188D01*
X0174278Y0063139D01*
X0174349Y0063088D01*
X0174417Y0063033D01*
X0174482Y0062976D01*
X0174545Y0062915D01*
X0174606Y0062852D01*
X0174663Y0062787D01*
X0174718Y0062719D01*
X0174769Y0062648D01*
X0174818Y0062576D01*
X0174863Y0062501D01*
X0196000Y0058167D02*
X0196000Y0035167D01*
X0236000Y0035167D01*
X0236000Y0042667D01*
X0235874Y0042669D01*
X0235749Y0042675D01*
X0235624Y0042685D01*
X0235499Y0042699D01*
X0235374Y0042716D01*
X0235250Y0042738D01*
X0235127Y0042763D01*
X0235005Y0042793D01*
X0234884Y0042826D01*
X0234764Y0042863D01*
X0234645Y0042903D01*
X0234528Y0042948D01*
X0234411Y0042996D01*
X0234297Y0043048D01*
X0234184Y0043103D01*
X0234073Y0043162D01*
X0233964Y0043224D01*
X0233857Y0043290D01*
X0233752Y0043359D01*
X0233649Y0043431D01*
X0233548Y0043506D01*
X0233450Y0043585D01*
X0233355Y0043667D01*
X0233262Y0043751D01*
X0233172Y0043839D01*
X0233084Y0043929D01*
X0233000Y0044022D01*
X0232918Y0044117D01*
X0232839Y0044215D01*
X0232764Y0044316D01*
X0232692Y0044419D01*
X0232623Y0044524D01*
X0232557Y0044631D01*
X0232495Y0044740D01*
X0232436Y0044851D01*
X0232381Y0044964D01*
X0232329Y0045078D01*
X0232281Y0045195D01*
X0232236Y0045312D01*
X0232196Y0045431D01*
X0232159Y0045551D01*
X0232126Y0045672D01*
X0232096Y0045794D01*
X0232071Y0045917D01*
X0232049Y0046041D01*
X0232032Y0046166D01*
X0232018Y0046291D01*
X0232008Y0046416D01*
X0232002Y0046541D01*
X0232000Y0046667D01*
X0232002Y0046793D01*
X0232008Y0046918D01*
X0232018Y0047043D01*
X0232032Y0047168D01*
X0232049Y0047293D01*
X0232071Y0047417D01*
X0232096Y0047540D01*
X0232126Y0047662D01*
X0232159Y0047783D01*
X0232196Y0047903D01*
X0232236Y0048022D01*
X0232281Y0048139D01*
X0232329Y0048256D01*
X0232381Y0048370D01*
X0232436Y0048483D01*
X0232495Y0048594D01*
X0232557Y0048703D01*
X0232623Y0048810D01*
X0232692Y0048915D01*
X0232764Y0049018D01*
X0232839Y0049119D01*
X0232918Y0049217D01*
X0233000Y0049312D01*
X0233084Y0049405D01*
X0233172Y0049495D01*
X0233262Y0049583D01*
X0233355Y0049667D01*
X0233450Y0049749D01*
X0233548Y0049828D01*
X0233649Y0049903D01*
X0233752Y0049975D01*
X0233857Y0050044D01*
X0233964Y0050110D01*
X0234073Y0050172D01*
X0234184Y0050231D01*
X0234297Y0050286D01*
X0234411Y0050338D01*
X0234528Y0050386D01*
X0234645Y0050431D01*
X0234764Y0050471D01*
X0234884Y0050508D01*
X0235005Y0050541D01*
X0235127Y0050571D01*
X0235250Y0050596D01*
X0235374Y0050618D01*
X0235499Y0050635D01*
X0235624Y0050649D01*
X0235749Y0050659D01*
X0235874Y0050665D01*
X0236000Y0050667D01*
X0236000Y0058167D01*
X0196000Y0058167D01*
X0197676Y0053870D02*
X0200612Y0053870D01*
X0199144Y0053870D02*
X0199144Y0049467D01*
X0202280Y0049467D02*
X0205216Y0049467D01*
X0206884Y0050201D02*
X0209820Y0053136D01*
X0209820Y0050201D01*
X0209086Y0049467D01*
X0207618Y0049467D01*
X0206884Y0050201D01*
X0206884Y0053136D01*
X0207618Y0053870D01*
X0209086Y0053870D01*
X0209820Y0053136D01*
X0211488Y0053870D02*
X0214424Y0053870D01*
X0214424Y0053136D01*
X0211488Y0050201D01*
X0211488Y0049467D01*
X0216092Y0049467D02*
X0219028Y0052402D01*
X0219028Y0053136D01*
X0218294Y0053870D01*
X0216826Y0053870D01*
X0216092Y0053136D01*
X0216092Y0049467D02*
X0219028Y0049467D01*
X0220696Y0049467D02*
X0220696Y0053870D01*
X0222898Y0053870D01*
X0223632Y0053136D01*
X0223632Y0051669D01*
X0222898Y0050935D01*
X0220696Y0050935D01*
X0220794Y0045370D02*
X0219326Y0045370D01*
X0218592Y0044636D01*
X0218592Y0041701D01*
X0219326Y0040967D01*
X0220794Y0040967D01*
X0221528Y0041701D01*
X0223196Y0040967D02*
X0226132Y0043902D01*
X0226132Y0044636D01*
X0225398Y0045370D01*
X0223930Y0045370D01*
X0223196Y0044636D01*
X0221528Y0044636D02*
X0220794Y0045370D01*
X0216991Y0045370D02*
X0215523Y0045370D01*
X0216257Y0045370D02*
X0216257Y0040967D01*
X0215523Y0040967D02*
X0216991Y0040967D01*
X0223196Y0040967D02*
X0226132Y0040967D01*
X0202280Y0049467D02*
X0202280Y0053870D01*
X0184785Y0045113D02*
X0184827Y0045036D01*
X0184866Y0044958D01*
X0184901Y0044878D01*
X0184932Y0044797D01*
X0184960Y0044714D01*
X0184985Y0044631D01*
X0185006Y0044546D01*
X0185023Y0044460D01*
X0185036Y0044374D01*
X0185045Y0044287D01*
X0185051Y0044200D01*
X0185053Y0044113D01*
X0185051Y0044026D01*
X0185045Y0043939D01*
X0185036Y0043852D01*
X0185023Y0043766D01*
X0185006Y0043680D01*
X0184985Y0043595D01*
X0184960Y0043512D01*
X0184932Y0043429D01*
X0184901Y0043348D01*
X0184866Y0043268D01*
X0184827Y0043190D01*
X0184785Y0043113D01*
X0184740Y0043038D01*
X0184691Y0042966D01*
X0184640Y0042895D01*
X0184585Y0042827D01*
X0184528Y0042762D01*
X0184467Y0042699D01*
X0184404Y0042638D01*
X0184339Y0042581D01*
X0184271Y0042526D01*
X0184200Y0042475D01*
X0184128Y0042426D01*
X0184053Y0042381D01*
X0179952Y0040091D02*
X0179875Y0040049D01*
X0179797Y0040010D01*
X0179717Y0039975D01*
X0179636Y0039944D01*
X0179553Y0039916D01*
X0179470Y0039891D01*
X0179385Y0039870D01*
X0179299Y0039853D01*
X0179213Y0039840D01*
X0179126Y0039831D01*
X0179039Y0039825D01*
X0178952Y0039823D01*
X0178865Y0039825D01*
X0178778Y0039831D01*
X0178691Y0039840D01*
X0178605Y0039853D01*
X0178519Y0039870D01*
X0178434Y0039891D01*
X0178351Y0039916D01*
X0178268Y0039944D01*
X0178187Y0039975D01*
X0178107Y0040010D01*
X0178029Y0040049D01*
X0177952Y0040091D01*
X0177877Y0040136D01*
X0177805Y0040185D01*
X0177734Y0040236D01*
X0177666Y0040291D01*
X0177601Y0040348D01*
X0177538Y0040409D01*
X0177477Y0040472D01*
X0177420Y0040537D01*
X0177365Y0040605D01*
X0177314Y0040676D01*
X0177265Y0040748D01*
X0177220Y0040823D01*
X0174773Y0040067D02*
X0174815Y0039990D01*
X0174854Y0039912D01*
X0174889Y0039832D01*
X0174920Y0039751D01*
X0174948Y0039668D01*
X0174973Y0039585D01*
X0174994Y0039500D01*
X0175011Y0039414D01*
X0175024Y0039328D01*
X0175033Y0039241D01*
X0175039Y0039154D01*
X0175041Y0039067D01*
X0175039Y0038980D01*
X0175033Y0038893D01*
X0175024Y0038806D01*
X0175011Y0038720D01*
X0174994Y0038634D01*
X0174973Y0038549D01*
X0174948Y0038466D01*
X0174920Y0038383D01*
X0174889Y0038302D01*
X0174854Y0038222D01*
X0174815Y0038144D01*
X0174773Y0038067D01*
X0174728Y0037992D01*
X0174679Y0037920D01*
X0174628Y0037849D01*
X0174573Y0037781D01*
X0174516Y0037716D01*
X0174455Y0037653D01*
X0174392Y0037592D01*
X0174327Y0037535D01*
X0174259Y0037480D01*
X0174188Y0037429D01*
X0174116Y0037380D01*
X0174041Y0037335D01*
X0169869Y0035100D02*
X0169792Y0035058D01*
X0169714Y0035019D01*
X0169634Y0034984D01*
X0169553Y0034953D01*
X0169470Y0034925D01*
X0169387Y0034900D01*
X0169302Y0034879D01*
X0169216Y0034862D01*
X0169130Y0034849D01*
X0169043Y0034840D01*
X0168956Y0034834D01*
X0168869Y0034832D01*
X0168782Y0034834D01*
X0168695Y0034840D01*
X0168608Y0034849D01*
X0168522Y0034862D01*
X0168436Y0034879D01*
X0168351Y0034900D01*
X0168268Y0034925D01*
X0168185Y0034953D01*
X0168104Y0034984D01*
X0168024Y0035019D01*
X0167946Y0035058D01*
X0167869Y0035100D01*
X0167794Y0035145D01*
X0167722Y0035194D01*
X0167651Y0035245D01*
X0167583Y0035300D01*
X0167518Y0035357D01*
X0167455Y0035418D01*
X0167394Y0035481D01*
X0167337Y0035546D01*
X0167282Y0035614D01*
X0167231Y0035685D01*
X0167182Y0035757D01*
X0167137Y0035832D01*
X0204500Y0023667D02*
X0206000Y0023667D01*
X0204500Y0023667D02*
X0204440Y0023665D01*
X0204379Y0023660D01*
X0204320Y0023651D01*
X0204261Y0023638D01*
X0204202Y0023622D01*
X0204145Y0023602D01*
X0204090Y0023579D01*
X0204035Y0023552D01*
X0203983Y0023523D01*
X0203932Y0023490D01*
X0203883Y0023454D01*
X0203837Y0023416D01*
X0203793Y0023374D01*
X0203751Y0023330D01*
X0203713Y0023284D01*
X0203677Y0023235D01*
X0203644Y0023184D01*
X0203615Y0023132D01*
X0203588Y0023077D01*
X0203565Y0023022D01*
X0203545Y0022965D01*
X0203529Y0022906D01*
X0203516Y0022847D01*
X0203507Y0022788D01*
X0203502Y0022727D01*
X0203500Y0022667D01*
X0203500Y0015667D02*
X0203502Y0015607D01*
X0203507Y0015546D01*
X0203516Y0015487D01*
X0203529Y0015428D01*
X0203545Y0015369D01*
X0203565Y0015312D01*
X0203588Y0015257D01*
X0203615Y0015202D01*
X0203644Y0015150D01*
X0203677Y0015099D01*
X0203713Y0015050D01*
X0203751Y0015004D01*
X0203793Y0014960D01*
X0203837Y0014918D01*
X0203883Y0014880D01*
X0203932Y0014844D01*
X0203983Y0014811D01*
X0204035Y0014782D01*
X0204090Y0014755D01*
X0204145Y0014732D01*
X0204202Y0014712D01*
X0204261Y0014696D01*
X0204320Y0014683D01*
X0204379Y0014674D01*
X0204440Y0014669D01*
X0204500Y0014667D01*
X0206000Y0014667D01*
X0226000Y0014667D02*
X0227500Y0014667D01*
X0227560Y0014669D01*
X0227621Y0014674D01*
X0227680Y0014683D01*
X0227739Y0014696D01*
X0227798Y0014712D01*
X0227855Y0014732D01*
X0227910Y0014755D01*
X0227965Y0014782D01*
X0228017Y0014811D01*
X0228068Y0014844D01*
X0228117Y0014880D01*
X0228163Y0014918D01*
X0228207Y0014960D01*
X0228249Y0015004D01*
X0228287Y0015050D01*
X0228323Y0015099D01*
X0228356Y0015150D01*
X0228385Y0015202D01*
X0228412Y0015257D01*
X0228435Y0015312D01*
X0228455Y0015369D01*
X0228471Y0015428D01*
X0228484Y0015487D01*
X0228493Y0015546D01*
X0228498Y0015607D01*
X0228500Y0015667D01*
X0228500Y0022667D02*
X0228498Y0022727D01*
X0228493Y0022788D01*
X0228484Y0022847D01*
X0228471Y0022906D01*
X0228455Y0022965D01*
X0228435Y0023022D01*
X0228412Y0023077D01*
X0228385Y0023132D01*
X0228356Y0023184D01*
X0228323Y0023235D01*
X0228287Y0023284D01*
X0228249Y0023330D01*
X0228207Y0023374D01*
X0228163Y0023416D01*
X0228117Y0023454D01*
X0228068Y0023490D01*
X0228017Y0023523D01*
X0227965Y0023552D01*
X0227910Y0023579D01*
X0227855Y0023602D01*
X0227798Y0023622D01*
X0227739Y0023638D01*
X0227680Y0023651D01*
X0227621Y0023660D01*
X0227560Y0023665D01*
X0227500Y0023667D01*
X0226000Y0023667D01*
X0226000Y0072167D02*
X0227500Y0072167D01*
X0227560Y0072169D01*
X0227621Y0072174D01*
X0227680Y0072183D01*
X0227739Y0072196D01*
X0227798Y0072212D01*
X0227855Y0072232D01*
X0227910Y0072255D01*
X0227965Y0072282D01*
X0228017Y0072311D01*
X0228068Y0072344D01*
X0228117Y0072380D01*
X0228163Y0072418D01*
X0228207Y0072460D01*
X0228249Y0072504D01*
X0228287Y0072550D01*
X0228323Y0072599D01*
X0228356Y0072650D01*
X0228385Y0072702D01*
X0228412Y0072757D01*
X0228435Y0072812D01*
X0228455Y0072869D01*
X0228471Y0072928D01*
X0228484Y0072987D01*
X0228493Y0073046D01*
X0228498Y0073107D01*
X0228500Y0073167D01*
X0228500Y0080167D02*
X0228498Y0080227D01*
X0228493Y0080288D01*
X0228484Y0080347D01*
X0228471Y0080406D01*
X0228455Y0080465D01*
X0228435Y0080522D01*
X0228412Y0080577D01*
X0228385Y0080632D01*
X0228356Y0080684D01*
X0228323Y0080735D01*
X0228287Y0080784D01*
X0228249Y0080830D01*
X0228207Y0080874D01*
X0228163Y0080916D01*
X0228117Y0080954D01*
X0228068Y0080990D01*
X0228017Y0081023D01*
X0227965Y0081052D01*
X0227910Y0081079D01*
X0227855Y0081102D01*
X0227798Y0081122D01*
X0227739Y0081138D01*
X0227680Y0081151D01*
X0227621Y0081160D01*
X0227560Y0081165D01*
X0227500Y0081167D01*
X0226000Y0081167D01*
X0226000Y0082167D02*
X0227500Y0082167D01*
X0227560Y0082169D01*
X0227621Y0082174D01*
X0227680Y0082183D01*
X0227739Y0082196D01*
X0227798Y0082212D01*
X0227855Y0082232D01*
X0227910Y0082255D01*
X0227965Y0082282D01*
X0228017Y0082311D01*
X0228068Y0082344D01*
X0228117Y0082380D01*
X0228163Y0082418D01*
X0228207Y0082460D01*
X0228249Y0082504D01*
X0228287Y0082550D01*
X0228323Y0082599D01*
X0228356Y0082650D01*
X0228385Y0082702D01*
X0228412Y0082757D01*
X0228435Y0082812D01*
X0228455Y0082869D01*
X0228471Y0082928D01*
X0228484Y0082987D01*
X0228493Y0083046D01*
X0228498Y0083107D01*
X0228500Y0083167D01*
X0228500Y0090167D02*
X0228498Y0090227D01*
X0228493Y0090288D01*
X0228484Y0090347D01*
X0228471Y0090406D01*
X0228455Y0090465D01*
X0228435Y0090522D01*
X0228412Y0090577D01*
X0228385Y0090632D01*
X0228356Y0090684D01*
X0228323Y0090735D01*
X0228287Y0090784D01*
X0228249Y0090830D01*
X0228207Y0090874D01*
X0228163Y0090916D01*
X0228117Y0090954D01*
X0228068Y0090990D01*
X0228017Y0091023D01*
X0227965Y0091052D01*
X0227910Y0091079D01*
X0227855Y0091102D01*
X0227798Y0091122D01*
X0227739Y0091138D01*
X0227680Y0091151D01*
X0227621Y0091160D01*
X0227560Y0091165D01*
X0227500Y0091167D01*
X0226000Y0091167D01*
X0206000Y0091167D02*
X0204500Y0091167D01*
X0204440Y0091165D01*
X0204379Y0091160D01*
X0204320Y0091151D01*
X0204261Y0091138D01*
X0204202Y0091122D01*
X0204145Y0091102D01*
X0204090Y0091079D01*
X0204035Y0091052D01*
X0203983Y0091023D01*
X0203932Y0090990D01*
X0203883Y0090954D01*
X0203837Y0090916D01*
X0203793Y0090874D01*
X0203751Y0090830D01*
X0203713Y0090784D01*
X0203677Y0090735D01*
X0203644Y0090684D01*
X0203615Y0090632D01*
X0203588Y0090577D01*
X0203565Y0090522D01*
X0203545Y0090465D01*
X0203529Y0090406D01*
X0203516Y0090347D01*
X0203507Y0090288D01*
X0203502Y0090227D01*
X0203500Y0090167D01*
X0203500Y0083167D02*
X0203502Y0083107D01*
X0203507Y0083046D01*
X0203516Y0082987D01*
X0203529Y0082928D01*
X0203545Y0082869D01*
X0203565Y0082812D01*
X0203588Y0082757D01*
X0203615Y0082702D01*
X0203644Y0082650D01*
X0203677Y0082599D01*
X0203713Y0082550D01*
X0203751Y0082504D01*
X0203793Y0082460D01*
X0203837Y0082418D01*
X0203883Y0082380D01*
X0203932Y0082344D01*
X0203983Y0082311D01*
X0204035Y0082282D01*
X0204090Y0082255D01*
X0204145Y0082232D01*
X0204202Y0082212D01*
X0204261Y0082196D01*
X0204320Y0082183D01*
X0204379Y0082174D01*
X0204440Y0082169D01*
X0204500Y0082167D01*
X0206000Y0082167D01*
X0206000Y0081167D02*
X0204500Y0081167D01*
X0204440Y0081165D01*
X0204379Y0081160D01*
X0204320Y0081151D01*
X0204261Y0081138D01*
X0204202Y0081122D01*
X0204145Y0081102D01*
X0204090Y0081079D01*
X0204035Y0081052D01*
X0203983Y0081023D01*
X0203932Y0080990D01*
X0203883Y0080954D01*
X0203837Y0080916D01*
X0203793Y0080874D01*
X0203751Y0080830D01*
X0203713Y0080784D01*
X0203677Y0080735D01*
X0203644Y0080684D01*
X0203615Y0080632D01*
X0203588Y0080577D01*
X0203565Y0080522D01*
X0203545Y0080465D01*
X0203529Y0080406D01*
X0203516Y0080347D01*
X0203507Y0080288D01*
X0203502Y0080227D01*
X0203500Y0080167D01*
X0203500Y0073167D02*
X0203502Y0073107D01*
X0203507Y0073046D01*
X0203516Y0072987D01*
X0203529Y0072928D01*
X0203545Y0072869D01*
X0203565Y0072812D01*
X0203588Y0072757D01*
X0203615Y0072702D01*
X0203644Y0072650D01*
X0203677Y0072599D01*
X0203713Y0072550D01*
X0203751Y0072504D01*
X0203793Y0072460D01*
X0203837Y0072418D01*
X0203883Y0072380D01*
X0203932Y0072344D01*
X0203983Y0072311D01*
X0204035Y0072282D01*
X0204090Y0072255D01*
X0204145Y0072232D01*
X0204202Y0072212D01*
X0204261Y0072196D01*
X0204320Y0072183D01*
X0204379Y0072174D01*
X0204440Y0072169D01*
X0204500Y0072167D01*
X0206000Y0072167D01*
X0249500Y0072167D02*
X0251000Y0072167D01*
X0249500Y0072167D02*
X0249440Y0072169D01*
X0249379Y0072174D01*
X0249320Y0072183D01*
X0249261Y0072196D01*
X0249202Y0072212D01*
X0249145Y0072232D01*
X0249090Y0072255D01*
X0249035Y0072282D01*
X0248983Y0072311D01*
X0248932Y0072344D01*
X0248883Y0072380D01*
X0248837Y0072418D01*
X0248793Y0072460D01*
X0248751Y0072504D01*
X0248713Y0072550D01*
X0248677Y0072599D01*
X0248644Y0072650D01*
X0248615Y0072702D01*
X0248588Y0072757D01*
X0248565Y0072812D01*
X0248545Y0072869D01*
X0248529Y0072928D01*
X0248516Y0072987D01*
X0248507Y0073046D01*
X0248502Y0073107D01*
X0248500Y0073167D01*
X0248500Y0080167D02*
X0248502Y0080227D01*
X0248507Y0080288D01*
X0248516Y0080347D01*
X0248529Y0080406D01*
X0248545Y0080465D01*
X0248565Y0080522D01*
X0248588Y0080577D01*
X0248615Y0080632D01*
X0248644Y0080684D01*
X0248677Y0080735D01*
X0248713Y0080784D01*
X0248751Y0080830D01*
X0248793Y0080874D01*
X0248837Y0080916D01*
X0248883Y0080954D01*
X0248932Y0080990D01*
X0248983Y0081023D01*
X0249035Y0081052D01*
X0249090Y0081079D01*
X0249145Y0081102D01*
X0249202Y0081122D01*
X0249261Y0081138D01*
X0249320Y0081151D01*
X0249379Y0081160D01*
X0249440Y0081165D01*
X0249500Y0081167D01*
X0251000Y0081167D01*
X0251000Y0082167D02*
X0249500Y0082167D01*
X0249440Y0082169D01*
X0249379Y0082174D01*
X0249320Y0082183D01*
X0249261Y0082196D01*
X0249202Y0082212D01*
X0249145Y0082232D01*
X0249090Y0082255D01*
X0249035Y0082282D01*
X0248983Y0082311D01*
X0248932Y0082344D01*
X0248883Y0082380D01*
X0248837Y0082418D01*
X0248793Y0082460D01*
X0248751Y0082504D01*
X0248713Y0082550D01*
X0248677Y0082599D01*
X0248644Y0082650D01*
X0248615Y0082702D01*
X0248588Y0082757D01*
X0248565Y0082812D01*
X0248545Y0082869D01*
X0248529Y0082928D01*
X0248516Y0082987D01*
X0248507Y0083046D01*
X0248502Y0083107D01*
X0248500Y0083167D01*
X0248500Y0090167D02*
X0248502Y0090227D01*
X0248507Y0090288D01*
X0248516Y0090347D01*
X0248529Y0090406D01*
X0248545Y0090465D01*
X0248565Y0090522D01*
X0248588Y0090577D01*
X0248615Y0090632D01*
X0248644Y0090684D01*
X0248677Y0090735D01*
X0248713Y0090784D01*
X0248751Y0090830D01*
X0248793Y0090874D01*
X0248837Y0090916D01*
X0248883Y0090954D01*
X0248932Y0090990D01*
X0248983Y0091023D01*
X0249035Y0091052D01*
X0249090Y0091079D01*
X0249145Y0091102D01*
X0249202Y0091122D01*
X0249261Y0091138D01*
X0249320Y0091151D01*
X0249379Y0091160D01*
X0249440Y0091165D01*
X0249500Y0091167D01*
X0251000Y0091167D01*
X0271000Y0091167D02*
X0272500Y0091167D01*
X0272560Y0091165D01*
X0272621Y0091160D01*
X0272680Y0091151D01*
X0272739Y0091138D01*
X0272798Y0091122D01*
X0272855Y0091102D01*
X0272910Y0091079D01*
X0272965Y0091052D01*
X0273017Y0091023D01*
X0273068Y0090990D01*
X0273117Y0090954D01*
X0273163Y0090916D01*
X0273207Y0090874D01*
X0273249Y0090830D01*
X0273287Y0090784D01*
X0273323Y0090735D01*
X0273356Y0090684D01*
X0273385Y0090632D01*
X0273412Y0090577D01*
X0273435Y0090522D01*
X0273455Y0090465D01*
X0273471Y0090406D01*
X0273484Y0090347D01*
X0273493Y0090288D01*
X0273498Y0090227D01*
X0273500Y0090167D01*
X0273500Y0083167D02*
X0273498Y0083107D01*
X0273493Y0083046D01*
X0273484Y0082987D01*
X0273471Y0082928D01*
X0273455Y0082869D01*
X0273435Y0082812D01*
X0273412Y0082757D01*
X0273385Y0082702D01*
X0273356Y0082650D01*
X0273323Y0082599D01*
X0273287Y0082550D01*
X0273249Y0082504D01*
X0273207Y0082460D01*
X0273163Y0082418D01*
X0273117Y0082380D01*
X0273068Y0082344D01*
X0273017Y0082311D01*
X0272965Y0082282D01*
X0272910Y0082255D01*
X0272855Y0082232D01*
X0272798Y0082212D01*
X0272739Y0082196D01*
X0272680Y0082183D01*
X0272621Y0082174D01*
X0272560Y0082169D01*
X0272500Y0082167D01*
X0271000Y0082167D01*
X0271000Y0081167D02*
X0272500Y0081167D01*
X0272560Y0081165D01*
X0272621Y0081160D01*
X0272680Y0081151D01*
X0272739Y0081138D01*
X0272798Y0081122D01*
X0272855Y0081102D01*
X0272910Y0081079D01*
X0272965Y0081052D01*
X0273017Y0081023D01*
X0273068Y0080990D01*
X0273117Y0080954D01*
X0273163Y0080916D01*
X0273207Y0080874D01*
X0273249Y0080830D01*
X0273287Y0080784D01*
X0273323Y0080735D01*
X0273356Y0080684D01*
X0273385Y0080632D01*
X0273412Y0080577D01*
X0273435Y0080522D01*
X0273455Y0080465D01*
X0273471Y0080406D01*
X0273484Y0080347D01*
X0273493Y0080288D01*
X0273498Y0080227D01*
X0273500Y0080167D01*
X0273500Y0073167D02*
X0273498Y0073107D01*
X0273493Y0073046D01*
X0273484Y0072987D01*
X0273471Y0072928D01*
X0273455Y0072869D01*
X0273435Y0072812D01*
X0273412Y0072757D01*
X0273385Y0072702D01*
X0273356Y0072650D01*
X0273323Y0072599D01*
X0273287Y0072550D01*
X0273249Y0072504D01*
X0273207Y0072460D01*
X0273163Y0072418D01*
X0273117Y0072380D01*
X0273068Y0072344D01*
X0273017Y0072311D01*
X0272965Y0072282D01*
X0272910Y0072255D01*
X0272855Y0072232D01*
X0272798Y0072212D01*
X0272739Y0072196D01*
X0272680Y0072183D01*
X0272621Y0072174D01*
X0272560Y0072169D01*
X0272500Y0072167D01*
X0271000Y0072167D01*
X0289500Y0082167D02*
X0291000Y0082167D01*
X0289500Y0082167D02*
X0289440Y0082169D01*
X0289379Y0082174D01*
X0289320Y0082183D01*
X0289261Y0082196D01*
X0289202Y0082212D01*
X0289145Y0082232D01*
X0289090Y0082255D01*
X0289035Y0082282D01*
X0288983Y0082311D01*
X0288932Y0082344D01*
X0288883Y0082380D01*
X0288837Y0082418D01*
X0288793Y0082460D01*
X0288751Y0082504D01*
X0288713Y0082550D01*
X0288677Y0082599D01*
X0288644Y0082650D01*
X0288615Y0082702D01*
X0288588Y0082757D01*
X0288565Y0082812D01*
X0288545Y0082869D01*
X0288529Y0082928D01*
X0288516Y0082987D01*
X0288507Y0083046D01*
X0288502Y0083107D01*
X0288500Y0083167D01*
X0288500Y0090167D02*
X0288502Y0090227D01*
X0288507Y0090288D01*
X0288516Y0090347D01*
X0288529Y0090406D01*
X0288545Y0090465D01*
X0288565Y0090522D01*
X0288588Y0090577D01*
X0288615Y0090632D01*
X0288644Y0090684D01*
X0288677Y0090735D01*
X0288713Y0090784D01*
X0288751Y0090830D01*
X0288793Y0090874D01*
X0288837Y0090916D01*
X0288883Y0090954D01*
X0288932Y0090990D01*
X0288983Y0091023D01*
X0289035Y0091052D01*
X0289090Y0091079D01*
X0289145Y0091102D01*
X0289202Y0091122D01*
X0289261Y0091138D01*
X0289320Y0091151D01*
X0289379Y0091160D01*
X0289440Y0091165D01*
X0289500Y0091167D01*
X0291000Y0091167D01*
X0311000Y0091167D02*
X0312500Y0091167D01*
X0312560Y0091165D01*
X0312621Y0091160D01*
X0312680Y0091151D01*
X0312739Y0091138D01*
X0312798Y0091122D01*
X0312855Y0091102D01*
X0312910Y0091079D01*
X0312965Y0091052D01*
X0313017Y0091023D01*
X0313068Y0090990D01*
X0313117Y0090954D01*
X0313163Y0090916D01*
X0313207Y0090874D01*
X0313249Y0090830D01*
X0313287Y0090784D01*
X0313323Y0090735D01*
X0313356Y0090684D01*
X0313385Y0090632D01*
X0313412Y0090577D01*
X0313435Y0090522D01*
X0313455Y0090465D01*
X0313471Y0090406D01*
X0313484Y0090347D01*
X0313493Y0090288D01*
X0313498Y0090227D01*
X0313500Y0090167D01*
X0313500Y0083167D02*
X0313498Y0083107D01*
X0313493Y0083046D01*
X0313484Y0082987D01*
X0313471Y0082928D01*
X0313455Y0082869D01*
X0313435Y0082812D01*
X0313412Y0082757D01*
X0313385Y0082702D01*
X0313356Y0082650D01*
X0313323Y0082599D01*
X0313287Y0082550D01*
X0313249Y0082504D01*
X0313207Y0082460D01*
X0313163Y0082418D01*
X0313117Y0082380D01*
X0313068Y0082344D01*
X0313017Y0082311D01*
X0312965Y0082282D01*
X0312910Y0082255D01*
X0312855Y0082232D01*
X0312798Y0082212D01*
X0312739Y0082196D01*
X0312680Y0082183D01*
X0312621Y0082174D01*
X0312560Y0082169D01*
X0312500Y0082167D01*
X0311000Y0082167D01*
D15*
X0336796Y0122722D02*
X0336189Y0123329D01*
X0336189Y0125756D01*
X0336796Y0126362D01*
X0338009Y0126362D01*
X0338616Y0125756D01*
X0338616Y0123329D01*
X0338009Y0122722D01*
X0336796Y0122722D01*
X0339815Y0123329D02*
X0340421Y0122722D01*
X0341635Y0122722D01*
X0342241Y0123329D01*
X0342241Y0126362D01*
X0343440Y0126362D02*
X0345866Y0126362D01*
X0344653Y0126362D02*
X0344653Y0122722D01*
X0347065Y0122115D02*
X0349492Y0122115D01*
X0350690Y0122722D02*
X0353117Y0122722D01*
X0354315Y0122722D02*
X0356742Y0122722D01*
X0357940Y0122722D02*
X0357940Y0126362D01*
X0360367Y0126362D01*
X0361565Y0126362D02*
X0363992Y0126362D01*
X0362779Y0126362D02*
X0362779Y0122722D01*
X0365190Y0122722D02*
X0367617Y0122722D01*
X0366404Y0122722D02*
X0366404Y0126362D01*
X0365190Y0125149D01*
X0359154Y0124542D02*
X0357940Y0124542D01*
X0356742Y0126362D02*
X0354315Y0126362D01*
X0354315Y0122722D01*
X0354315Y0124542D02*
X0355528Y0124542D01*
X0350690Y0126362D02*
X0350690Y0122722D01*
X0339815Y0123329D02*
X0339815Y0126362D01*
X0381189Y0125756D02*
X0381189Y0123329D01*
X0381796Y0122722D01*
X0383009Y0122722D01*
X0383616Y0123329D01*
X0383616Y0125756D01*
X0383009Y0126362D01*
X0381796Y0126362D01*
X0381189Y0125756D01*
X0384815Y0126362D02*
X0384815Y0123329D01*
X0385421Y0122722D01*
X0386635Y0122722D01*
X0387241Y0123329D01*
X0387241Y0126362D01*
X0388440Y0126362D02*
X0390866Y0126362D01*
X0389653Y0126362D02*
X0389653Y0122722D01*
X0392065Y0122115D02*
X0394492Y0122115D01*
X0395690Y0122722D02*
X0398117Y0122722D01*
X0399315Y0122722D02*
X0401742Y0122722D01*
X0402940Y0122722D02*
X0402940Y0126362D01*
X0405367Y0126362D01*
X0406565Y0126362D02*
X0408992Y0126362D01*
X0407779Y0126362D02*
X0407779Y0122722D01*
X0404154Y0124542D02*
X0402940Y0124542D01*
X0401742Y0126362D02*
X0399315Y0126362D01*
X0399315Y0122722D01*
X0399315Y0124542D02*
X0400528Y0124542D01*
X0395690Y0126362D02*
X0395690Y0122722D01*
X0394492Y0182115D02*
X0392065Y0182115D01*
X0389653Y0182722D02*
X0389653Y0186362D01*
X0388440Y0186362D02*
X0390866Y0186362D01*
X0387241Y0186362D02*
X0387241Y0183329D01*
X0386635Y0182722D01*
X0385421Y0182722D01*
X0384815Y0183329D01*
X0384815Y0186362D01*
X0383616Y0185756D02*
X0383009Y0186362D01*
X0381796Y0186362D01*
X0381189Y0185756D01*
X0381189Y0183329D01*
X0381796Y0182722D01*
X0383009Y0182722D01*
X0383616Y0183329D01*
X0383616Y0185756D01*
X0395690Y0186362D02*
X0395690Y0182722D01*
X0395690Y0183936D02*
X0397510Y0183936D01*
X0398117Y0184542D01*
X0398117Y0185756D01*
X0397510Y0186362D01*
X0395690Y0186362D01*
X0396903Y0183936D02*
X0398117Y0182722D01*
X0356742Y0182722D02*
X0354315Y0182722D01*
X0353117Y0182722D02*
X0351903Y0183936D01*
X0352510Y0183936D02*
X0350690Y0183936D01*
X0350690Y0182722D02*
X0350690Y0186362D01*
X0352510Y0186362D01*
X0353117Y0185756D01*
X0353117Y0184542D01*
X0352510Y0183936D01*
X0354315Y0185149D02*
X0355528Y0186362D01*
X0355528Y0182722D01*
X0349492Y0182115D02*
X0347065Y0182115D01*
X0344653Y0182722D02*
X0344653Y0186362D01*
X0343440Y0186362D02*
X0345866Y0186362D01*
X0342241Y0186362D02*
X0342241Y0183329D01*
X0341635Y0182722D01*
X0340421Y0182722D01*
X0339815Y0183329D01*
X0339815Y0186362D01*
X0338616Y0185756D02*
X0338009Y0186362D01*
X0336796Y0186362D01*
X0336189Y0185756D01*
X0336189Y0183329D01*
X0336796Y0182722D01*
X0338009Y0182722D01*
X0338616Y0183329D01*
X0338616Y0185756D01*
D16*
X0304563Y0137474D02*
X0291965Y0137474D01*
X0304563Y0137474D02*
X0304563Y0135308D01*
X0306728Y0135308D01*
X0306728Y0103025D01*
X0304563Y0103025D01*
X0304563Y0100860D01*
X0291965Y0100860D01*
X0273067Y0100860D02*
X0264406Y0100860D01*
X0264406Y0103025D01*
X0262240Y0103025D01*
X0262240Y0135308D01*
X0264406Y0135308D01*
X0264406Y0137474D01*
X0273067Y0137474D01*
X0229228Y0135308D02*
X0227063Y0135308D01*
X0227063Y0137474D01*
X0214465Y0137474D01*
X0229228Y0135308D02*
X0229228Y0103025D01*
X0227063Y0103025D01*
X0227063Y0100860D01*
X0214465Y0100860D01*
X0195567Y0100860D02*
X0186906Y0100860D01*
X0186906Y0103025D01*
X0184740Y0103025D01*
X0184740Y0135308D01*
X0186906Y0135308D01*
X0186906Y0137474D01*
X0195567Y0137474D01*
X0149228Y0135308D02*
X0147063Y0135308D01*
X0147063Y0137474D01*
X0134465Y0137474D01*
X0149228Y0135308D02*
X0149228Y0103025D01*
X0147063Y0103025D01*
X0147063Y0100860D01*
X0134465Y0100860D01*
X0115567Y0100860D02*
X0106906Y0100860D01*
X0106906Y0103025D01*
X0104740Y0103025D01*
X0104740Y0135308D01*
X0106906Y0135308D01*
X0106906Y0137474D01*
X0115567Y0137474D01*
X0069228Y0135308D02*
X0067063Y0135308D01*
X0067063Y0137474D01*
X0054465Y0137474D01*
X0069228Y0135308D02*
X0069228Y0103025D01*
X0067063Y0103025D01*
X0067063Y0100860D01*
X0054465Y0100860D01*
X0035567Y0100860D02*
X0026906Y0100860D01*
X0026906Y0103025D01*
X0024740Y0103025D01*
X0024740Y0135308D01*
X0026906Y0135308D01*
X0026906Y0137474D01*
X0035567Y0137474D01*
D17*
X0042000Y0119167D02*
X0042002Y0119293D01*
X0042008Y0119419D01*
X0042018Y0119545D01*
X0042032Y0119671D01*
X0042050Y0119796D01*
X0042072Y0119920D01*
X0042097Y0120044D01*
X0042127Y0120167D01*
X0042160Y0120288D01*
X0042198Y0120409D01*
X0042239Y0120528D01*
X0042284Y0120647D01*
X0042332Y0120763D01*
X0042384Y0120878D01*
X0042440Y0120991D01*
X0042500Y0121103D01*
X0042563Y0121212D01*
X0042629Y0121320D01*
X0042698Y0121425D01*
X0042771Y0121528D01*
X0042848Y0121629D01*
X0042927Y0121727D01*
X0043009Y0121823D01*
X0043095Y0121916D01*
X0043183Y0122007D01*
X0043274Y0122094D01*
X0043368Y0122179D01*
X0043464Y0122260D01*
X0043563Y0122339D01*
X0043664Y0122414D01*
X0043768Y0122486D01*
X0043874Y0122555D01*
X0043982Y0122621D01*
X0044092Y0122683D01*
X0044204Y0122741D01*
X0044317Y0122796D01*
X0044433Y0122847D01*
X0044550Y0122895D01*
X0044668Y0122939D01*
X0044788Y0122979D01*
X0044909Y0123015D01*
X0045031Y0123048D01*
X0045154Y0123077D01*
X0045278Y0123101D01*
X0045402Y0123122D01*
X0045527Y0123139D01*
X0045653Y0123152D01*
X0045779Y0123161D01*
X0045905Y0123166D01*
X0046032Y0123167D01*
X0046158Y0123164D01*
X0046284Y0123157D01*
X0046410Y0123146D01*
X0046535Y0123131D01*
X0046660Y0123112D01*
X0046784Y0123089D01*
X0046908Y0123063D01*
X0047030Y0123032D01*
X0047152Y0122998D01*
X0047272Y0122959D01*
X0047391Y0122917D01*
X0047509Y0122872D01*
X0047625Y0122822D01*
X0047740Y0122769D01*
X0047852Y0122712D01*
X0047963Y0122652D01*
X0048072Y0122588D01*
X0048179Y0122521D01*
X0048284Y0122451D01*
X0048387Y0122377D01*
X0048487Y0122300D01*
X0048585Y0122220D01*
X0048680Y0122137D01*
X0048772Y0122051D01*
X0048862Y0121962D01*
X0048949Y0121870D01*
X0049032Y0121776D01*
X0049113Y0121679D01*
X0049191Y0121579D01*
X0049266Y0121477D01*
X0049337Y0121373D01*
X0049405Y0121266D01*
X0049469Y0121158D01*
X0049530Y0121047D01*
X0049588Y0120935D01*
X0049642Y0120821D01*
X0049692Y0120705D01*
X0049739Y0120588D01*
X0049782Y0120469D01*
X0049821Y0120349D01*
X0049857Y0120228D01*
X0049888Y0120105D01*
X0049916Y0119982D01*
X0049940Y0119858D01*
X0049960Y0119733D01*
X0049976Y0119608D01*
X0049988Y0119482D01*
X0049996Y0119356D01*
X0050000Y0119230D01*
X0050000Y0119104D01*
X0049996Y0118978D01*
X0049988Y0118852D01*
X0049976Y0118726D01*
X0049960Y0118601D01*
X0049940Y0118476D01*
X0049916Y0118352D01*
X0049888Y0118229D01*
X0049857Y0118106D01*
X0049821Y0117985D01*
X0049782Y0117865D01*
X0049739Y0117746D01*
X0049692Y0117629D01*
X0049642Y0117513D01*
X0049588Y0117399D01*
X0049530Y0117287D01*
X0049469Y0117176D01*
X0049405Y0117068D01*
X0049337Y0116961D01*
X0049266Y0116857D01*
X0049191Y0116755D01*
X0049113Y0116655D01*
X0049032Y0116558D01*
X0048949Y0116464D01*
X0048862Y0116372D01*
X0048772Y0116283D01*
X0048680Y0116197D01*
X0048585Y0116114D01*
X0048487Y0116034D01*
X0048387Y0115957D01*
X0048284Y0115883D01*
X0048179Y0115813D01*
X0048072Y0115746D01*
X0047963Y0115682D01*
X0047852Y0115622D01*
X0047740Y0115565D01*
X0047625Y0115512D01*
X0047509Y0115462D01*
X0047391Y0115417D01*
X0047272Y0115375D01*
X0047152Y0115336D01*
X0047030Y0115302D01*
X0046908Y0115271D01*
X0046784Y0115245D01*
X0046660Y0115222D01*
X0046535Y0115203D01*
X0046410Y0115188D01*
X0046284Y0115177D01*
X0046158Y0115170D01*
X0046032Y0115167D01*
X0045905Y0115168D01*
X0045779Y0115173D01*
X0045653Y0115182D01*
X0045527Y0115195D01*
X0045402Y0115212D01*
X0045278Y0115233D01*
X0045154Y0115257D01*
X0045031Y0115286D01*
X0044909Y0115319D01*
X0044788Y0115355D01*
X0044668Y0115395D01*
X0044550Y0115439D01*
X0044433Y0115487D01*
X0044317Y0115538D01*
X0044204Y0115593D01*
X0044092Y0115651D01*
X0043982Y0115713D01*
X0043874Y0115779D01*
X0043768Y0115848D01*
X0043664Y0115920D01*
X0043563Y0115995D01*
X0043464Y0116074D01*
X0043368Y0116155D01*
X0043274Y0116240D01*
X0043183Y0116327D01*
X0043095Y0116418D01*
X0043009Y0116511D01*
X0042927Y0116607D01*
X0042848Y0116705D01*
X0042771Y0116806D01*
X0042698Y0116909D01*
X0042629Y0117014D01*
X0042563Y0117122D01*
X0042500Y0117231D01*
X0042440Y0117343D01*
X0042384Y0117456D01*
X0042332Y0117571D01*
X0042284Y0117687D01*
X0042239Y0117806D01*
X0042198Y0117925D01*
X0042160Y0118046D01*
X0042127Y0118167D01*
X0042097Y0118290D01*
X0042072Y0118414D01*
X0042050Y0118538D01*
X0042032Y0118663D01*
X0042018Y0118789D01*
X0042008Y0118915D01*
X0042002Y0119041D01*
X0042000Y0119167D01*
X0040500Y0119167D02*
X0040502Y0119315D01*
X0040508Y0119463D01*
X0040518Y0119611D01*
X0040532Y0119759D01*
X0040550Y0119906D01*
X0040572Y0120053D01*
X0040598Y0120199D01*
X0040627Y0120344D01*
X0040661Y0120489D01*
X0040699Y0120632D01*
X0040740Y0120775D01*
X0040785Y0120916D01*
X0040835Y0121056D01*
X0040887Y0121194D01*
X0040944Y0121332D01*
X0041004Y0121467D01*
X0041068Y0121601D01*
X0041135Y0121733D01*
X0041206Y0121863D01*
X0041281Y0121992D01*
X0041359Y0122118D01*
X0041440Y0122242D01*
X0041524Y0122364D01*
X0041612Y0122483D01*
X0041703Y0122600D01*
X0041797Y0122715D01*
X0041895Y0122827D01*
X0041995Y0122936D01*
X0042098Y0123043D01*
X0042204Y0123147D01*
X0042312Y0123248D01*
X0042424Y0123346D01*
X0042538Y0123441D01*
X0042654Y0123532D01*
X0042773Y0123621D01*
X0042894Y0123706D01*
X0043018Y0123788D01*
X0043144Y0123867D01*
X0043271Y0123942D01*
X0043401Y0124014D01*
X0043533Y0124083D01*
X0043666Y0124147D01*
X0043801Y0124208D01*
X0043938Y0124266D01*
X0044076Y0124320D01*
X0044216Y0124370D01*
X0044357Y0124416D01*
X0044499Y0124458D01*
X0044642Y0124497D01*
X0044786Y0124531D01*
X0044932Y0124562D01*
X0045077Y0124589D01*
X0045224Y0124612D01*
X0045371Y0124631D01*
X0045519Y0124646D01*
X0045666Y0124657D01*
X0045815Y0124664D01*
X0045963Y0124667D01*
X0046111Y0124666D01*
X0046259Y0124661D01*
X0046407Y0124652D01*
X0046555Y0124639D01*
X0046703Y0124622D01*
X0046849Y0124601D01*
X0046996Y0124576D01*
X0047141Y0124547D01*
X0047286Y0124515D01*
X0047429Y0124478D01*
X0047572Y0124438D01*
X0047714Y0124393D01*
X0047854Y0124345D01*
X0047993Y0124293D01*
X0048130Y0124238D01*
X0048266Y0124178D01*
X0048401Y0124115D01*
X0048533Y0124049D01*
X0048664Y0123979D01*
X0048793Y0123905D01*
X0048919Y0123828D01*
X0049044Y0123748D01*
X0049166Y0123664D01*
X0049287Y0123577D01*
X0049404Y0123487D01*
X0049520Y0123393D01*
X0049632Y0123297D01*
X0049742Y0123198D01*
X0049850Y0123095D01*
X0049954Y0122990D01*
X0050056Y0122882D01*
X0050154Y0122771D01*
X0050250Y0122658D01*
X0050343Y0122542D01*
X0050432Y0122424D01*
X0050518Y0122303D01*
X0050601Y0122180D01*
X0050681Y0122055D01*
X0050757Y0121928D01*
X0050830Y0121798D01*
X0050899Y0121667D01*
X0050964Y0121534D01*
X0051027Y0121400D01*
X0051085Y0121263D01*
X0051140Y0121125D01*
X0051190Y0120986D01*
X0051238Y0120845D01*
X0051281Y0120704D01*
X0051321Y0120561D01*
X0051356Y0120417D01*
X0051388Y0120272D01*
X0051416Y0120126D01*
X0051440Y0119980D01*
X0051460Y0119833D01*
X0051476Y0119685D01*
X0051488Y0119538D01*
X0051496Y0119389D01*
X0051500Y0119241D01*
X0051500Y0119093D01*
X0051496Y0118945D01*
X0051488Y0118796D01*
X0051476Y0118649D01*
X0051460Y0118501D01*
X0051440Y0118354D01*
X0051416Y0118208D01*
X0051388Y0118062D01*
X0051356Y0117917D01*
X0051321Y0117773D01*
X0051281Y0117630D01*
X0051238Y0117489D01*
X0051190Y0117348D01*
X0051140Y0117209D01*
X0051085Y0117071D01*
X0051027Y0116934D01*
X0050964Y0116800D01*
X0050899Y0116667D01*
X0050830Y0116536D01*
X0050757Y0116406D01*
X0050681Y0116279D01*
X0050601Y0116154D01*
X0050518Y0116031D01*
X0050432Y0115910D01*
X0050343Y0115792D01*
X0050250Y0115676D01*
X0050154Y0115563D01*
X0050056Y0115452D01*
X0049954Y0115344D01*
X0049850Y0115239D01*
X0049742Y0115136D01*
X0049632Y0115037D01*
X0049520Y0114941D01*
X0049404Y0114847D01*
X0049287Y0114757D01*
X0049166Y0114670D01*
X0049044Y0114586D01*
X0048919Y0114506D01*
X0048793Y0114429D01*
X0048664Y0114355D01*
X0048533Y0114285D01*
X0048401Y0114219D01*
X0048266Y0114156D01*
X0048130Y0114096D01*
X0047993Y0114041D01*
X0047854Y0113989D01*
X0047714Y0113941D01*
X0047572Y0113896D01*
X0047429Y0113856D01*
X0047286Y0113819D01*
X0047141Y0113787D01*
X0046996Y0113758D01*
X0046849Y0113733D01*
X0046703Y0113712D01*
X0046555Y0113695D01*
X0046407Y0113682D01*
X0046259Y0113673D01*
X0046111Y0113668D01*
X0045963Y0113667D01*
X0045815Y0113670D01*
X0045666Y0113677D01*
X0045519Y0113688D01*
X0045371Y0113703D01*
X0045224Y0113722D01*
X0045077Y0113745D01*
X0044932Y0113772D01*
X0044786Y0113803D01*
X0044642Y0113837D01*
X0044499Y0113876D01*
X0044357Y0113918D01*
X0044216Y0113964D01*
X0044076Y0114014D01*
X0043938Y0114068D01*
X0043801Y0114126D01*
X0043666Y0114187D01*
X0043533Y0114251D01*
X0043401Y0114320D01*
X0043271Y0114392D01*
X0043144Y0114467D01*
X0043018Y0114546D01*
X0042894Y0114628D01*
X0042773Y0114713D01*
X0042654Y0114802D01*
X0042538Y0114893D01*
X0042424Y0114988D01*
X0042312Y0115086D01*
X0042204Y0115187D01*
X0042098Y0115291D01*
X0041995Y0115398D01*
X0041895Y0115507D01*
X0041797Y0115619D01*
X0041703Y0115734D01*
X0041612Y0115851D01*
X0041524Y0115970D01*
X0041440Y0116092D01*
X0041359Y0116216D01*
X0041281Y0116342D01*
X0041206Y0116471D01*
X0041135Y0116601D01*
X0041068Y0116733D01*
X0041004Y0116867D01*
X0040944Y0117002D01*
X0040887Y0117140D01*
X0040835Y0117278D01*
X0040785Y0117418D01*
X0040740Y0117559D01*
X0040699Y0117702D01*
X0040661Y0117845D01*
X0040627Y0117990D01*
X0040598Y0118135D01*
X0040572Y0118281D01*
X0040550Y0118428D01*
X0040532Y0118575D01*
X0040518Y0118723D01*
X0040508Y0118871D01*
X0040502Y0119019D01*
X0040500Y0119167D01*
X0122000Y0119167D02*
X0122002Y0119293D01*
X0122008Y0119419D01*
X0122018Y0119545D01*
X0122032Y0119671D01*
X0122050Y0119796D01*
X0122072Y0119920D01*
X0122097Y0120044D01*
X0122127Y0120167D01*
X0122160Y0120288D01*
X0122198Y0120409D01*
X0122239Y0120528D01*
X0122284Y0120647D01*
X0122332Y0120763D01*
X0122384Y0120878D01*
X0122440Y0120991D01*
X0122500Y0121103D01*
X0122563Y0121212D01*
X0122629Y0121320D01*
X0122698Y0121425D01*
X0122771Y0121528D01*
X0122848Y0121629D01*
X0122927Y0121727D01*
X0123009Y0121823D01*
X0123095Y0121916D01*
X0123183Y0122007D01*
X0123274Y0122094D01*
X0123368Y0122179D01*
X0123464Y0122260D01*
X0123563Y0122339D01*
X0123664Y0122414D01*
X0123768Y0122486D01*
X0123874Y0122555D01*
X0123982Y0122621D01*
X0124092Y0122683D01*
X0124204Y0122741D01*
X0124317Y0122796D01*
X0124433Y0122847D01*
X0124550Y0122895D01*
X0124668Y0122939D01*
X0124788Y0122979D01*
X0124909Y0123015D01*
X0125031Y0123048D01*
X0125154Y0123077D01*
X0125278Y0123101D01*
X0125402Y0123122D01*
X0125527Y0123139D01*
X0125653Y0123152D01*
X0125779Y0123161D01*
X0125905Y0123166D01*
X0126032Y0123167D01*
X0126158Y0123164D01*
X0126284Y0123157D01*
X0126410Y0123146D01*
X0126535Y0123131D01*
X0126660Y0123112D01*
X0126784Y0123089D01*
X0126908Y0123063D01*
X0127030Y0123032D01*
X0127152Y0122998D01*
X0127272Y0122959D01*
X0127391Y0122917D01*
X0127509Y0122872D01*
X0127625Y0122822D01*
X0127740Y0122769D01*
X0127852Y0122712D01*
X0127963Y0122652D01*
X0128072Y0122588D01*
X0128179Y0122521D01*
X0128284Y0122451D01*
X0128387Y0122377D01*
X0128487Y0122300D01*
X0128585Y0122220D01*
X0128680Y0122137D01*
X0128772Y0122051D01*
X0128862Y0121962D01*
X0128949Y0121870D01*
X0129032Y0121776D01*
X0129113Y0121679D01*
X0129191Y0121579D01*
X0129266Y0121477D01*
X0129337Y0121373D01*
X0129405Y0121266D01*
X0129469Y0121158D01*
X0129530Y0121047D01*
X0129588Y0120935D01*
X0129642Y0120821D01*
X0129692Y0120705D01*
X0129739Y0120588D01*
X0129782Y0120469D01*
X0129821Y0120349D01*
X0129857Y0120228D01*
X0129888Y0120105D01*
X0129916Y0119982D01*
X0129940Y0119858D01*
X0129960Y0119733D01*
X0129976Y0119608D01*
X0129988Y0119482D01*
X0129996Y0119356D01*
X0130000Y0119230D01*
X0130000Y0119104D01*
X0129996Y0118978D01*
X0129988Y0118852D01*
X0129976Y0118726D01*
X0129960Y0118601D01*
X0129940Y0118476D01*
X0129916Y0118352D01*
X0129888Y0118229D01*
X0129857Y0118106D01*
X0129821Y0117985D01*
X0129782Y0117865D01*
X0129739Y0117746D01*
X0129692Y0117629D01*
X0129642Y0117513D01*
X0129588Y0117399D01*
X0129530Y0117287D01*
X0129469Y0117176D01*
X0129405Y0117068D01*
X0129337Y0116961D01*
X0129266Y0116857D01*
X0129191Y0116755D01*
X0129113Y0116655D01*
X0129032Y0116558D01*
X0128949Y0116464D01*
X0128862Y0116372D01*
X0128772Y0116283D01*
X0128680Y0116197D01*
X0128585Y0116114D01*
X0128487Y0116034D01*
X0128387Y0115957D01*
X0128284Y0115883D01*
X0128179Y0115813D01*
X0128072Y0115746D01*
X0127963Y0115682D01*
X0127852Y0115622D01*
X0127740Y0115565D01*
X0127625Y0115512D01*
X0127509Y0115462D01*
X0127391Y0115417D01*
X0127272Y0115375D01*
X0127152Y0115336D01*
X0127030Y0115302D01*
X0126908Y0115271D01*
X0126784Y0115245D01*
X0126660Y0115222D01*
X0126535Y0115203D01*
X0126410Y0115188D01*
X0126284Y0115177D01*
X0126158Y0115170D01*
X0126032Y0115167D01*
X0125905Y0115168D01*
X0125779Y0115173D01*
X0125653Y0115182D01*
X0125527Y0115195D01*
X0125402Y0115212D01*
X0125278Y0115233D01*
X0125154Y0115257D01*
X0125031Y0115286D01*
X0124909Y0115319D01*
X0124788Y0115355D01*
X0124668Y0115395D01*
X0124550Y0115439D01*
X0124433Y0115487D01*
X0124317Y0115538D01*
X0124204Y0115593D01*
X0124092Y0115651D01*
X0123982Y0115713D01*
X0123874Y0115779D01*
X0123768Y0115848D01*
X0123664Y0115920D01*
X0123563Y0115995D01*
X0123464Y0116074D01*
X0123368Y0116155D01*
X0123274Y0116240D01*
X0123183Y0116327D01*
X0123095Y0116418D01*
X0123009Y0116511D01*
X0122927Y0116607D01*
X0122848Y0116705D01*
X0122771Y0116806D01*
X0122698Y0116909D01*
X0122629Y0117014D01*
X0122563Y0117122D01*
X0122500Y0117231D01*
X0122440Y0117343D01*
X0122384Y0117456D01*
X0122332Y0117571D01*
X0122284Y0117687D01*
X0122239Y0117806D01*
X0122198Y0117925D01*
X0122160Y0118046D01*
X0122127Y0118167D01*
X0122097Y0118290D01*
X0122072Y0118414D01*
X0122050Y0118538D01*
X0122032Y0118663D01*
X0122018Y0118789D01*
X0122008Y0118915D01*
X0122002Y0119041D01*
X0122000Y0119167D01*
X0120500Y0119167D02*
X0120502Y0119315D01*
X0120508Y0119463D01*
X0120518Y0119611D01*
X0120532Y0119759D01*
X0120550Y0119906D01*
X0120572Y0120053D01*
X0120598Y0120199D01*
X0120627Y0120344D01*
X0120661Y0120489D01*
X0120699Y0120632D01*
X0120740Y0120775D01*
X0120785Y0120916D01*
X0120835Y0121056D01*
X0120887Y0121194D01*
X0120944Y0121332D01*
X0121004Y0121467D01*
X0121068Y0121601D01*
X0121135Y0121733D01*
X0121206Y0121863D01*
X0121281Y0121992D01*
X0121359Y0122118D01*
X0121440Y0122242D01*
X0121524Y0122364D01*
X0121612Y0122483D01*
X0121703Y0122600D01*
X0121797Y0122715D01*
X0121895Y0122827D01*
X0121995Y0122936D01*
X0122098Y0123043D01*
X0122204Y0123147D01*
X0122312Y0123248D01*
X0122424Y0123346D01*
X0122538Y0123441D01*
X0122654Y0123532D01*
X0122773Y0123621D01*
X0122894Y0123706D01*
X0123018Y0123788D01*
X0123144Y0123867D01*
X0123271Y0123942D01*
X0123401Y0124014D01*
X0123533Y0124083D01*
X0123666Y0124147D01*
X0123801Y0124208D01*
X0123938Y0124266D01*
X0124076Y0124320D01*
X0124216Y0124370D01*
X0124357Y0124416D01*
X0124499Y0124458D01*
X0124642Y0124497D01*
X0124786Y0124531D01*
X0124932Y0124562D01*
X0125077Y0124589D01*
X0125224Y0124612D01*
X0125371Y0124631D01*
X0125519Y0124646D01*
X0125666Y0124657D01*
X0125815Y0124664D01*
X0125963Y0124667D01*
X0126111Y0124666D01*
X0126259Y0124661D01*
X0126407Y0124652D01*
X0126555Y0124639D01*
X0126703Y0124622D01*
X0126849Y0124601D01*
X0126996Y0124576D01*
X0127141Y0124547D01*
X0127286Y0124515D01*
X0127429Y0124478D01*
X0127572Y0124438D01*
X0127714Y0124393D01*
X0127854Y0124345D01*
X0127993Y0124293D01*
X0128130Y0124238D01*
X0128266Y0124178D01*
X0128401Y0124115D01*
X0128533Y0124049D01*
X0128664Y0123979D01*
X0128793Y0123905D01*
X0128919Y0123828D01*
X0129044Y0123748D01*
X0129166Y0123664D01*
X0129287Y0123577D01*
X0129404Y0123487D01*
X0129520Y0123393D01*
X0129632Y0123297D01*
X0129742Y0123198D01*
X0129850Y0123095D01*
X0129954Y0122990D01*
X0130056Y0122882D01*
X0130154Y0122771D01*
X0130250Y0122658D01*
X0130343Y0122542D01*
X0130432Y0122424D01*
X0130518Y0122303D01*
X0130601Y0122180D01*
X0130681Y0122055D01*
X0130757Y0121928D01*
X0130830Y0121798D01*
X0130899Y0121667D01*
X0130964Y0121534D01*
X0131027Y0121400D01*
X0131085Y0121263D01*
X0131140Y0121125D01*
X0131190Y0120986D01*
X0131238Y0120845D01*
X0131281Y0120704D01*
X0131321Y0120561D01*
X0131356Y0120417D01*
X0131388Y0120272D01*
X0131416Y0120126D01*
X0131440Y0119980D01*
X0131460Y0119833D01*
X0131476Y0119685D01*
X0131488Y0119538D01*
X0131496Y0119389D01*
X0131500Y0119241D01*
X0131500Y0119093D01*
X0131496Y0118945D01*
X0131488Y0118796D01*
X0131476Y0118649D01*
X0131460Y0118501D01*
X0131440Y0118354D01*
X0131416Y0118208D01*
X0131388Y0118062D01*
X0131356Y0117917D01*
X0131321Y0117773D01*
X0131281Y0117630D01*
X0131238Y0117489D01*
X0131190Y0117348D01*
X0131140Y0117209D01*
X0131085Y0117071D01*
X0131027Y0116934D01*
X0130964Y0116800D01*
X0130899Y0116667D01*
X0130830Y0116536D01*
X0130757Y0116406D01*
X0130681Y0116279D01*
X0130601Y0116154D01*
X0130518Y0116031D01*
X0130432Y0115910D01*
X0130343Y0115792D01*
X0130250Y0115676D01*
X0130154Y0115563D01*
X0130056Y0115452D01*
X0129954Y0115344D01*
X0129850Y0115239D01*
X0129742Y0115136D01*
X0129632Y0115037D01*
X0129520Y0114941D01*
X0129404Y0114847D01*
X0129287Y0114757D01*
X0129166Y0114670D01*
X0129044Y0114586D01*
X0128919Y0114506D01*
X0128793Y0114429D01*
X0128664Y0114355D01*
X0128533Y0114285D01*
X0128401Y0114219D01*
X0128266Y0114156D01*
X0128130Y0114096D01*
X0127993Y0114041D01*
X0127854Y0113989D01*
X0127714Y0113941D01*
X0127572Y0113896D01*
X0127429Y0113856D01*
X0127286Y0113819D01*
X0127141Y0113787D01*
X0126996Y0113758D01*
X0126849Y0113733D01*
X0126703Y0113712D01*
X0126555Y0113695D01*
X0126407Y0113682D01*
X0126259Y0113673D01*
X0126111Y0113668D01*
X0125963Y0113667D01*
X0125815Y0113670D01*
X0125666Y0113677D01*
X0125519Y0113688D01*
X0125371Y0113703D01*
X0125224Y0113722D01*
X0125077Y0113745D01*
X0124932Y0113772D01*
X0124786Y0113803D01*
X0124642Y0113837D01*
X0124499Y0113876D01*
X0124357Y0113918D01*
X0124216Y0113964D01*
X0124076Y0114014D01*
X0123938Y0114068D01*
X0123801Y0114126D01*
X0123666Y0114187D01*
X0123533Y0114251D01*
X0123401Y0114320D01*
X0123271Y0114392D01*
X0123144Y0114467D01*
X0123018Y0114546D01*
X0122894Y0114628D01*
X0122773Y0114713D01*
X0122654Y0114802D01*
X0122538Y0114893D01*
X0122424Y0114988D01*
X0122312Y0115086D01*
X0122204Y0115187D01*
X0122098Y0115291D01*
X0121995Y0115398D01*
X0121895Y0115507D01*
X0121797Y0115619D01*
X0121703Y0115734D01*
X0121612Y0115851D01*
X0121524Y0115970D01*
X0121440Y0116092D01*
X0121359Y0116216D01*
X0121281Y0116342D01*
X0121206Y0116471D01*
X0121135Y0116601D01*
X0121068Y0116733D01*
X0121004Y0116867D01*
X0120944Y0117002D01*
X0120887Y0117140D01*
X0120835Y0117278D01*
X0120785Y0117418D01*
X0120740Y0117559D01*
X0120699Y0117702D01*
X0120661Y0117845D01*
X0120627Y0117990D01*
X0120598Y0118135D01*
X0120572Y0118281D01*
X0120550Y0118428D01*
X0120532Y0118575D01*
X0120518Y0118723D01*
X0120508Y0118871D01*
X0120502Y0119019D01*
X0120500Y0119167D01*
X0202000Y0119167D02*
X0202002Y0119293D01*
X0202008Y0119419D01*
X0202018Y0119545D01*
X0202032Y0119671D01*
X0202050Y0119796D01*
X0202072Y0119920D01*
X0202097Y0120044D01*
X0202127Y0120167D01*
X0202160Y0120288D01*
X0202198Y0120409D01*
X0202239Y0120528D01*
X0202284Y0120647D01*
X0202332Y0120763D01*
X0202384Y0120878D01*
X0202440Y0120991D01*
X0202500Y0121103D01*
X0202563Y0121212D01*
X0202629Y0121320D01*
X0202698Y0121425D01*
X0202771Y0121528D01*
X0202848Y0121629D01*
X0202927Y0121727D01*
X0203009Y0121823D01*
X0203095Y0121916D01*
X0203183Y0122007D01*
X0203274Y0122094D01*
X0203368Y0122179D01*
X0203464Y0122260D01*
X0203563Y0122339D01*
X0203664Y0122414D01*
X0203768Y0122486D01*
X0203874Y0122555D01*
X0203982Y0122621D01*
X0204092Y0122683D01*
X0204204Y0122741D01*
X0204317Y0122796D01*
X0204433Y0122847D01*
X0204550Y0122895D01*
X0204668Y0122939D01*
X0204788Y0122979D01*
X0204909Y0123015D01*
X0205031Y0123048D01*
X0205154Y0123077D01*
X0205278Y0123101D01*
X0205402Y0123122D01*
X0205527Y0123139D01*
X0205653Y0123152D01*
X0205779Y0123161D01*
X0205905Y0123166D01*
X0206032Y0123167D01*
X0206158Y0123164D01*
X0206284Y0123157D01*
X0206410Y0123146D01*
X0206535Y0123131D01*
X0206660Y0123112D01*
X0206784Y0123089D01*
X0206908Y0123063D01*
X0207030Y0123032D01*
X0207152Y0122998D01*
X0207272Y0122959D01*
X0207391Y0122917D01*
X0207509Y0122872D01*
X0207625Y0122822D01*
X0207740Y0122769D01*
X0207852Y0122712D01*
X0207963Y0122652D01*
X0208072Y0122588D01*
X0208179Y0122521D01*
X0208284Y0122451D01*
X0208387Y0122377D01*
X0208487Y0122300D01*
X0208585Y0122220D01*
X0208680Y0122137D01*
X0208772Y0122051D01*
X0208862Y0121962D01*
X0208949Y0121870D01*
X0209032Y0121776D01*
X0209113Y0121679D01*
X0209191Y0121579D01*
X0209266Y0121477D01*
X0209337Y0121373D01*
X0209405Y0121266D01*
X0209469Y0121158D01*
X0209530Y0121047D01*
X0209588Y0120935D01*
X0209642Y0120821D01*
X0209692Y0120705D01*
X0209739Y0120588D01*
X0209782Y0120469D01*
X0209821Y0120349D01*
X0209857Y0120228D01*
X0209888Y0120105D01*
X0209916Y0119982D01*
X0209940Y0119858D01*
X0209960Y0119733D01*
X0209976Y0119608D01*
X0209988Y0119482D01*
X0209996Y0119356D01*
X0210000Y0119230D01*
X0210000Y0119104D01*
X0209996Y0118978D01*
X0209988Y0118852D01*
X0209976Y0118726D01*
X0209960Y0118601D01*
X0209940Y0118476D01*
X0209916Y0118352D01*
X0209888Y0118229D01*
X0209857Y0118106D01*
X0209821Y0117985D01*
X0209782Y0117865D01*
X0209739Y0117746D01*
X0209692Y0117629D01*
X0209642Y0117513D01*
X0209588Y0117399D01*
X0209530Y0117287D01*
X0209469Y0117176D01*
X0209405Y0117068D01*
X0209337Y0116961D01*
X0209266Y0116857D01*
X0209191Y0116755D01*
X0209113Y0116655D01*
X0209032Y0116558D01*
X0208949Y0116464D01*
X0208862Y0116372D01*
X0208772Y0116283D01*
X0208680Y0116197D01*
X0208585Y0116114D01*
X0208487Y0116034D01*
X0208387Y0115957D01*
X0208284Y0115883D01*
X0208179Y0115813D01*
X0208072Y0115746D01*
X0207963Y0115682D01*
X0207852Y0115622D01*
X0207740Y0115565D01*
X0207625Y0115512D01*
X0207509Y0115462D01*
X0207391Y0115417D01*
X0207272Y0115375D01*
X0207152Y0115336D01*
X0207030Y0115302D01*
X0206908Y0115271D01*
X0206784Y0115245D01*
X0206660Y0115222D01*
X0206535Y0115203D01*
X0206410Y0115188D01*
X0206284Y0115177D01*
X0206158Y0115170D01*
X0206032Y0115167D01*
X0205905Y0115168D01*
X0205779Y0115173D01*
X0205653Y0115182D01*
X0205527Y0115195D01*
X0205402Y0115212D01*
X0205278Y0115233D01*
X0205154Y0115257D01*
X0205031Y0115286D01*
X0204909Y0115319D01*
X0204788Y0115355D01*
X0204668Y0115395D01*
X0204550Y0115439D01*
X0204433Y0115487D01*
X0204317Y0115538D01*
X0204204Y0115593D01*
X0204092Y0115651D01*
X0203982Y0115713D01*
X0203874Y0115779D01*
X0203768Y0115848D01*
X0203664Y0115920D01*
X0203563Y0115995D01*
X0203464Y0116074D01*
X0203368Y0116155D01*
X0203274Y0116240D01*
X0203183Y0116327D01*
X0203095Y0116418D01*
X0203009Y0116511D01*
X0202927Y0116607D01*
X0202848Y0116705D01*
X0202771Y0116806D01*
X0202698Y0116909D01*
X0202629Y0117014D01*
X0202563Y0117122D01*
X0202500Y0117231D01*
X0202440Y0117343D01*
X0202384Y0117456D01*
X0202332Y0117571D01*
X0202284Y0117687D01*
X0202239Y0117806D01*
X0202198Y0117925D01*
X0202160Y0118046D01*
X0202127Y0118167D01*
X0202097Y0118290D01*
X0202072Y0118414D01*
X0202050Y0118538D01*
X0202032Y0118663D01*
X0202018Y0118789D01*
X0202008Y0118915D01*
X0202002Y0119041D01*
X0202000Y0119167D01*
X0200500Y0119167D02*
X0200502Y0119315D01*
X0200508Y0119463D01*
X0200518Y0119611D01*
X0200532Y0119759D01*
X0200550Y0119906D01*
X0200572Y0120053D01*
X0200598Y0120199D01*
X0200627Y0120344D01*
X0200661Y0120489D01*
X0200699Y0120632D01*
X0200740Y0120775D01*
X0200785Y0120916D01*
X0200835Y0121056D01*
X0200887Y0121194D01*
X0200944Y0121332D01*
X0201004Y0121467D01*
X0201068Y0121601D01*
X0201135Y0121733D01*
X0201206Y0121863D01*
X0201281Y0121992D01*
X0201359Y0122118D01*
X0201440Y0122242D01*
X0201524Y0122364D01*
X0201612Y0122483D01*
X0201703Y0122600D01*
X0201797Y0122715D01*
X0201895Y0122827D01*
X0201995Y0122936D01*
X0202098Y0123043D01*
X0202204Y0123147D01*
X0202312Y0123248D01*
X0202424Y0123346D01*
X0202538Y0123441D01*
X0202654Y0123532D01*
X0202773Y0123621D01*
X0202894Y0123706D01*
X0203018Y0123788D01*
X0203144Y0123867D01*
X0203271Y0123942D01*
X0203401Y0124014D01*
X0203533Y0124083D01*
X0203666Y0124147D01*
X0203801Y0124208D01*
X0203938Y0124266D01*
X0204076Y0124320D01*
X0204216Y0124370D01*
X0204357Y0124416D01*
X0204499Y0124458D01*
X0204642Y0124497D01*
X0204786Y0124531D01*
X0204932Y0124562D01*
X0205077Y0124589D01*
X0205224Y0124612D01*
X0205371Y0124631D01*
X0205519Y0124646D01*
X0205666Y0124657D01*
X0205815Y0124664D01*
X0205963Y0124667D01*
X0206111Y0124666D01*
X0206259Y0124661D01*
X0206407Y0124652D01*
X0206555Y0124639D01*
X0206703Y0124622D01*
X0206849Y0124601D01*
X0206996Y0124576D01*
X0207141Y0124547D01*
X0207286Y0124515D01*
X0207429Y0124478D01*
X0207572Y0124438D01*
X0207714Y0124393D01*
X0207854Y0124345D01*
X0207993Y0124293D01*
X0208130Y0124238D01*
X0208266Y0124178D01*
X0208401Y0124115D01*
X0208533Y0124049D01*
X0208664Y0123979D01*
X0208793Y0123905D01*
X0208919Y0123828D01*
X0209044Y0123748D01*
X0209166Y0123664D01*
X0209287Y0123577D01*
X0209404Y0123487D01*
X0209520Y0123393D01*
X0209632Y0123297D01*
X0209742Y0123198D01*
X0209850Y0123095D01*
X0209954Y0122990D01*
X0210056Y0122882D01*
X0210154Y0122771D01*
X0210250Y0122658D01*
X0210343Y0122542D01*
X0210432Y0122424D01*
X0210518Y0122303D01*
X0210601Y0122180D01*
X0210681Y0122055D01*
X0210757Y0121928D01*
X0210830Y0121798D01*
X0210899Y0121667D01*
X0210964Y0121534D01*
X0211027Y0121400D01*
X0211085Y0121263D01*
X0211140Y0121125D01*
X0211190Y0120986D01*
X0211238Y0120845D01*
X0211281Y0120704D01*
X0211321Y0120561D01*
X0211356Y0120417D01*
X0211388Y0120272D01*
X0211416Y0120126D01*
X0211440Y0119980D01*
X0211460Y0119833D01*
X0211476Y0119685D01*
X0211488Y0119538D01*
X0211496Y0119389D01*
X0211500Y0119241D01*
X0211500Y0119093D01*
X0211496Y0118945D01*
X0211488Y0118796D01*
X0211476Y0118649D01*
X0211460Y0118501D01*
X0211440Y0118354D01*
X0211416Y0118208D01*
X0211388Y0118062D01*
X0211356Y0117917D01*
X0211321Y0117773D01*
X0211281Y0117630D01*
X0211238Y0117489D01*
X0211190Y0117348D01*
X0211140Y0117209D01*
X0211085Y0117071D01*
X0211027Y0116934D01*
X0210964Y0116800D01*
X0210899Y0116667D01*
X0210830Y0116536D01*
X0210757Y0116406D01*
X0210681Y0116279D01*
X0210601Y0116154D01*
X0210518Y0116031D01*
X0210432Y0115910D01*
X0210343Y0115792D01*
X0210250Y0115676D01*
X0210154Y0115563D01*
X0210056Y0115452D01*
X0209954Y0115344D01*
X0209850Y0115239D01*
X0209742Y0115136D01*
X0209632Y0115037D01*
X0209520Y0114941D01*
X0209404Y0114847D01*
X0209287Y0114757D01*
X0209166Y0114670D01*
X0209044Y0114586D01*
X0208919Y0114506D01*
X0208793Y0114429D01*
X0208664Y0114355D01*
X0208533Y0114285D01*
X0208401Y0114219D01*
X0208266Y0114156D01*
X0208130Y0114096D01*
X0207993Y0114041D01*
X0207854Y0113989D01*
X0207714Y0113941D01*
X0207572Y0113896D01*
X0207429Y0113856D01*
X0207286Y0113819D01*
X0207141Y0113787D01*
X0206996Y0113758D01*
X0206849Y0113733D01*
X0206703Y0113712D01*
X0206555Y0113695D01*
X0206407Y0113682D01*
X0206259Y0113673D01*
X0206111Y0113668D01*
X0205963Y0113667D01*
X0205815Y0113670D01*
X0205666Y0113677D01*
X0205519Y0113688D01*
X0205371Y0113703D01*
X0205224Y0113722D01*
X0205077Y0113745D01*
X0204932Y0113772D01*
X0204786Y0113803D01*
X0204642Y0113837D01*
X0204499Y0113876D01*
X0204357Y0113918D01*
X0204216Y0113964D01*
X0204076Y0114014D01*
X0203938Y0114068D01*
X0203801Y0114126D01*
X0203666Y0114187D01*
X0203533Y0114251D01*
X0203401Y0114320D01*
X0203271Y0114392D01*
X0203144Y0114467D01*
X0203018Y0114546D01*
X0202894Y0114628D01*
X0202773Y0114713D01*
X0202654Y0114802D01*
X0202538Y0114893D01*
X0202424Y0114988D01*
X0202312Y0115086D01*
X0202204Y0115187D01*
X0202098Y0115291D01*
X0201995Y0115398D01*
X0201895Y0115507D01*
X0201797Y0115619D01*
X0201703Y0115734D01*
X0201612Y0115851D01*
X0201524Y0115970D01*
X0201440Y0116092D01*
X0201359Y0116216D01*
X0201281Y0116342D01*
X0201206Y0116471D01*
X0201135Y0116601D01*
X0201068Y0116733D01*
X0201004Y0116867D01*
X0200944Y0117002D01*
X0200887Y0117140D01*
X0200835Y0117278D01*
X0200785Y0117418D01*
X0200740Y0117559D01*
X0200699Y0117702D01*
X0200661Y0117845D01*
X0200627Y0117990D01*
X0200598Y0118135D01*
X0200572Y0118281D01*
X0200550Y0118428D01*
X0200532Y0118575D01*
X0200518Y0118723D01*
X0200508Y0118871D01*
X0200502Y0119019D01*
X0200500Y0119167D01*
X0279500Y0119167D02*
X0279502Y0119293D01*
X0279508Y0119419D01*
X0279518Y0119545D01*
X0279532Y0119671D01*
X0279550Y0119796D01*
X0279572Y0119920D01*
X0279597Y0120044D01*
X0279627Y0120167D01*
X0279660Y0120288D01*
X0279698Y0120409D01*
X0279739Y0120528D01*
X0279784Y0120647D01*
X0279832Y0120763D01*
X0279884Y0120878D01*
X0279940Y0120991D01*
X0280000Y0121103D01*
X0280063Y0121212D01*
X0280129Y0121320D01*
X0280198Y0121425D01*
X0280271Y0121528D01*
X0280348Y0121629D01*
X0280427Y0121727D01*
X0280509Y0121823D01*
X0280595Y0121916D01*
X0280683Y0122007D01*
X0280774Y0122094D01*
X0280868Y0122179D01*
X0280964Y0122260D01*
X0281063Y0122339D01*
X0281164Y0122414D01*
X0281268Y0122486D01*
X0281374Y0122555D01*
X0281482Y0122621D01*
X0281592Y0122683D01*
X0281704Y0122741D01*
X0281817Y0122796D01*
X0281933Y0122847D01*
X0282050Y0122895D01*
X0282168Y0122939D01*
X0282288Y0122979D01*
X0282409Y0123015D01*
X0282531Y0123048D01*
X0282654Y0123077D01*
X0282778Y0123101D01*
X0282902Y0123122D01*
X0283027Y0123139D01*
X0283153Y0123152D01*
X0283279Y0123161D01*
X0283405Y0123166D01*
X0283532Y0123167D01*
X0283658Y0123164D01*
X0283784Y0123157D01*
X0283910Y0123146D01*
X0284035Y0123131D01*
X0284160Y0123112D01*
X0284284Y0123089D01*
X0284408Y0123063D01*
X0284530Y0123032D01*
X0284652Y0122998D01*
X0284772Y0122959D01*
X0284891Y0122917D01*
X0285009Y0122872D01*
X0285125Y0122822D01*
X0285240Y0122769D01*
X0285352Y0122712D01*
X0285463Y0122652D01*
X0285572Y0122588D01*
X0285679Y0122521D01*
X0285784Y0122451D01*
X0285887Y0122377D01*
X0285987Y0122300D01*
X0286085Y0122220D01*
X0286180Y0122137D01*
X0286272Y0122051D01*
X0286362Y0121962D01*
X0286449Y0121870D01*
X0286532Y0121776D01*
X0286613Y0121679D01*
X0286691Y0121579D01*
X0286766Y0121477D01*
X0286837Y0121373D01*
X0286905Y0121266D01*
X0286969Y0121158D01*
X0287030Y0121047D01*
X0287088Y0120935D01*
X0287142Y0120821D01*
X0287192Y0120705D01*
X0287239Y0120588D01*
X0287282Y0120469D01*
X0287321Y0120349D01*
X0287357Y0120228D01*
X0287388Y0120105D01*
X0287416Y0119982D01*
X0287440Y0119858D01*
X0287460Y0119733D01*
X0287476Y0119608D01*
X0287488Y0119482D01*
X0287496Y0119356D01*
X0287500Y0119230D01*
X0287500Y0119104D01*
X0287496Y0118978D01*
X0287488Y0118852D01*
X0287476Y0118726D01*
X0287460Y0118601D01*
X0287440Y0118476D01*
X0287416Y0118352D01*
X0287388Y0118229D01*
X0287357Y0118106D01*
X0287321Y0117985D01*
X0287282Y0117865D01*
X0287239Y0117746D01*
X0287192Y0117629D01*
X0287142Y0117513D01*
X0287088Y0117399D01*
X0287030Y0117287D01*
X0286969Y0117176D01*
X0286905Y0117068D01*
X0286837Y0116961D01*
X0286766Y0116857D01*
X0286691Y0116755D01*
X0286613Y0116655D01*
X0286532Y0116558D01*
X0286449Y0116464D01*
X0286362Y0116372D01*
X0286272Y0116283D01*
X0286180Y0116197D01*
X0286085Y0116114D01*
X0285987Y0116034D01*
X0285887Y0115957D01*
X0285784Y0115883D01*
X0285679Y0115813D01*
X0285572Y0115746D01*
X0285463Y0115682D01*
X0285352Y0115622D01*
X0285240Y0115565D01*
X0285125Y0115512D01*
X0285009Y0115462D01*
X0284891Y0115417D01*
X0284772Y0115375D01*
X0284652Y0115336D01*
X0284530Y0115302D01*
X0284408Y0115271D01*
X0284284Y0115245D01*
X0284160Y0115222D01*
X0284035Y0115203D01*
X0283910Y0115188D01*
X0283784Y0115177D01*
X0283658Y0115170D01*
X0283532Y0115167D01*
X0283405Y0115168D01*
X0283279Y0115173D01*
X0283153Y0115182D01*
X0283027Y0115195D01*
X0282902Y0115212D01*
X0282778Y0115233D01*
X0282654Y0115257D01*
X0282531Y0115286D01*
X0282409Y0115319D01*
X0282288Y0115355D01*
X0282168Y0115395D01*
X0282050Y0115439D01*
X0281933Y0115487D01*
X0281817Y0115538D01*
X0281704Y0115593D01*
X0281592Y0115651D01*
X0281482Y0115713D01*
X0281374Y0115779D01*
X0281268Y0115848D01*
X0281164Y0115920D01*
X0281063Y0115995D01*
X0280964Y0116074D01*
X0280868Y0116155D01*
X0280774Y0116240D01*
X0280683Y0116327D01*
X0280595Y0116418D01*
X0280509Y0116511D01*
X0280427Y0116607D01*
X0280348Y0116705D01*
X0280271Y0116806D01*
X0280198Y0116909D01*
X0280129Y0117014D01*
X0280063Y0117122D01*
X0280000Y0117231D01*
X0279940Y0117343D01*
X0279884Y0117456D01*
X0279832Y0117571D01*
X0279784Y0117687D01*
X0279739Y0117806D01*
X0279698Y0117925D01*
X0279660Y0118046D01*
X0279627Y0118167D01*
X0279597Y0118290D01*
X0279572Y0118414D01*
X0279550Y0118538D01*
X0279532Y0118663D01*
X0279518Y0118789D01*
X0279508Y0118915D01*
X0279502Y0119041D01*
X0279500Y0119167D01*
X0278000Y0119167D02*
X0278002Y0119315D01*
X0278008Y0119463D01*
X0278018Y0119611D01*
X0278032Y0119759D01*
X0278050Y0119906D01*
X0278072Y0120053D01*
X0278098Y0120199D01*
X0278127Y0120344D01*
X0278161Y0120489D01*
X0278199Y0120632D01*
X0278240Y0120775D01*
X0278285Y0120916D01*
X0278335Y0121056D01*
X0278387Y0121194D01*
X0278444Y0121332D01*
X0278504Y0121467D01*
X0278568Y0121601D01*
X0278635Y0121733D01*
X0278706Y0121863D01*
X0278781Y0121992D01*
X0278859Y0122118D01*
X0278940Y0122242D01*
X0279024Y0122364D01*
X0279112Y0122483D01*
X0279203Y0122600D01*
X0279297Y0122715D01*
X0279395Y0122827D01*
X0279495Y0122936D01*
X0279598Y0123043D01*
X0279704Y0123147D01*
X0279812Y0123248D01*
X0279924Y0123346D01*
X0280038Y0123441D01*
X0280154Y0123532D01*
X0280273Y0123621D01*
X0280394Y0123706D01*
X0280518Y0123788D01*
X0280644Y0123867D01*
X0280771Y0123942D01*
X0280901Y0124014D01*
X0281033Y0124083D01*
X0281166Y0124147D01*
X0281301Y0124208D01*
X0281438Y0124266D01*
X0281576Y0124320D01*
X0281716Y0124370D01*
X0281857Y0124416D01*
X0281999Y0124458D01*
X0282142Y0124497D01*
X0282286Y0124531D01*
X0282432Y0124562D01*
X0282577Y0124589D01*
X0282724Y0124612D01*
X0282871Y0124631D01*
X0283019Y0124646D01*
X0283166Y0124657D01*
X0283315Y0124664D01*
X0283463Y0124667D01*
X0283611Y0124666D01*
X0283759Y0124661D01*
X0283907Y0124652D01*
X0284055Y0124639D01*
X0284203Y0124622D01*
X0284349Y0124601D01*
X0284496Y0124576D01*
X0284641Y0124547D01*
X0284786Y0124515D01*
X0284929Y0124478D01*
X0285072Y0124438D01*
X0285214Y0124393D01*
X0285354Y0124345D01*
X0285493Y0124293D01*
X0285630Y0124238D01*
X0285766Y0124178D01*
X0285901Y0124115D01*
X0286033Y0124049D01*
X0286164Y0123979D01*
X0286293Y0123905D01*
X0286419Y0123828D01*
X0286544Y0123748D01*
X0286666Y0123664D01*
X0286787Y0123577D01*
X0286904Y0123487D01*
X0287020Y0123393D01*
X0287132Y0123297D01*
X0287242Y0123198D01*
X0287350Y0123095D01*
X0287454Y0122990D01*
X0287556Y0122882D01*
X0287654Y0122771D01*
X0287750Y0122658D01*
X0287843Y0122542D01*
X0287932Y0122424D01*
X0288018Y0122303D01*
X0288101Y0122180D01*
X0288181Y0122055D01*
X0288257Y0121928D01*
X0288330Y0121798D01*
X0288399Y0121667D01*
X0288464Y0121534D01*
X0288527Y0121400D01*
X0288585Y0121263D01*
X0288640Y0121125D01*
X0288690Y0120986D01*
X0288738Y0120845D01*
X0288781Y0120704D01*
X0288821Y0120561D01*
X0288856Y0120417D01*
X0288888Y0120272D01*
X0288916Y0120126D01*
X0288940Y0119980D01*
X0288960Y0119833D01*
X0288976Y0119685D01*
X0288988Y0119538D01*
X0288996Y0119389D01*
X0289000Y0119241D01*
X0289000Y0119093D01*
X0288996Y0118945D01*
X0288988Y0118796D01*
X0288976Y0118649D01*
X0288960Y0118501D01*
X0288940Y0118354D01*
X0288916Y0118208D01*
X0288888Y0118062D01*
X0288856Y0117917D01*
X0288821Y0117773D01*
X0288781Y0117630D01*
X0288738Y0117489D01*
X0288690Y0117348D01*
X0288640Y0117209D01*
X0288585Y0117071D01*
X0288527Y0116934D01*
X0288464Y0116800D01*
X0288399Y0116667D01*
X0288330Y0116536D01*
X0288257Y0116406D01*
X0288181Y0116279D01*
X0288101Y0116154D01*
X0288018Y0116031D01*
X0287932Y0115910D01*
X0287843Y0115792D01*
X0287750Y0115676D01*
X0287654Y0115563D01*
X0287556Y0115452D01*
X0287454Y0115344D01*
X0287350Y0115239D01*
X0287242Y0115136D01*
X0287132Y0115037D01*
X0287020Y0114941D01*
X0286904Y0114847D01*
X0286787Y0114757D01*
X0286666Y0114670D01*
X0286544Y0114586D01*
X0286419Y0114506D01*
X0286293Y0114429D01*
X0286164Y0114355D01*
X0286033Y0114285D01*
X0285901Y0114219D01*
X0285766Y0114156D01*
X0285630Y0114096D01*
X0285493Y0114041D01*
X0285354Y0113989D01*
X0285214Y0113941D01*
X0285072Y0113896D01*
X0284929Y0113856D01*
X0284786Y0113819D01*
X0284641Y0113787D01*
X0284496Y0113758D01*
X0284349Y0113733D01*
X0284203Y0113712D01*
X0284055Y0113695D01*
X0283907Y0113682D01*
X0283759Y0113673D01*
X0283611Y0113668D01*
X0283463Y0113667D01*
X0283315Y0113670D01*
X0283166Y0113677D01*
X0283019Y0113688D01*
X0282871Y0113703D01*
X0282724Y0113722D01*
X0282577Y0113745D01*
X0282432Y0113772D01*
X0282286Y0113803D01*
X0282142Y0113837D01*
X0281999Y0113876D01*
X0281857Y0113918D01*
X0281716Y0113964D01*
X0281576Y0114014D01*
X0281438Y0114068D01*
X0281301Y0114126D01*
X0281166Y0114187D01*
X0281033Y0114251D01*
X0280901Y0114320D01*
X0280771Y0114392D01*
X0280644Y0114467D01*
X0280518Y0114546D01*
X0280394Y0114628D01*
X0280273Y0114713D01*
X0280154Y0114802D01*
X0280038Y0114893D01*
X0279924Y0114988D01*
X0279812Y0115086D01*
X0279704Y0115187D01*
X0279598Y0115291D01*
X0279495Y0115398D01*
X0279395Y0115507D01*
X0279297Y0115619D01*
X0279203Y0115734D01*
X0279112Y0115851D01*
X0279024Y0115970D01*
X0278940Y0116092D01*
X0278859Y0116216D01*
X0278781Y0116342D01*
X0278706Y0116471D01*
X0278635Y0116601D01*
X0278568Y0116733D01*
X0278504Y0116867D01*
X0278444Y0117002D01*
X0278387Y0117140D01*
X0278335Y0117278D01*
X0278285Y0117418D01*
X0278240Y0117559D01*
X0278199Y0117702D01*
X0278161Y0117845D01*
X0278127Y0117990D01*
X0278098Y0118135D01*
X0278072Y0118281D01*
X0278050Y0118428D01*
X0278032Y0118575D01*
X0278018Y0118723D01*
X0278008Y0118871D01*
X0278002Y0119019D01*
X0278000Y0119167D01*
D18*
X0256000Y0112867D02*
X0246000Y0112867D01*
X0243000Y0106667D02*
X0243002Y0106475D01*
X0243009Y0106283D01*
X0243021Y0106091D01*
X0243037Y0105899D01*
X0243058Y0105708D01*
X0243083Y0105518D01*
X0243113Y0105328D01*
X0243147Y0105139D01*
X0243186Y0104951D01*
X0243230Y0104764D01*
X0243278Y0104578D01*
X0243330Y0104393D01*
X0243387Y0104209D01*
X0243448Y0104027D01*
X0243514Y0103847D01*
X0243584Y0103668D01*
X0243658Y0103490D01*
X0243736Y0103315D01*
X0243819Y0103141D01*
X0243906Y0102970D01*
X0243996Y0102801D01*
X0244091Y0102634D01*
X0244190Y0102469D01*
X0244293Y0102306D01*
X0244400Y0102147D01*
X0244510Y0101989D01*
X0244624Y0101835D01*
X0244742Y0101683D01*
X0244864Y0101534D01*
X0244989Y0101388D01*
X0245117Y0101246D01*
X0245249Y0101106D01*
X0245384Y0100969D01*
X0245523Y0100836D01*
X0245664Y0100706D01*
X0245809Y0100580D01*
X0245957Y0100457D01*
X0246107Y0100338D01*
X0246261Y0100222D01*
X0246417Y0100110D01*
X0246576Y0100002D01*
X0246737Y0099897D01*
X0246901Y0099797D01*
X0247067Y0099701D01*
X0247235Y0099608D01*
X0254969Y0099720D02*
X0255138Y0099819D01*
X0255304Y0099923D01*
X0255468Y0100030D01*
X0255629Y0100141D01*
X0255787Y0100256D01*
X0255942Y0100375D01*
X0256095Y0100498D01*
X0256244Y0100624D01*
X0256390Y0100754D01*
X0256533Y0100888D01*
X0256673Y0101025D01*
X0256809Y0101165D01*
X0256942Y0101309D01*
X0257071Y0101456D01*
X0257197Y0101606D01*
X0257318Y0101759D01*
X0257437Y0101915D01*
X0257551Y0102074D01*
X0257661Y0102235D01*
X0257767Y0102400D01*
X0257870Y0102566D01*
X0257968Y0102736D01*
X0258062Y0102907D01*
X0258152Y0103081D01*
X0258237Y0103257D01*
X0258319Y0103435D01*
X0258395Y0103615D01*
X0258468Y0103797D01*
X0258536Y0103980D01*
X0258599Y0104165D01*
X0258658Y0104352D01*
X0258712Y0104540D01*
X0258762Y0104729D01*
X0258807Y0104919D01*
X0258847Y0105111D01*
X0258883Y0105303D01*
X0258914Y0105496D01*
X0258940Y0105690D01*
X0258962Y0105885D01*
X0258978Y0106080D01*
X0258990Y0106275D01*
X0258998Y0106471D01*
X0259000Y0106666D01*
X0255193Y0099854D02*
X0255028Y0099755D01*
X0254861Y0099660D01*
X0254692Y0099570D01*
X0254521Y0099483D01*
X0254347Y0099401D01*
X0254172Y0099323D01*
X0253995Y0099249D01*
X0253816Y0099179D01*
X0253636Y0099114D01*
X0253454Y0099053D01*
X0253271Y0098996D01*
X0253086Y0098944D01*
X0252900Y0098896D01*
X0252713Y0098853D01*
X0252525Y0098814D01*
X0252337Y0098779D01*
X0252147Y0098750D01*
X0251957Y0098724D01*
X0251766Y0098704D01*
X0251575Y0098688D01*
X0251383Y0098676D01*
X0251192Y0098669D01*
X0251000Y0098667D01*
X0250812Y0098669D01*
X0250624Y0098676D01*
X0250436Y0098687D01*
X0250248Y0098702D01*
X0250061Y0098722D01*
X0249875Y0098747D01*
X0249689Y0098775D01*
X0249503Y0098808D01*
X0249319Y0098846D01*
X0249136Y0098887D01*
X0248953Y0098933D01*
X0248772Y0098984D01*
X0248592Y0099038D01*
X0248413Y0099097D01*
X0248236Y0099160D01*
X0248060Y0099227D01*
X0247886Y0099298D01*
X0247713Y0099373D01*
X0247543Y0099453D01*
X0247374Y0099536D01*
X0247207Y0099623D01*
X0243000Y0106667D02*
X0243002Y0106862D01*
X0243009Y0107056D01*
X0243021Y0107250D01*
X0243038Y0107444D01*
X0243059Y0107638D01*
X0243085Y0107831D01*
X0243116Y0108023D01*
X0243151Y0108215D01*
X0243191Y0108405D01*
X0243236Y0108595D01*
X0243285Y0108783D01*
X0243339Y0108970D01*
X0243397Y0109156D01*
X0243460Y0109340D01*
X0243527Y0109523D01*
X0243599Y0109704D01*
X0243675Y0109883D01*
X0243755Y0110060D01*
X0243840Y0110235D01*
X0243929Y0110409D01*
X0244022Y0110579D01*
X0244119Y0110748D01*
X0244221Y0110914D01*
X0244326Y0111078D01*
X0244435Y0111239D01*
X0244548Y0111398D01*
X0244665Y0111553D01*
X0244786Y0111706D01*
X0244911Y0111855D01*
X0245039Y0112002D01*
X0245170Y0112146D01*
X0245305Y0112286D01*
X0245444Y0112423D01*
X0245585Y0112556D01*
X0245730Y0112686D01*
X0245878Y0112813D01*
X0256168Y0112774D02*
X0256314Y0112647D01*
X0256456Y0112518D01*
X0256596Y0112384D01*
X0256732Y0112248D01*
X0256865Y0112108D01*
X0256995Y0111965D01*
X0257121Y0111818D01*
X0257243Y0111669D01*
X0257362Y0111517D01*
X0257477Y0111362D01*
X0257589Y0111205D01*
X0257696Y0111045D01*
X0257800Y0110882D01*
X0257899Y0110716D01*
X0257995Y0110549D01*
X0258087Y0110379D01*
X0258174Y0110207D01*
X0258258Y0110033D01*
X0258337Y0109857D01*
X0258411Y0109679D01*
X0258482Y0109499D01*
X0258548Y0109318D01*
X0258610Y0109135D01*
X0258667Y0108951D01*
X0258720Y0108765D01*
X0258768Y0108578D01*
X0258812Y0108390D01*
X0258851Y0108201D01*
X0258886Y0108011D01*
X0258916Y0107821D01*
X0258942Y0107630D01*
X0258963Y0107438D01*
X0258979Y0107245D01*
X0258991Y0107053D01*
X0258998Y0106860D01*
X0259000Y0106667D01*
X0254969Y0129720D02*
X0255138Y0129819D01*
X0255304Y0129923D01*
X0255468Y0130030D01*
X0255629Y0130141D01*
X0255787Y0130256D01*
X0255942Y0130375D01*
X0256095Y0130498D01*
X0256244Y0130624D01*
X0256390Y0130754D01*
X0256533Y0130888D01*
X0256673Y0131025D01*
X0256809Y0131165D01*
X0256942Y0131309D01*
X0257071Y0131456D01*
X0257197Y0131606D01*
X0257318Y0131759D01*
X0257437Y0131915D01*
X0257551Y0132074D01*
X0257661Y0132235D01*
X0257767Y0132400D01*
X0257870Y0132566D01*
X0257968Y0132736D01*
X0258062Y0132907D01*
X0258152Y0133081D01*
X0258237Y0133257D01*
X0258319Y0133435D01*
X0258395Y0133615D01*
X0258468Y0133797D01*
X0258536Y0133980D01*
X0258599Y0134165D01*
X0258658Y0134352D01*
X0258712Y0134540D01*
X0258762Y0134729D01*
X0258807Y0134919D01*
X0258847Y0135111D01*
X0258883Y0135303D01*
X0258914Y0135496D01*
X0258940Y0135690D01*
X0258962Y0135885D01*
X0258978Y0136080D01*
X0258990Y0136275D01*
X0258998Y0136471D01*
X0259000Y0136666D01*
X0255193Y0129854D02*
X0255028Y0129755D01*
X0254861Y0129660D01*
X0254692Y0129570D01*
X0254521Y0129483D01*
X0254347Y0129401D01*
X0254172Y0129323D01*
X0253995Y0129249D01*
X0253816Y0129179D01*
X0253636Y0129114D01*
X0253454Y0129053D01*
X0253271Y0128996D01*
X0253086Y0128944D01*
X0252900Y0128896D01*
X0252713Y0128853D01*
X0252525Y0128814D01*
X0252337Y0128779D01*
X0252147Y0128750D01*
X0251957Y0128724D01*
X0251766Y0128704D01*
X0251575Y0128688D01*
X0251383Y0128676D01*
X0251192Y0128669D01*
X0251000Y0128667D01*
X0250812Y0128669D01*
X0250624Y0128676D01*
X0250436Y0128687D01*
X0250248Y0128702D01*
X0250061Y0128722D01*
X0249875Y0128747D01*
X0249689Y0128775D01*
X0249503Y0128808D01*
X0249319Y0128846D01*
X0249136Y0128887D01*
X0248953Y0128933D01*
X0248772Y0128984D01*
X0248592Y0129038D01*
X0248413Y0129097D01*
X0248236Y0129160D01*
X0248060Y0129227D01*
X0247886Y0129298D01*
X0247713Y0129373D01*
X0247543Y0129453D01*
X0247374Y0129536D01*
X0247207Y0129623D01*
X0243000Y0136667D02*
X0243002Y0136862D01*
X0243009Y0137056D01*
X0243021Y0137250D01*
X0243038Y0137444D01*
X0243059Y0137638D01*
X0243085Y0137831D01*
X0243116Y0138023D01*
X0243151Y0138215D01*
X0243191Y0138405D01*
X0243236Y0138595D01*
X0243285Y0138783D01*
X0243339Y0138970D01*
X0243397Y0139156D01*
X0243460Y0139340D01*
X0243527Y0139523D01*
X0243599Y0139704D01*
X0243675Y0139883D01*
X0243755Y0140060D01*
X0243840Y0140235D01*
X0243929Y0140409D01*
X0244022Y0140579D01*
X0244119Y0140748D01*
X0244221Y0140914D01*
X0244326Y0141078D01*
X0244435Y0141239D01*
X0244548Y0141398D01*
X0244665Y0141553D01*
X0244786Y0141706D01*
X0244911Y0141855D01*
X0245039Y0142002D01*
X0245170Y0142146D01*
X0245305Y0142286D01*
X0245444Y0142423D01*
X0245585Y0142556D01*
X0245730Y0142686D01*
X0245878Y0142813D01*
X0246000Y0142867D02*
X0256000Y0142867D01*
X0243000Y0136667D02*
X0243002Y0136475D01*
X0243009Y0136283D01*
X0243021Y0136091D01*
X0243037Y0135899D01*
X0243058Y0135708D01*
X0243083Y0135518D01*
X0243113Y0135328D01*
X0243147Y0135139D01*
X0243186Y0134951D01*
X0243230Y0134764D01*
X0243278Y0134578D01*
X0243330Y0134393D01*
X0243387Y0134209D01*
X0243448Y0134027D01*
X0243514Y0133847D01*
X0243584Y0133668D01*
X0243658Y0133490D01*
X0243736Y0133315D01*
X0243819Y0133141D01*
X0243906Y0132970D01*
X0243996Y0132801D01*
X0244091Y0132634D01*
X0244190Y0132469D01*
X0244293Y0132306D01*
X0244400Y0132147D01*
X0244510Y0131989D01*
X0244624Y0131835D01*
X0244742Y0131683D01*
X0244864Y0131534D01*
X0244989Y0131388D01*
X0245117Y0131246D01*
X0245249Y0131106D01*
X0245384Y0130969D01*
X0245523Y0130836D01*
X0245664Y0130706D01*
X0245809Y0130580D01*
X0245957Y0130457D01*
X0246107Y0130338D01*
X0246261Y0130222D01*
X0246417Y0130110D01*
X0246576Y0130002D01*
X0246737Y0129897D01*
X0246901Y0129797D01*
X0247067Y0129701D01*
X0247235Y0129608D01*
X0259000Y0136667D02*
X0258998Y0136860D01*
X0258991Y0137053D01*
X0258979Y0137245D01*
X0258963Y0137438D01*
X0258942Y0137630D01*
X0258916Y0137821D01*
X0258886Y0138011D01*
X0258851Y0138201D01*
X0258812Y0138390D01*
X0258768Y0138578D01*
X0258720Y0138765D01*
X0258667Y0138951D01*
X0258610Y0139135D01*
X0258548Y0139318D01*
X0258482Y0139499D01*
X0258411Y0139679D01*
X0258337Y0139857D01*
X0258258Y0140033D01*
X0258174Y0140207D01*
X0258087Y0140379D01*
X0257995Y0140549D01*
X0257899Y0140716D01*
X0257800Y0140882D01*
X0257696Y0141045D01*
X0257589Y0141205D01*
X0257477Y0141362D01*
X0257362Y0141517D01*
X0257243Y0141669D01*
X0257121Y0141818D01*
X0256995Y0141965D01*
X0256865Y0142108D01*
X0256732Y0142248D01*
X0256596Y0142384D01*
X0256456Y0142518D01*
X0256314Y0142647D01*
X0256168Y0142774D01*
X0176000Y0142867D02*
X0166000Y0142867D01*
X0163000Y0136667D02*
X0163002Y0136475D01*
X0163009Y0136283D01*
X0163021Y0136091D01*
X0163037Y0135899D01*
X0163058Y0135708D01*
X0163083Y0135518D01*
X0163113Y0135328D01*
X0163147Y0135139D01*
X0163186Y0134951D01*
X0163230Y0134764D01*
X0163278Y0134578D01*
X0163330Y0134393D01*
X0163387Y0134209D01*
X0163448Y0134027D01*
X0163514Y0133847D01*
X0163584Y0133668D01*
X0163658Y0133490D01*
X0163736Y0133315D01*
X0163819Y0133141D01*
X0163906Y0132970D01*
X0163996Y0132801D01*
X0164091Y0132634D01*
X0164190Y0132469D01*
X0164293Y0132306D01*
X0164400Y0132147D01*
X0164510Y0131989D01*
X0164624Y0131835D01*
X0164742Y0131683D01*
X0164864Y0131534D01*
X0164989Y0131388D01*
X0165117Y0131246D01*
X0165249Y0131106D01*
X0165384Y0130969D01*
X0165523Y0130836D01*
X0165664Y0130706D01*
X0165809Y0130580D01*
X0165957Y0130457D01*
X0166107Y0130338D01*
X0166261Y0130222D01*
X0166417Y0130110D01*
X0166576Y0130002D01*
X0166737Y0129897D01*
X0166901Y0129797D01*
X0167067Y0129701D01*
X0167235Y0129608D01*
X0174969Y0129720D02*
X0175138Y0129819D01*
X0175304Y0129923D01*
X0175468Y0130030D01*
X0175629Y0130141D01*
X0175787Y0130256D01*
X0175942Y0130375D01*
X0176095Y0130498D01*
X0176244Y0130624D01*
X0176390Y0130754D01*
X0176533Y0130888D01*
X0176673Y0131025D01*
X0176809Y0131165D01*
X0176942Y0131309D01*
X0177071Y0131456D01*
X0177197Y0131606D01*
X0177318Y0131759D01*
X0177437Y0131915D01*
X0177551Y0132074D01*
X0177661Y0132235D01*
X0177767Y0132400D01*
X0177870Y0132566D01*
X0177968Y0132736D01*
X0178062Y0132907D01*
X0178152Y0133081D01*
X0178237Y0133257D01*
X0178319Y0133435D01*
X0178395Y0133615D01*
X0178468Y0133797D01*
X0178536Y0133980D01*
X0178599Y0134165D01*
X0178658Y0134352D01*
X0178712Y0134540D01*
X0178762Y0134729D01*
X0178807Y0134919D01*
X0178847Y0135111D01*
X0178883Y0135303D01*
X0178914Y0135496D01*
X0178940Y0135690D01*
X0178962Y0135885D01*
X0178978Y0136080D01*
X0178990Y0136275D01*
X0178998Y0136471D01*
X0179000Y0136666D01*
X0175193Y0129854D02*
X0175028Y0129755D01*
X0174861Y0129660D01*
X0174692Y0129570D01*
X0174521Y0129483D01*
X0174347Y0129401D01*
X0174172Y0129323D01*
X0173995Y0129249D01*
X0173816Y0129179D01*
X0173636Y0129114D01*
X0173454Y0129053D01*
X0173271Y0128996D01*
X0173086Y0128944D01*
X0172900Y0128896D01*
X0172713Y0128853D01*
X0172525Y0128814D01*
X0172337Y0128779D01*
X0172147Y0128750D01*
X0171957Y0128724D01*
X0171766Y0128704D01*
X0171575Y0128688D01*
X0171383Y0128676D01*
X0171192Y0128669D01*
X0171000Y0128667D01*
X0170812Y0128669D01*
X0170624Y0128676D01*
X0170436Y0128687D01*
X0170248Y0128702D01*
X0170061Y0128722D01*
X0169875Y0128747D01*
X0169689Y0128775D01*
X0169503Y0128808D01*
X0169319Y0128846D01*
X0169136Y0128887D01*
X0168953Y0128933D01*
X0168772Y0128984D01*
X0168592Y0129038D01*
X0168413Y0129097D01*
X0168236Y0129160D01*
X0168060Y0129227D01*
X0167886Y0129298D01*
X0167713Y0129373D01*
X0167543Y0129453D01*
X0167374Y0129536D01*
X0167207Y0129623D01*
X0163000Y0136667D02*
X0163002Y0136862D01*
X0163009Y0137056D01*
X0163021Y0137250D01*
X0163038Y0137444D01*
X0163059Y0137638D01*
X0163085Y0137831D01*
X0163116Y0138023D01*
X0163151Y0138215D01*
X0163191Y0138405D01*
X0163236Y0138595D01*
X0163285Y0138783D01*
X0163339Y0138970D01*
X0163397Y0139156D01*
X0163460Y0139340D01*
X0163527Y0139523D01*
X0163599Y0139704D01*
X0163675Y0139883D01*
X0163755Y0140060D01*
X0163840Y0140235D01*
X0163929Y0140409D01*
X0164022Y0140579D01*
X0164119Y0140748D01*
X0164221Y0140914D01*
X0164326Y0141078D01*
X0164435Y0141239D01*
X0164548Y0141398D01*
X0164665Y0141553D01*
X0164786Y0141706D01*
X0164911Y0141855D01*
X0165039Y0142002D01*
X0165170Y0142146D01*
X0165305Y0142286D01*
X0165444Y0142423D01*
X0165585Y0142556D01*
X0165730Y0142686D01*
X0165878Y0142813D01*
X0176168Y0142774D02*
X0176314Y0142647D01*
X0176456Y0142518D01*
X0176596Y0142384D01*
X0176732Y0142248D01*
X0176865Y0142108D01*
X0176995Y0141965D01*
X0177121Y0141818D01*
X0177243Y0141669D01*
X0177362Y0141517D01*
X0177477Y0141362D01*
X0177589Y0141205D01*
X0177696Y0141045D01*
X0177800Y0140882D01*
X0177899Y0140716D01*
X0177995Y0140549D01*
X0178087Y0140379D01*
X0178174Y0140207D01*
X0178258Y0140033D01*
X0178337Y0139857D01*
X0178411Y0139679D01*
X0178482Y0139499D01*
X0178548Y0139318D01*
X0178610Y0139135D01*
X0178667Y0138951D01*
X0178720Y0138765D01*
X0178768Y0138578D01*
X0178812Y0138390D01*
X0178851Y0138201D01*
X0178886Y0138011D01*
X0178916Y0137821D01*
X0178942Y0137630D01*
X0178963Y0137438D01*
X0178979Y0137245D01*
X0178991Y0137053D01*
X0178998Y0136860D01*
X0179000Y0136667D01*
X0176000Y0112867D02*
X0166000Y0112867D01*
X0163000Y0106667D02*
X0163002Y0106475D01*
X0163009Y0106283D01*
X0163021Y0106091D01*
X0163037Y0105899D01*
X0163058Y0105708D01*
X0163083Y0105518D01*
X0163113Y0105328D01*
X0163147Y0105139D01*
X0163186Y0104951D01*
X0163230Y0104764D01*
X0163278Y0104578D01*
X0163330Y0104393D01*
X0163387Y0104209D01*
X0163448Y0104027D01*
X0163514Y0103847D01*
X0163584Y0103668D01*
X0163658Y0103490D01*
X0163736Y0103315D01*
X0163819Y0103141D01*
X0163906Y0102970D01*
X0163996Y0102801D01*
X0164091Y0102634D01*
X0164190Y0102469D01*
X0164293Y0102306D01*
X0164400Y0102147D01*
X0164510Y0101989D01*
X0164624Y0101835D01*
X0164742Y0101683D01*
X0164864Y0101534D01*
X0164989Y0101388D01*
X0165117Y0101246D01*
X0165249Y0101106D01*
X0165384Y0100969D01*
X0165523Y0100836D01*
X0165664Y0100706D01*
X0165809Y0100580D01*
X0165957Y0100457D01*
X0166107Y0100338D01*
X0166261Y0100222D01*
X0166417Y0100110D01*
X0166576Y0100002D01*
X0166737Y0099897D01*
X0166901Y0099797D01*
X0167067Y0099701D01*
X0167235Y0099608D01*
X0174969Y0099720D02*
X0175138Y0099819D01*
X0175304Y0099923D01*
X0175468Y0100030D01*
X0175629Y0100141D01*
X0175787Y0100256D01*
X0175942Y0100375D01*
X0176095Y0100498D01*
X0176244Y0100624D01*
X0176390Y0100754D01*
X0176533Y0100888D01*
X0176673Y0101025D01*
X0176809Y0101165D01*
X0176942Y0101309D01*
X0177071Y0101456D01*
X0177197Y0101606D01*
X0177318Y0101759D01*
X0177437Y0101915D01*
X0177551Y0102074D01*
X0177661Y0102235D01*
X0177767Y0102400D01*
X0177870Y0102566D01*
X0177968Y0102736D01*
X0178062Y0102907D01*
X0178152Y0103081D01*
X0178237Y0103257D01*
X0178319Y0103435D01*
X0178395Y0103615D01*
X0178468Y0103797D01*
X0178536Y0103980D01*
X0178599Y0104165D01*
X0178658Y0104352D01*
X0178712Y0104540D01*
X0178762Y0104729D01*
X0178807Y0104919D01*
X0178847Y0105111D01*
X0178883Y0105303D01*
X0178914Y0105496D01*
X0178940Y0105690D01*
X0178962Y0105885D01*
X0178978Y0106080D01*
X0178990Y0106275D01*
X0178998Y0106471D01*
X0179000Y0106666D01*
X0175193Y0099854D02*
X0175028Y0099755D01*
X0174861Y0099660D01*
X0174692Y0099570D01*
X0174521Y0099483D01*
X0174347Y0099401D01*
X0174172Y0099323D01*
X0173995Y0099249D01*
X0173816Y0099179D01*
X0173636Y0099114D01*
X0173454Y0099053D01*
X0173271Y0098996D01*
X0173086Y0098944D01*
X0172900Y0098896D01*
X0172713Y0098853D01*
X0172525Y0098814D01*
X0172337Y0098779D01*
X0172147Y0098750D01*
X0171957Y0098724D01*
X0171766Y0098704D01*
X0171575Y0098688D01*
X0171383Y0098676D01*
X0171192Y0098669D01*
X0171000Y0098667D01*
X0170812Y0098669D01*
X0170624Y0098676D01*
X0170436Y0098687D01*
X0170248Y0098702D01*
X0170061Y0098722D01*
X0169875Y0098747D01*
X0169689Y0098775D01*
X0169503Y0098808D01*
X0169319Y0098846D01*
X0169136Y0098887D01*
X0168953Y0098933D01*
X0168772Y0098984D01*
X0168592Y0099038D01*
X0168413Y0099097D01*
X0168236Y0099160D01*
X0168060Y0099227D01*
X0167886Y0099298D01*
X0167713Y0099373D01*
X0167543Y0099453D01*
X0167374Y0099536D01*
X0167207Y0099623D01*
X0163000Y0106667D02*
X0163002Y0106862D01*
X0163009Y0107056D01*
X0163021Y0107250D01*
X0163038Y0107444D01*
X0163059Y0107638D01*
X0163085Y0107831D01*
X0163116Y0108023D01*
X0163151Y0108215D01*
X0163191Y0108405D01*
X0163236Y0108595D01*
X0163285Y0108783D01*
X0163339Y0108970D01*
X0163397Y0109156D01*
X0163460Y0109340D01*
X0163527Y0109523D01*
X0163599Y0109704D01*
X0163675Y0109883D01*
X0163755Y0110060D01*
X0163840Y0110235D01*
X0163929Y0110409D01*
X0164022Y0110579D01*
X0164119Y0110748D01*
X0164221Y0110914D01*
X0164326Y0111078D01*
X0164435Y0111239D01*
X0164548Y0111398D01*
X0164665Y0111553D01*
X0164786Y0111706D01*
X0164911Y0111855D01*
X0165039Y0112002D01*
X0165170Y0112146D01*
X0165305Y0112286D01*
X0165444Y0112423D01*
X0165585Y0112556D01*
X0165730Y0112686D01*
X0165878Y0112813D01*
X0176168Y0112774D02*
X0176314Y0112647D01*
X0176456Y0112518D01*
X0176596Y0112384D01*
X0176732Y0112248D01*
X0176865Y0112108D01*
X0176995Y0111965D01*
X0177121Y0111818D01*
X0177243Y0111669D01*
X0177362Y0111517D01*
X0177477Y0111362D01*
X0177589Y0111205D01*
X0177696Y0111045D01*
X0177800Y0110882D01*
X0177899Y0110716D01*
X0177995Y0110549D01*
X0178087Y0110379D01*
X0178174Y0110207D01*
X0178258Y0110033D01*
X0178337Y0109857D01*
X0178411Y0109679D01*
X0178482Y0109499D01*
X0178548Y0109318D01*
X0178610Y0109135D01*
X0178667Y0108951D01*
X0178720Y0108765D01*
X0178768Y0108578D01*
X0178812Y0108390D01*
X0178851Y0108201D01*
X0178886Y0108011D01*
X0178916Y0107821D01*
X0178942Y0107630D01*
X0178963Y0107438D01*
X0178979Y0107245D01*
X0178991Y0107053D01*
X0178998Y0106860D01*
X0179000Y0106667D01*
X0096000Y0112867D02*
X0086000Y0112867D01*
X0083000Y0106667D02*
X0083002Y0106475D01*
X0083009Y0106283D01*
X0083021Y0106091D01*
X0083037Y0105899D01*
X0083058Y0105708D01*
X0083083Y0105518D01*
X0083113Y0105328D01*
X0083147Y0105139D01*
X0083186Y0104951D01*
X0083230Y0104764D01*
X0083278Y0104578D01*
X0083330Y0104393D01*
X0083387Y0104209D01*
X0083448Y0104027D01*
X0083514Y0103847D01*
X0083584Y0103668D01*
X0083658Y0103490D01*
X0083736Y0103315D01*
X0083819Y0103141D01*
X0083906Y0102970D01*
X0083996Y0102801D01*
X0084091Y0102634D01*
X0084190Y0102469D01*
X0084293Y0102306D01*
X0084400Y0102147D01*
X0084510Y0101989D01*
X0084624Y0101835D01*
X0084742Y0101683D01*
X0084864Y0101534D01*
X0084989Y0101388D01*
X0085117Y0101246D01*
X0085249Y0101106D01*
X0085384Y0100969D01*
X0085523Y0100836D01*
X0085664Y0100706D01*
X0085809Y0100580D01*
X0085957Y0100457D01*
X0086107Y0100338D01*
X0086261Y0100222D01*
X0086417Y0100110D01*
X0086576Y0100002D01*
X0086737Y0099897D01*
X0086901Y0099797D01*
X0087067Y0099701D01*
X0087235Y0099608D01*
X0094969Y0099720D02*
X0095138Y0099819D01*
X0095304Y0099923D01*
X0095468Y0100030D01*
X0095629Y0100141D01*
X0095787Y0100256D01*
X0095942Y0100375D01*
X0096095Y0100498D01*
X0096244Y0100624D01*
X0096390Y0100754D01*
X0096533Y0100888D01*
X0096673Y0101025D01*
X0096809Y0101165D01*
X0096942Y0101309D01*
X0097071Y0101456D01*
X0097197Y0101606D01*
X0097318Y0101759D01*
X0097437Y0101915D01*
X0097551Y0102074D01*
X0097661Y0102235D01*
X0097767Y0102400D01*
X0097870Y0102566D01*
X0097968Y0102736D01*
X0098062Y0102907D01*
X0098152Y0103081D01*
X0098237Y0103257D01*
X0098319Y0103435D01*
X0098395Y0103615D01*
X0098468Y0103797D01*
X0098536Y0103980D01*
X0098599Y0104165D01*
X0098658Y0104352D01*
X0098712Y0104540D01*
X0098762Y0104729D01*
X0098807Y0104919D01*
X0098847Y0105111D01*
X0098883Y0105303D01*
X0098914Y0105496D01*
X0098940Y0105690D01*
X0098962Y0105885D01*
X0098978Y0106080D01*
X0098990Y0106275D01*
X0098998Y0106471D01*
X0099000Y0106666D01*
X0095193Y0099854D02*
X0095028Y0099755D01*
X0094861Y0099660D01*
X0094692Y0099570D01*
X0094521Y0099483D01*
X0094347Y0099401D01*
X0094172Y0099323D01*
X0093995Y0099249D01*
X0093816Y0099179D01*
X0093636Y0099114D01*
X0093454Y0099053D01*
X0093271Y0098996D01*
X0093086Y0098944D01*
X0092900Y0098896D01*
X0092713Y0098853D01*
X0092525Y0098814D01*
X0092337Y0098779D01*
X0092147Y0098750D01*
X0091957Y0098724D01*
X0091766Y0098704D01*
X0091575Y0098688D01*
X0091383Y0098676D01*
X0091192Y0098669D01*
X0091000Y0098667D01*
X0090812Y0098669D01*
X0090624Y0098676D01*
X0090436Y0098687D01*
X0090248Y0098702D01*
X0090061Y0098722D01*
X0089875Y0098747D01*
X0089689Y0098775D01*
X0089503Y0098808D01*
X0089319Y0098846D01*
X0089136Y0098887D01*
X0088953Y0098933D01*
X0088772Y0098984D01*
X0088592Y0099038D01*
X0088413Y0099097D01*
X0088236Y0099160D01*
X0088060Y0099227D01*
X0087886Y0099298D01*
X0087713Y0099373D01*
X0087543Y0099453D01*
X0087374Y0099536D01*
X0087207Y0099623D01*
X0083000Y0106667D02*
X0083002Y0106862D01*
X0083009Y0107056D01*
X0083021Y0107250D01*
X0083038Y0107444D01*
X0083059Y0107638D01*
X0083085Y0107831D01*
X0083116Y0108023D01*
X0083151Y0108215D01*
X0083191Y0108405D01*
X0083236Y0108595D01*
X0083285Y0108783D01*
X0083339Y0108970D01*
X0083397Y0109156D01*
X0083460Y0109340D01*
X0083527Y0109523D01*
X0083599Y0109704D01*
X0083675Y0109883D01*
X0083755Y0110060D01*
X0083840Y0110235D01*
X0083929Y0110409D01*
X0084022Y0110579D01*
X0084119Y0110748D01*
X0084221Y0110914D01*
X0084326Y0111078D01*
X0084435Y0111239D01*
X0084548Y0111398D01*
X0084665Y0111553D01*
X0084786Y0111706D01*
X0084911Y0111855D01*
X0085039Y0112002D01*
X0085170Y0112146D01*
X0085305Y0112286D01*
X0085444Y0112423D01*
X0085585Y0112556D01*
X0085730Y0112686D01*
X0085878Y0112813D01*
X0096168Y0112774D02*
X0096314Y0112647D01*
X0096456Y0112518D01*
X0096596Y0112384D01*
X0096732Y0112248D01*
X0096865Y0112108D01*
X0096995Y0111965D01*
X0097121Y0111818D01*
X0097243Y0111669D01*
X0097362Y0111517D01*
X0097477Y0111362D01*
X0097589Y0111205D01*
X0097696Y0111045D01*
X0097800Y0110882D01*
X0097899Y0110716D01*
X0097995Y0110549D01*
X0098087Y0110379D01*
X0098174Y0110207D01*
X0098258Y0110033D01*
X0098337Y0109857D01*
X0098411Y0109679D01*
X0098482Y0109499D01*
X0098548Y0109318D01*
X0098610Y0109135D01*
X0098667Y0108951D01*
X0098720Y0108765D01*
X0098768Y0108578D01*
X0098812Y0108390D01*
X0098851Y0108201D01*
X0098886Y0108011D01*
X0098916Y0107821D01*
X0098942Y0107630D01*
X0098963Y0107438D01*
X0098979Y0107245D01*
X0098991Y0107053D01*
X0098998Y0106860D01*
X0099000Y0106667D01*
X0094969Y0129720D02*
X0095138Y0129819D01*
X0095304Y0129923D01*
X0095468Y0130030D01*
X0095629Y0130141D01*
X0095787Y0130256D01*
X0095942Y0130375D01*
X0096095Y0130498D01*
X0096244Y0130624D01*
X0096390Y0130754D01*
X0096533Y0130888D01*
X0096673Y0131025D01*
X0096809Y0131165D01*
X0096942Y0131309D01*
X0097071Y0131456D01*
X0097197Y0131606D01*
X0097318Y0131759D01*
X0097437Y0131915D01*
X0097551Y0132074D01*
X0097661Y0132235D01*
X0097767Y0132400D01*
X0097870Y0132566D01*
X0097968Y0132736D01*
X0098062Y0132907D01*
X0098152Y0133081D01*
X0098237Y0133257D01*
X0098319Y0133435D01*
X0098395Y0133615D01*
X0098468Y0133797D01*
X0098536Y0133980D01*
X0098599Y0134165D01*
X0098658Y0134352D01*
X0098712Y0134540D01*
X0098762Y0134729D01*
X0098807Y0134919D01*
X0098847Y0135111D01*
X0098883Y0135303D01*
X0098914Y0135496D01*
X0098940Y0135690D01*
X0098962Y0135885D01*
X0098978Y0136080D01*
X0098990Y0136275D01*
X0098998Y0136471D01*
X0099000Y0136666D01*
X0095193Y0129854D02*
X0095028Y0129755D01*
X0094861Y0129660D01*
X0094692Y0129570D01*
X0094521Y0129483D01*
X0094347Y0129401D01*
X0094172Y0129323D01*
X0093995Y0129249D01*
X0093816Y0129179D01*
X0093636Y0129114D01*
X0093454Y0129053D01*
X0093271Y0128996D01*
X0093086Y0128944D01*
X0092900Y0128896D01*
X0092713Y0128853D01*
X0092525Y0128814D01*
X0092337Y0128779D01*
X0092147Y0128750D01*
X0091957Y0128724D01*
X0091766Y0128704D01*
X0091575Y0128688D01*
X0091383Y0128676D01*
X0091192Y0128669D01*
X0091000Y0128667D01*
X0090812Y0128669D01*
X0090624Y0128676D01*
X0090436Y0128687D01*
X0090248Y0128702D01*
X0090061Y0128722D01*
X0089875Y0128747D01*
X0089689Y0128775D01*
X0089503Y0128808D01*
X0089319Y0128846D01*
X0089136Y0128887D01*
X0088953Y0128933D01*
X0088772Y0128984D01*
X0088592Y0129038D01*
X0088413Y0129097D01*
X0088236Y0129160D01*
X0088060Y0129227D01*
X0087886Y0129298D01*
X0087713Y0129373D01*
X0087543Y0129453D01*
X0087374Y0129536D01*
X0087207Y0129623D01*
X0083000Y0136667D02*
X0083002Y0136862D01*
X0083009Y0137056D01*
X0083021Y0137250D01*
X0083038Y0137444D01*
X0083059Y0137638D01*
X0083085Y0137831D01*
X0083116Y0138023D01*
X0083151Y0138215D01*
X0083191Y0138405D01*
X0083236Y0138595D01*
X0083285Y0138783D01*
X0083339Y0138970D01*
X0083397Y0139156D01*
X0083460Y0139340D01*
X0083527Y0139523D01*
X0083599Y0139704D01*
X0083675Y0139883D01*
X0083755Y0140060D01*
X0083840Y0140235D01*
X0083929Y0140409D01*
X0084022Y0140579D01*
X0084119Y0140748D01*
X0084221Y0140914D01*
X0084326Y0141078D01*
X0084435Y0141239D01*
X0084548Y0141398D01*
X0084665Y0141553D01*
X0084786Y0141706D01*
X0084911Y0141855D01*
X0085039Y0142002D01*
X0085170Y0142146D01*
X0085305Y0142286D01*
X0085444Y0142423D01*
X0085585Y0142556D01*
X0085730Y0142686D01*
X0085878Y0142813D01*
X0086000Y0142867D02*
X0096000Y0142867D01*
X0083000Y0136667D02*
X0083002Y0136475D01*
X0083009Y0136283D01*
X0083021Y0136091D01*
X0083037Y0135899D01*
X0083058Y0135708D01*
X0083083Y0135518D01*
X0083113Y0135328D01*
X0083147Y0135139D01*
X0083186Y0134951D01*
X0083230Y0134764D01*
X0083278Y0134578D01*
X0083330Y0134393D01*
X0083387Y0134209D01*
X0083448Y0134027D01*
X0083514Y0133847D01*
X0083584Y0133668D01*
X0083658Y0133490D01*
X0083736Y0133315D01*
X0083819Y0133141D01*
X0083906Y0132970D01*
X0083996Y0132801D01*
X0084091Y0132634D01*
X0084190Y0132469D01*
X0084293Y0132306D01*
X0084400Y0132147D01*
X0084510Y0131989D01*
X0084624Y0131835D01*
X0084742Y0131683D01*
X0084864Y0131534D01*
X0084989Y0131388D01*
X0085117Y0131246D01*
X0085249Y0131106D01*
X0085384Y0130969D01*
X0085523Y0130836D01*
X0085664Y0130706D01*
X0085809Y0130580D01*
X0085957Y0130457D01*
X0086107Y0130338D01*
X0086261Y0130222D01*
X0086417Y0130110D01*
X0086576Y0130002D01*
X0086737Y0129897D01*
X0086901Y0129797D01*
X0087067Y0129701D01*
X0087235Y0129608D01*
X0099000Y0136667D02*
X0098998Y0136860D01*
X0098991Y0137053D01*
X0098979Y0137245D01*
X0098963Y0137438D01*
X0098942Y0137630D01*
X0098916Y0137821D01*
X0098886Y0138011D01*
X0098851Y0138201D01*
X0098812Y0138390D01*
X0098768Y0138578D01*
X0098720Y0138765D01*
X0098667Y0138951D01*
X0098610Y0139135D01*
X0098548Y0139318D01*
X0098482Y0139499D01*
X0098411Y0139679D01*
X0098337Y0139857D01*
X0098258Y0140033D01*
X0098174Y0140207D01*
X0098087Y0140379D01*
X0097995Y0140549D01*
X0097899Y0140716D01*
X0097800Y0140882D01*
X0097696Y0141045D01*
X0097589Y0141205D01*
X0097477Y0141362D01*
X0097362Y0141517D01*
X0097243Y0141669D01*
X0097121Y0141818D01*
X0096995Y0141965D01*
X0096865Y0142108D01*
X0096732Y0142248D01*
X0096596Y0142384D01*
X0096456Y0142518D01*
X0096314Y0142647D01*
X0096168Y0142774D01*
X0016000Y0142867D02*
X0006000Y0142867D01*
X0003000Y0136667D02*
X0003002Y0136475D01*
X0003009Y0136283D01*
X0003021Y0136091D01*
X0003037Y0135899D01*
X0003058Y0135708D01*
X0003083Y0135518D01*
X0003113Y0135328D01*
X0003147Y0135139D01*
X0003186Y0134951D01*
X0003230Y0134764D01*
X0003278Y0134578D01*
X0003330Y0134393D01*
X0003387Y0134209D01*
X0003448Y0134027D01*
X0003514Y0133847D01*
X0003584Y0133668D01*
X0003658Y0133490D01*
X0003736Y0133315D01*
X0003819Y0133141D01*
X0003906Y0132970D01*
X0003996Y0132801D01*
X0004091Y0132634D01*
X0004190Y0132469D01*
X0004293Y0132306D01*
X0004400Y0132147D01*
X0004510Y0131989D01*
X0004624Y0131835D01*
X0004742Y0131683D01*
X0004864Y0131534D01*
X0004989Y0131388D01*
X0005117Y0131246D01*
X0005249Y0131106D01*
X0005384Y0130969D01*
X0005523Y0130836D01*
X0005664Y0130706D01*
X0005809Y0130580D01*
X0005957Y0130457D01*
X0006107Y0130338D01*
X0006261Y0130222D01*
X0006417Y0130110D01*
X0006576Y0130002D01*
X0006737Y0129897D01*
X0006901Y0129797D01*
X0007067Y0129701D01*
X0007235Y0129608D01*
X0014969Y0129720D02*
X0015138Y0129819D01*
X0015304Y0129923D01*
X0015468Y0130030D01*
X0015629Y0130141D01*
X0015787Y0130256D01*
X0015942Y0130375D01*
X0016095Y0130498D01*
X0016244Y0130624D01*
X0016390Y0130754D01*
X0016533Y0130888D01*
X0016673Y0131025D01*
X0016809Y0131165D01*
X0016942Y0131309D01*
X0017071Y0131456D01*
X0017197Y0131606D01*
X0017318Y0131759D01*
X0017437Y0131915D01*
X0017551Y0132074D01*
X0017661Y0132235D01*
X0017767Y0132400D01*
X0017870Y0132566D01*
X0017968Y0132736D01*
X0018062Y0132907D01*
X0018152Y0133081D01*
X0018237Y0133257D01*
X0018319Y0133435D01*
X0018395Y0133615D01*
X0018468Y0133797D01*
X0018536Y0133980D01*
X0018599Y0134165D01*
X0018658Y0134352D01*
X0018712Y0134540D01*
X0018762Y0134729D01*
X0018807Y0134919D01*
X0018847Y0135111D01*
X0018883Y0135303D01*
X0018914Y0135496D01*
X0018940Y0135690D01*
X0018962Y0135885D01*
X0018978Y0136080D01*
X0018990Y0136275D01*
X0018998Y0136471D01*
X0019000Y0136666D01*
X0015193Y0129854D02*
X0015028Y0129755D01*
X0014861Y0129660D01*
X0014692Y0129570D01*
X0014521Y0129483D01*
X0014347Y0129401D01*
X0014172Y0129323D01*
X0013995Y0129249D01*
X0013816Y0129179D01*
X0013636Y0129114D01*
X0013454Y0129053D01*
X0013271Y0128996D01*
X0013086Y0128944D01*
X0012900Y0128896D01*
X0012713Y0128853D01*
X0012525Y0128814D01*
X0012337Y0128779D01*
X0012147Y0128750D01*
X0011957Y0128724D01*
X0011766Y0128704D01*
X0011575Y0128688D01*
X0011383Y0128676D01*
X0011192Y0128669D01*
X0011000Y0128667D01*
X0010812Y0128669D01*
X0010624Y0128676D01*
X0010436Y0128687D01*
X0010248Y0128702D01*
X0010061Y0128722D01*
X0009875Y0128747D01*
X0009689Y0128775D01*
X0009503Y0128808D01*
X0009319Y0128846D01*
X0009136Y0128887D01*
X0008953Y0128933D01*
X0008772Y0128984D01*
X0008592Y0129038D01*
X0008413Y0129097D01*
X0008236Y0129160D01*
X0008060Y0129227D01*
X0007886Y0129298D01*
X0007713Y0129373D01*
X0007543Y0129453D01*
X0007374Y0129536D01*
X0007207Y0129623D01*
X0003000Y0136667D02*
X0003002Y0136862D01*
X0003009Y0137056D01*
X0003021Y0137250D01*
X0003038Y0137444D01*
X0003059Y0137638D01*
X0003085Y0137831D01*
X0003116Y0138023D01*
X0003151Y0138215D01*
X0003191Y0138405D01*
X0003236Y0138595D01*
X0003285Y0138783D01*
X0003339Y0138970D01*
X0003397Y0139156D01*
X0003460Y0139340D01*
X0003527Y0139523D01*
X0003599Y0139704D01*
X0003675Y0139883D01*
X0003755Y0140060D01*
X0003840Y0140235D01*
X0003929Y0140409D01*
X0004022Y0140579D01*
X0004119Y0140748D01*
X0004221Y0140914D01*
X0004326Y0141078D01*
X0004435Y0141239D01*
X0004548Y0141398D01*
X0004665Y0141553D01*
X0004786Y0141706D01*
X0004911Y0141855D01*
X0005039Y0142002D01*
X0005170Y0142146D01*
X0005305Y0142286D01*
X0005444Y0142423D01*
X0005585Y0142556D01*
X0005730Y0142686D01*
X0005878Y0142813D01*
X0016168Y0142774D02*
X0016314Y0142647D01*
X0016456Y0142518D01*
X0016596Y0142384D01*
X0016732Y0142248D01*
X0016865Y0142108D01*
X0016995Y0141965D01*
X0017121Y0141818D01*
X0017243Y0141669D01*
X0017362Y0141517D01*
X0017477Y0141362D01*
X0017589Y0141205D01*
X0017696Y0141045D01*
X0017800Y0140882D01*
X0017899Y0140716D01*
X0017995Y0140549D01*
X0018087Y0140379D01*
X0018174Y0140207D01*
X0018258Y0140033D01*
X0018337Y0139857D01*
X0018411Y0139679D01*
X0018482Y0139499D01*
X0018548Y0139318D01*
X0018610Y0139135D01*
X0018667Y0138951D01*
X0018720Y0138765D01*
X0018768Y0138578D01*
X0018812Y0138390D01*
X0018851Y0138201D01*
X0018886Y0138011D01*
X0018916Y0137821D01*
X0018942Y0137630D01*
X0018963Y0137438D01*
X0018979Y0137245D01*
X0018991Y0137053D01*
X0018998Y0136860D01*
X0019000Y0136667D01*
X0016000Y0112867D02*
X0006000Y0112867D01*
X0003000Y0106667D02*
X0003002Y0106475D01*
X0003009Y0106283D01*
X0003021Y0106091D01*
X0003037Y0105899D01*
X0003058Y0105708D01*
X0003083Y0105518D01*
X0003113Y0105328D01*
X0003147Y0105139D01*
X0003186Y0104951D01*
X0003230Y0104764D01*
X0003278Y0104578D01*
X0003330Y0104393D01*
X0003387Y0104209D01*
X0003448Y0104027D01*
X0003514Y0103847D01*
X0003584Y0103668D01*
X0003658Y0103490D01*
X0003736Y0103315D01*
X0003819Y0103141D01*
X0003906Y0102970D01*
X0003996Y0102801D01*
X0004091Y0102634D01*
X0004190Y0102469D01*
X0004293Y0102306D01*
X0004400Y0102147D01*
X0004510Y0101989D01*
X0004624Y0101835D01*
X0004742Y0101683D01*
X0004864Y0101534D01*
X0004989Y0101388D01*
X0005117Y0101246D01*
X0005249Y0101106D01*
X0005384Y0100969D01*
X0005523Y0100836D01*
X0005664Y0100706D01*
X0005809Y0100580D01*
X0005957Y0100457D01*
X0006107Y0100338D01*
X0006261Y0100222D01*
X0006417Y0100110D01*
X0006576Y0100002D01*
X0006737Y0099897D01*
X0006901Y0099797D01*
X0007067Y0099701D01*
X0007235Y0099608D01*
X0014969Y0099720D02*
X0015138Y0099819D01*
X0015304Y0099923D01*
X0015468Y0100030D01*
X0015629Y0100141D01*
X0015787Y0100256D01*
X0015942Y0100375D01*
X0016095Y0100498D01*
X0016244Y0100624D01*
X0016390Y0100754D01*
X0016533Y0100888D01*
X0016673Y0101025D01*
X0016809Y0101165D01*
X0016942Y0101309D01*
X0017071Y0101456D01*
X0017197Y0101606D01*
X0017318Y0101759D01*
X0017437Y0101915D01*
X0017551Y0102074D01*
X0017661Y0102235D01*
X0017767Y0102400D01*
X0017870Y0102566D01*
X0017968Y0102736D01*
X0018062Y0102907D01*
X0018152Y0103081D01*
X0018237Y0103257D01*
X0018319Y0103435D01*
X0018395Y0103615D01*
X0018468Y0103797D01*
X0018536Y0103980D01*
X0018599Y0104165D01*
X0018658Y0104352D01*
X0018712Y0104540D01*
X0018762Y0104729D01*
X0018807Y0104919D01*
X0018847Y0105111D01*
X0018883Y0105303D01*
X0018914Y0105496D01*
X0018940Y0105690D01*
X0018962Y0105885D01*
X0018978Y0106080D01*
X0018990Y0106275D01*
X0018998Y0106471D01*
X0019000Y0106666D01*
X0015193Y0099854D02*
X0015028Y0099755D01*
X0014861Y0099660D01*
X0014692Y0099570D01*
X0014521Y0099483D01*
X0014347Y0099401D01*
X0014172Y0099323D01*
X0013995Y0099249D01*
X0013816Y0099179D01*
X0013636Y0099114D01*
X0013454Y0099053D01*
X0013271Y0098996D01*
X0013086Y0098944D01*
X0012900Y0098896D01*
X0012713Y0098853D01*
X0012525Y0098814D01*
X0012337Y0098779D01*
X0012147Y0098750D01*
X0011957Y0098724D01*
X0011766Y0098704D01*
X0011575Y0098688D01*
X0011383Y0098676D01*
X0011192Y0098669D01*
X0011000Y0098667D01*
X0010812Y0098669D01*
X0010624Y0098676D01*
X0010436Y0098687D01*
X0010248Y0098702D01*
X0010061Y0098722D01*
X0009875Y0098747D01*
X0009689Y0098775D01*
X0009503Y0098808D01*
X0009319Y0098846D01*
X0009136Y0098887D01*
X0008953Y0098933D01*
X0008772Y0098984D01*
X0008592Y0099038D01*
X0008413Y0099097D01*
X0008236Y0099160D01*
X0008060Y0099227D01*
X0007886Y0099298D01*
X0007713Y0099373D01*
X0007543Y0099453D01*
X0007374Y0099536D01*
X0007207Y0099623D01*
X0003000Y0106667D02*
X0003002Y0106862D01*
X0003009Y0107056D01*
X0003021Y0107250D01*
X0003038Y0107444D01*
X0003059Y0107638D01*
X0003085Y0107831D01*
X0003116Y0108023D01*
X0003151Y0108215D01*
X0003191Y0108405D01*
X0003236Y0108595D01*
X0003285Y0108783D01*
X0003339Y0108970D01*
X0003397Y0109156D01*
X0003460Y0109340D01*
X0003527Y0109523D01*
X0003599Y0109704D01*
X0003675Y0109883D01*
X0003755Y0110060D01*
X0003840Y0110235D01*
X0003929Y0110409D01*
X0004022Y0110579D01*
X0004119Y0110748D01*
X0004221Y0110914D01*
X0004326Y0111078D01*
X0004435Y0111239D01*
X0004548Y0111398D01*
X0004665Y0111553D01*
X0004786Y0111706D01*
X0004911Y0111855D01*
X0005039Y0112002D01*
X0005170Y0112146D01*
X0005305Y0112286D01*
X0005444Y0112423D01*
X0005585Y0112556D01*
X0005730Y0112686D01*
X0005878Y0112813D01*
X0016168Y0112774D02*
X0016314Y0112647D01*
X0016456Y0112518D01*
X0016596Y0112384D01*
X0016732Y0112248D01*
X0016865Y0112108D01*
X0016995Y0111965D01*
X0017121Y0111818D01*
X0017243Y0111669D01*
X0017362Y0111517D01*
X0017477Y0111362D01*
X0017589Y0111205D01*
X0017696Y0111045D01*
X0017800Y0110882D01*
X0017899Y0110716D01*
X0017995Y0110549D01*
X0018087Y0110379D01*
X0018174Y0110207D01*
X0018258Y0110033D01*
X0018337Y0109857D01*
X0018411Y0109679D01*
X0018482Y0109499D01*
X0018548Y0109318D01*
X0018610Y0109135D01*
X0018667Y0108951D01*
X0018720Y0108765D01*
X0018768Y0108578D01*
X0018812Y0108390D01*
X0018851Y0108201D01*
X0018886Y0108011D01*
X0018916Y0107821D01*
X0018942Y0107630D01*
X0018963Y0107438D01*
X0018979Y0107245D01*
X0018991Y0107053D01*
X0018998Y0106860D01*
X0019000Y0106667D01*
M02*
