G75*
%MOIN*%
%OFA0B0*%
%FSLAX25Y25*%
%IPPOS*%
%LPD*%
%AMOC8*
5,1,8,0,0,1.08239X$1,22.5*
%
%ADD10C,0.09154*%
%ADD11C,0.07972*%
%ADD12C,0.05600*%
%ADD13C,0.06400*%
%ADD14C,0.05156*%
%ADD15C,0.06731*%
%ADD16C,0.12268*%
%ADD17C,0.01600*%
%ADD18C,0.01000*%
%ADD19C,0.02400*%
D10*
X0261000Y0007890D03*
X0306000Y0007890D03*
X0351000Y0007890D03*
X0396000Y0007890D03*
X0396000Y0040252D03*
X0351000Y0040252D03*
X0306000Y0040252D03*
X0261000Y0040252D03*
X0351000Y0087388D03*
X0396000Y0087388D03*
X0396000Y0119751D03*
X0351000Y0119751D03*
X0351000Y0161138D03*
X0396000Y0161138D03*
X0396000Y0193501D03*
X0351000Y0193501D03*
D11*
X0351000Y0148934D03*
X0396000Y0148934D03*
X0396000Y0075184D03*
X0396000Y0052457D03*
X0351000Y0052457D03*
X0351000Y0075184D03*
X0306000Y0052457D03*
X0261000Y0052457D03*
D12*
X0016000Y0011945D03*
X0026000Y0011945D03*
X0036000Y0011945D03*
X0046000Y0011945D03*
X0056000Y0011945D03*
X0066000Y0011945D03*
X0076000Y0011945D03*
X0086000Y0016945D03*
X0096000Y0016945D03*
X0096000Y0036945D03*
X0086000Y0036945D03*
X0076000Y0041945D03*
X0066000Y0041945D03*
X0056000Y0041945D03*
X0046000Y0041945D03*
X0036000Y0041945D03*
X0026000Y0041945D03*
X0016000Y0041945D03*
X0011000Y0061945D03*
X0011000Y0071945D03*
X0011000Y0081945D03*
X0041000Y0081945D03*
X0041000Y0071945D03*
X0041000Y0061945D03*
X0066000Y0061945D03*
X0066000Y0071945D03*
X0066000Y0081945D03*
X0091000Y0096945D03*
X0091000Y0106945D03*
X0091000Y0126945D03*
X0091000Y0136945D03*
X0011000Y0136945D03*
X0011000Y0126945D03*
X0011000Y0106945D03*
X0011000Y0096945D03*
X0096000Y0081945D03*
X0096000Y0071945D03*
X0096000Y0061945D03*
X0171000Y0096945D03*
X0171000Y0106945D03*
X0171000Y0126945D03*
X0171000Y0136945D03*
X0251000Y0136945D03*
X0251000Y0126945D03*
X0251000Y0106945D03*
X0251000Y0096945D03*
X0246000Y0081945D03*
X0231000Y0081945D03*
X0231000Y0071945D03*
X0246000Y0071945D03*
X0276000Y0071945D03*
X0286000Y0071945D03*
X0286000Y0081945D03*
X0276000Y0081945D03*
X0316000Y0081945D03*
X0316000Y0071945D03*
X0326000Y0091945D03*
X0326000Y0121945D03*
X0326000Y0161945D03*
X0326000Y0191945D03*
X0201000Y0081945D03*
X0201000Y0071945D03*
X0201000Y0016945D03*
X0201000Y0006945D03*
X0231000Y0006945D03*
X0231000Y0016945D03*
D13*
X0181000Y0019445D03*
X0171000Y0019445D03*
X0161000Y0019445D03*
X0151000Y0019445D03*
X0141000Y0019445D03*
X0131000Y0019445D03*
X0121000Y0019445D03*
X0111000Y0019445D03*
X0111000Y0009445D03*
X0121000Y0009445D03*
X0131000Y0009445D03*
X0141000Y0009445D03*
X0151000Y0009445D03*
X0161000Y0009445D03*
X0171000Y0009445D03*
X0181000Y0009445D03*
X0181000Y0071945D03*
X0171000Y0071945D03*
X0161000Y0071945D03*
X0151000Y0071945D03*
X0141000Y0071945D03*
X0131000Y0071945D03*
X0121000Y0071945D03*
X0111000Y0071945D03*
X0111000Y0081945D03*
X0121000Y0081945D03*
X0131000Y0081945D03*
X0141000Y0081945D03*
X0151000Y0081945D03*
X0161000Y0081945D03*
X0171000Y0081945D03*
X0181000Y0081945D03*
D14*
X0201000Y0056945D03*
X0211000Y0056945D03*
X0221000Y0056945D03*
X0231000Y0056945D03*
X0231000Y0026945D03*
X0221000Y0026945D03*
X0211000Y0026945D03*
X0201000Y0026945D03*
X0186000Y0144445D03*
X0176000Y0144445D03*
X0146000Y0144445D03*
X0136000Y0144445D03*
X0106000Y0144445D03*
X0096000Y0144445D03*
X0066000Y0144445D03*
X0056000Y0144445D03*
X0026000Y0144445D03*
X0016000Y0144445D03*
X0011000Y0194445D03*
X0031000Y0194445D03*
X0051000Y0194445D03*
X0071000Y0194445D03*
X0091000Y0194445D03*
X0111000Y0194445D03*
X0131000Y0194445D03*
X0151000Y0194445D03*
X0171000Y0194445D03*
X0191000Y0194445D03*
X0211000Y0194445D03*
X0231000Y0194445D03*
X0251000Y0194445D03*
X0271000Y0194445D03*
X0291000Y0194445D03*
X0311000Y0194445D03*
X0306000Y0144445D03*
X0296000Y0144445D03*
X0266000Y0144445D03*
X0256000Y0144445D03*
X0226000Y0144445D03*
X0216000Y0144445D03*
D15*
X0233559Y0124288D03*
X0233559Y0114445D03*
X0233559Y0104603D03*
X0311059Y0104603D03*
X0311059Y0114445D03*
X0311059Y0124288D03*
X0153559Y0124288D03*
X0153559Y0114445D03*
X0153559Y0104603D03*
X0073559Y0104603D03*
X0073559Y0114445D03*
X0073559Y0124288D03*
D16*
X0046000Y0132162D03*
X0046000Y0096729D03*
X0126000Y0096729D03*
X0126000Y0132162D03*
X0206000Y0132162D03*
X0206000Y0096729D03*
X0283500Y0096729D03*
X0283500Y0132162D03*
D17*
X0266000Y0144445D02*
X0261000Y0149445D01*
X0221000Y0149445D01*
X0181000Y0149445D01*
X0141000Y0149445D01*
X0101000Y0149445D01*
X0061000Y0149445D01*
X0066000Y0144445D01*
X0061000Y0149445D02*
X0031000Y0149445D01*
X0026000Y0144445D01*
X0101000Y0149445D02*
X0106000Y0144445D01*
X0141000Y0149445D02*
X0146000Y0144445D01*
X0181000Y0149445D02*
X0186000Y0144445D01*
X0221000Y0149445D02*
X0226000Y0144445D01*
X0233559Y0104603D02*
X0233500Y0104445D01*
X0217250Y0088195D01*
X0207250Y0088195D01*
X0201000Y0081945D01*
X0201000Y0056945D02*
X0192250Y0048195D01*
X0154750Y0048195D01*
X0153500Y0049445D01*
X0131000Y0049445D01*
X0131000Y0048195D01*
X0131000Y0049445D02*
X0098500Y0049445D01*
X0086000Y0036945D01*
X0051000Y0036945D01*
X0046000Y0041945D01*
X0086000Y0006945D02*
X0096000Y0016945D01*
X0111000Y0019445D02*
X0123500Y0031945D01*
X0226000Y0031945D01*
X0231000Y0026945D01*
X0196000Y0021945D02*
X0196000Y0011945D01*
X0201000Y0006945D01*
X0196000Y0021945D02*
X0186000Y0021945D01*
X0182250Y0025695D01*
X0127250Y0025695D01*
X0121000Y0019445D01*
X0086000Y0006945D02*
X0051000Y0006945D01*
X0046000Y0011945D01*
X0306000Y0052457D02*
X0306000Y0053195D01*
X0351000Y0053195D01*
X0351000Y0052457D01*
X0351000Y0075184D02*
X0351000Y0075695D01*
X0347250Y0079445D01*
X0318500Y0079445D01*
X0316000Y0081945D01*
X0306000Y0144445D02*
X0309750Y0148195D01*
X0351000Y0148195D01*
X0351000Y0148934D01*
D18*
X0326000Y0161945D02*
X0239750Y0161945D01*
X0216000Y0144445D02*
X0212250Y0140695D01*
X0188500Y0140695D01*
X0184750Y0136945D01*
X0171000Y0136945D01*
X0171000Y0126945D02*
X0171000Y0114445D01*
X0156000Y0099445D01*
X0151000Y0099445D01*
X0144750Y0105695D01*
X0123500Y0105695D01*
X0109750Y0091945D01*
X0076000Y0091945D01*
X0066000Y0081945D01*
X0066000Y0071945D02*
X0082250Y0088195D01*
X0162250Y0088195D01*
X0171000Y0096945D01*
X0189750Y0083195D02*
X0189750Y0114445D01*
X0233559Y0114445D01*
X0234750Y0123195D02*
X0246000Y0111945D01*
X0283500Y0111945D01*
X0296000Y0106945D02*
X0251000Y0106945D01*
X0251000Y0096945D02*
X0261000Y0086945D01*
X0297250Y0086945D01*
X0312250Y0071945D01*
X0316000Y0071945D01*
X0321000Y0074445D02*
X0321000Y0058195D01*
X0288500Y0058195D01*
X0247250Y0016945D01*
X0231000Y0016945D01*
X0221000Y0026945D01*
X0218500Y0021945D02*
X0228500Y0011945D01*
X0256000Y0011945D01*
X0258500Y0014445D01*
X0299750Y0014445D01*
X0306000Y0008195D01*
X0306000Y0007890D01*
X0231000Y0006945D02*
X0228500Y0009445D01*
X0208500Y0009445D01*
X0201000Y0016945D01*
X0199750Y0021945D02*
X0218500Y0021945D01*
X0199750Y0021945D02*
X0193500Y0028195D01*
X0189750Y0014445D02*
X0156000Y0014445D01*
X0151000Y0019445D01*
X0114750Y0031945D02*
X0076000Y0031945D01*
X0076000Y0011945D01*
X0056000Y0041945D02*
X0048500Y0049445D01*
X0016000Y0049445D01*
X0006000Y0059445D01*
X0006000Y0151945D01*
X0294750Y0151945D01*
X0301000Y0145695D01*
X0301000Y0114445D01*
X0311059Y0114445D01*
X0296000Y0106945D02*
X0296000Y0144445D01*
X0311059Y0124288D02*
X0312250Y0123195D01*
X0341000Y0094445D01*
X0353500Y0094445D01*
X0388500Y0059445D01*
X0388500Y0008195D01*
X0396000Y0008195D01*
X0396000Y0007890D01*
X0286000Y0071945D02*
X0272250Y0058195D01*
X0238500Y0058195D01*
X0226000Y0045695D01*
X0152250Y0045695D01*
X0171000Y0054445D02*
X0186000Y0069445D01*
X0186000Y0081945D01*
X0181000Y0081945D01*
X0176000Y0081945D02*
X0171000Y0081945D01*
X0176000Y0081945D02*
X0176000Y0069445D01*
X0163500Y0056945D01*
X0046000Y0056945D01*
X0041000Y0061945D01*
X0036000Y0066945D02*
X0036000Y0054445D01*
X0171000Y0054445D01*
X0174750Y0051945D02*
X0033500Y0051945D01*
X0033500Y0074445D01*
X0041000Y0081945D01*
X0037250Y0088195D02*
X0037250Y0123195D01*
X0064750Y0123195D01*
X0071000Y0129445D01*
X0088500Y0129445D01*
X0091000Y0126945D01*
X0076000Y0121945D02*
X0143500Y0121945D01*
X0153500Y0131945D01*
X0194750Y0131945D01*
X0203500Y0123195D01*
X0224750Y0123195D01*
X0233500Y0131945D01*
X0247250Y0131945D01*
X0234750Y0123195D02*
X0233559Y0124288D01*
X0311000Y0084445D02*
X0311000Y0076945D01*
X0318500Y0076945D01*
X0321000Y0074445D01*
X0311000Y0084445D02*
X0313500Y0086945D01*
X0321000Y0086945D01*
X0326000Y0091945D01*
X0286000Y0081945D02*
X0281000Y0076945D01*
X0211000Y0076945D01*
X0211000Y0056945D01*
X0201000Y0071945D02*
X0211000Y0081945D01*
X0231000Y0081945D01*
X0171000Y0071945D02*
X0163500Y0064445D01*
X0098500Y0064445D01*
X0096000Y0061945D01*
X0101000Y0066945D02*
X0156000Y0066945D01*
X0161000Y0071945D01*
X0156000Y0076945D02*
X0161000Y0081945D01*
X0156000Y0076945D02*
X0101000Y0076945D01*
X0096000Y0081945D01*
X0096000Y0071945D02*
X0101000Y0066945D01*
X0066000Y0061945D02*
X0061000Y0066945D01*
X0061000Y0096945D01*
X0091000Y0096945D01*
X0111000Y0105695D02*
X0119750Y0114445D01*
X0153559Y0114445D01*
X0108500Y0140695D02*
X0104750Y0136945D01*
X0091000Y0136945D01*
X0108500Y0140695D02*
X0132250Y0140695D01*
X0136000Y0144445D01*
X0108500Y0178195D02*
X0086000Y0155695D01*
X0056000Y0144445D02*
X0052250Y0140695D01*
X0028500Y0140695D01*
X0024750Y0136945D01*
X0011000Y0136945D01*
X0073559Y0124288D02*
X0074750Y0123195D01*
X0076000Y0121945D01*
X0037250Y0088195D02*
X0011000Y0061945D01*
X0036000Y0066945D02*
X0041000Y0071945D01*
X0189750Y0014445D02*
X0192250Y0011945D01*
X0351000Y0119751D02*
X0351000Y0120695D01*
X0327250Y0120695D01*
X0326000Y0121945D01*
X0294750Y0178195D02*
X0311000Y0194445D01*
X0326000Y0191945D02*
X0327250Y0193195D01*
X0351000Y0193195D01*
X0351000Y0193501D01*
X0294750Y0178195D02*
X0108500Y0178195D01*
X0124750Y0185695D02*
X0128500Y0181945D01*
X0198500Y0181945D01*
X0197250Y0185695D02*
X0224750Y0185695D01*
X0243500Y0189445D02*
X0286000Y0189445D01*
X0291000Y0194445D01*
X0243500Y0189445D02*
X0166000Y0189445D01*
X0086000Y0189445D01*
X0091000Y0194445D01*
X0086000Y0189445D02*
X0016000Y0189445D01*
X0011000Y0194445D01*
X0059750Y0185695D02*
X0124750Y0185695D01*
X0166000Y0189445D02*
X0171000Y0194445D01*
D19*
X0197250Y0185695D03*
X0198500Y0181945D03*
X0224750Y0185695D03*
X0243500Y0189445D03*
X0239750Y0161945D03*
X0247250Y0131945D03*
X0283500Y0111945D03*
X0189750Y0083195D03*
X0174750Y0051945D03*
X0152250Y0045695D03*
X0131000Y0048195D03*
X0114750Y0031945D03*
X0193500Y0028195D03*
X0192250Y0011945D03*
X0111000Y0105695D03*
X0086000Y0155695D03*
X0059750Y0185695D03*
X0124750Y0185695D03*
M02*
