%
M48
M72
T01C0.0120
T02C0.0276
T03C0.0320
T04C0.0400
T05C0.0433
T06C0.0531
T07C0.0610
T08C0.0827
%
T01
X11475Y3195
X13100Y4820
X15225Y4570
X17475Y5195
X19350Y2820
X19225Y1195
X18975Y8320
X11100Y10570
X8600Y15570
X5975Y18570
X12475Y18570
X19725Y18570
X19850Y18195
X22475Y18570
X24350Y18945
X23975Y16195
X24725Y13195
X28350Y11195
T02
X29600Y14445
X30600Y14445
X26600Y14445
X25600Y14445
X22600Y14445
X21600Y14445
X18600Y14445
X17600Y14445
X14600Y14445
X13600Y14445
X10600Y14445
X9600Y14445
X6600Y14445
X5600Y14445
X2600Y14445
X1600Y14445
X1100Y19445
X3100Y19445
X5100Y19445
X7100Y19445
X9100Y19445
X11100Y19445
X13100Y19445
X15100Y19445
X17100Y19445
X19100Y19445
X21100Y19445
X23100Y19445
X25100Y19445
X27100Y19445
X29100Y19445
X31100Y19445
X23100Y5695
X22100Y5695
X21100Y5695
X20100Y5695
X20100Y2695
X21100Y2695
X22100Y2695
X23100Y2695
T03
X1600Y1195
X2600Y1195
X3600Y1195
X4600Y1195
X5600Y1195
X6600Y1195
X7600Y1195
X8600Y1695
X9600Y1695
X9600Y3695
X8600Y3695
X7600Y4195
X6600Y4195
X5600Y4195
X4600Y4195
X3600Y4195
X2600Y4195
X1600Y4195
X1100Y6195
X1100Y7195
X1100Y8195
X4100Y8195
X4100Y7195
X4100Y6195
X6600Y6195
X6600Y7195
X6600Y8195
X9100Y9695
X9100Y10695
X9100Y12695
X9100Y13695
X1100Y13695
X1100Y12695
X1100Y10695
X1100Y9695
X9600Y8195
X9600Y7195
X9600Y6195
X17100Y9695
X17100Y10695
X17100Y12695
X17100Y13695
X25100Y13695
X25100Y12695
X25100Y10695
X25100Y9695
X24600Y8195
X23100Y8195
X23100Y7195
X24600Y7195
X27600Y7195
X28600Y7195
X28600Y8195
X27600Y8195
X31600Y8195
X31600Y7195
X32600Y9195
X32600Y12195
X32600Y16195
X32600Y19195
X20100Y8195
X20100Y7195
X20100Y1695
X20100Y695
X23100Y695
X23100Y1695
T04
X18100Y1945
X17100Y1945
X16100Y1945
X15100Y1945
X14100Y1945
X13100Y1945
X12100Y1945
X11100Y1945
X11100Y945
X12100Y945
X13100Y945
X14100Y945
X15100Y945
X16100Y945
X17100Y945
X18100Y945
X18100Y7195
X17100Y7195
X16100Y7195
X15100Y7195
X14100Y7195
X13100Y7195
X12100Y7195
X11100Y7195
X11100Y8195
X12100Y8195
X13100Y8195
X14100Y8195
X15100Y8195
X16100Y8195
X17100Y8195
X18100Y8195
T05
X15356Y10460
X15356Y11445
X15356Y12429
X7356Y12429
X7356Y11445
X7356Y10460
X23356Y10460
X23356Y11445
X23356Y12429
X31106Y12429
X31106Y11445
X31106Y10460
T06
X35100Y7518
X35100Y5246
X30600Y5246
X26100Y5246
X39600Y5246
X39600Y7518
X39600Y14893
X35100Y14893
T07
X35100Y16114
X39600Y16114
X39600Y19350
X35100Y19350
X35100Y11975
X39600Y11975
X39600Y8739
X35100Y8739
X35100Y4025
X30600Y4025
X26100Y4025
X26100Y789
X30600Y789
X35100Y789
X39600Y789
X39600Y4025
T08
X28350Y9673
X28350Y13216
X20600Y13216
X20600Y9673
X12600Y9673
X12600Y13216
X4600Y13216
X4600Y9673
M30
