G75*
%MOIN*%
%OFA0B0*%
%FSLAX25Y25*%
%IPPOS*%
%LPD*%
%AMOC8*
5,1,8,0,0,1.08239X$1,22.5*
%
%ADD10R,0.09154X0.09154*%
%ADD11R,0.07972X0.07972*%
%ADD12C,0.05600*%
%ADD13OC8,0.06400*%
%ADD14C,0.05156*%
%ADD15C,0.05156*%
%ADD16OC8,0.05600*%
%ADD17R,0.06731X0.06731*%
%ADD18OC8,0.06731*%
%ADD19R,0.12268X0.12268*%
%ADD20R,0.05600X0.05600*%
%ADD21C,0.01600*%
%ADD22C,0.01000*%
%ADD23C,0.02400*%
D10*
X0261000Y0007890D03*
X0306000Y0007890D03*
X0351000Y0007890D03*
X0396000Y0007890D03*
X0396000Y0040252D03*
X0351000Y0040252D03*
X0306000Y0040252D03*
X0261000Y0040252D03*
X0351000Y0087388D03*
X0396000Y0087388D03*
X0396000Y0119751D03*
X0351000Y0119751D03*
X0351000Y0161138D03*
X0396000Y0161138D03*
X0396000Y0193501D03*
X0351000Y0193501D03*
D11*
X0351000Y0148934D03*
X0396000Y0148934D03*
X0396000Y0075184D03*
X0396000Y0052457D03*
X0351000Y0052457D03*
X0351000Y0075184D03*
X0306000Y0052457D03*
X0261000Y0052457D03*
D12*
X0016000Y0014745D02*
X0016000Y0009145D01*
X0026000Y0009145D02*
X0026000Y0014745D01*
X0036000Y0014745D02*
X0036000Y0009145D01*
X0046000Y0009145D02*
X0046000Y0014745D01*
X0056000Y0014745D02*
X0056000Y0009145D01*
X0066000Y0009145D02*
X0066000Y0014745D01*
X0076000Y0014745D02*
X0076000Y0009145D01*
X0076000Y0039145D02*
X0076000Y0044745D01*
X0066000Y0044745D02*
X0066000Y0039145D01*
X0056000Y0039145D02*
X0056000Y0044745D01*
X0046000Y0044745D02*
X0046000Y0039145D01*
X0036000Y0039145D02*
X0036000Y0044745D01*
X0026000Y0044745D02*
X0026000Y0039145D01*
X0016000Y0039145D02*
X0016000Y0044745D01*
D13*
X0111000Y0019445D03*
X0121000Y0019445D03*
X0131000Y0019445D03*
X0141000Y0019445D03*
X0151000Y0019445D03*
X0161000Y0019445D03*
X0171000Y0019445D03*
X0181000Y0019445D03*
X0181000Y0009445D03*
X0171000Y0009445D03*
X0161000Y0009445D03*
X0151000Y0009445D03*
X0141000Y0009445D03*
X0131000Y0009445D03*
X0121000Y0009445D03*
X0111000Y0009445D03*
X0111000Y0071945D03*
X0121000Y0071945D03*
X0131000Y0071945D03*
X0141000Y0071945D03*
X0151000Y0071945D03*
X0161000Y0071945D03*
X0171000Y0071945D03*
X0181000Y0071945D03*
X0181000Y0081945D03*
X0171000Y0081945D03*
X0161000Y0081945D03*
X0151000Y0081945D03*
X0141000Y0081945D03*
X0131000Y0081945D03*
X0121000Y0081945D03*
X0111000Y0081945D03*
D14*
X0106000Y0144445D03*
X0096000Y0144445D03*
X0066000Y0144445D03*
X0056000Y0144445D03*
X0026000Y0144445D03*
X0016000Y0144445D03*
X0011000Y0194445D03*
X0031000Y0194445D03*
X0051000Y0194445D03*
X0071000Y0194445D03*
X0091000Y0194445D03*
X0111000Y0194445D03*
X0131000Y0194445D03*
X0151000Y0194445D03*
X0171000Y0194445D03*
X0191000Y0194445D03*
X0211000Y0194445D03*
X0231000Y0194445D03*
X0251000Y0194445D03*
X0271000Y0194445D03*
X0291000Y0194445D03*
X0311000Y0194445D03*
X0306000Y0144445D03*
X0296000Y0144445D03*
X0266000Y0144445D03*
X0256000Y0144445D03*
X0226000Y0144445D03*
X0216000Y0144445D03*
X0186000Y0144445D03*
X0176000Y0144445D03*
X0146000Y0144445D03*
X0136000Y0144445D03*
D15*
X0201000Y0059523D02*
X0201000Y0054367D01*
X0211000Y0054367D02*
X0211000Y0059523D01*
X0221000Y0059523D02*
X0221000Y0054367D01*
X0231000Y0054367D02*
X0231000Y0059523D01*
X0231000Y0029523D02*
X0231000Y0024367D01*
X0221000Y0024367D02*
X0221000Y0029523D01*
X0211000Y0029523D02*
X0211000Y0024367D01*
X0201000Y0024367D02*
X0201000Y0029523D01*
D16*
X0201000Y0016945D03*
X0201000Y0006945D03*
X0231000Y0006945D03*
X0231000Y0016945D03*
X0231000Y0071945D03*
X0246000Y0071945D03*
X0246000Y0081945D03*
X0231000Y0081945D03*
X0201000Y0081945D03*
X0201000Y0071945D03*
X0171000Y0106945D03*
X0171000Y0136945D03*
X0251000Y0136945D03*
X0251000Y0106945D03*
X0276000Y0081945D03*
X0286000Y0081945D03*
X0286000Y0071945D03*
X0276000Y0071945D03*
X0316000Y0071945D03*
X0316000Y0081945D03*
X0326000Y0091945D03*
X0326000Y0121945D03*
X0326000Y0161945D03*
X0326000Y0191945D03*
X0096000Y0081945D03*
X0096000Y0071945D03*
X0096000Y0061945D03*
X0066000Y0061945D03*
X0066000Y0071945D03*
X0066000Y0081945D03*
X0041000Y0081945D03*
X0041000Y0071945D03*
X0041000Y0061945D03*
X0011000Y0061945D03*
X0011000Y0071945D03*
X0011000Y0081945D03*
X0011000Y0106945D03*
X0011000Y0136945D03*
X0091000Y0136945D03*
X0091000Y0106945D03*
X0086000Y0036945D03*
X0096000Y0036945D03*
X0096000Y0016945D03*
X0086000Y0016945D03*
D17*
X0073559Y0104603D03*
X0153559Y0104603D03*
X0233559Y0104603D03*
X0311059Y0104603D03*
D18*
X0311059Y0114445D03*
X0311059Y0124288D03*
X0233559Y0124288D03*
X0233559Y0114445D03*
X0153559Y0114445D03*
X0153559Y0124288D03*
X0073559Y0124288D03*
X0073559Y0114445D03*
D19*
X0046000Y0096729D03*
X0046000Y0132162D03*
X0126000Y0132162D03*
X0126000Y0096729D03*
X0206000Y0096729D03*
X0206000Y0132162D03*
X0283500Y0132162D03*
X0283500Y0096729D03*
D20*
X0251000Y0096945D03*
X0251000Y0126945D03*
X0171000Y0126945D03*
X0171000Y0096945D03*
X0091000Y0096945D03*
X0091000Y0126945D03*
X0011000Y0126945D03*
X0011000Y0096945D03*
D21*
X0066000Y0113195D02*
X0066000Y0144445D01*
X0106000Y0144445D02*
X0114750Y0135695D01*
X0114750Y0104445D01*
X0104750Y0094445D01*
X0104750Y0045695D01*
X0096000Y0036945D01*
X0096000Y0026945D01*
X0086000Y0016945D01*
X0096000Y0016945D02*
X0111000Y0016945D01*
X0111000Y0019445D01*
X0111000Y0071945D01*
X0111000Y0081945D01*
X0121000Y0081945D02*
X0127250Y0088195D01*
X0153500Y0088195D01*
X0153500Y0104445D01*
X0153559Y0104603D01*
X0153500Y0105695D01*
X0146000Y0113195D01*
X0146000Y0144445D01*
X0226000Y0144445D02*
X0226000Y0113195D01*
X0233500Y0105695D01*
X0233559Y0104603D01*
X0266000Y0091945D02*
X0266000Y0123195D01*
X0304750Y0123195D01*
X0304750Y0143195D01*
X0306000Y0144445D01*
X0266000Y0144445D02*
X0266000Y0123195D01*
X0304750Y0123195D02*
X0304750Y0111945D01*
X0311000Y0105695D01*
X0311059Y0104603D01*
X0312250Y0104445D01*
X0313500Y0103195D01*
X0313500Y0084445D01*
X0316000Y0081945D01*
X0351000Y0075184D02*
X0351000Y0053195D01*
X0351000Y0052457D01*
X0351000Y0053195D02*
X0396000Y0053195D01*
X0396000Y0052457D01*
X0396000Y0053195D02*
X0396000Y0075184D01*
X0306000Y0053195D02*
X0306000Y0052457D01*
X0306000Y0053195D02*
X0261000Y0053195D01*
X0261000Y0052457D01*
X0276000Y0081945D02*
X0266000Y0091945D01*
X0351000Y0148934D02*
X0351000Y0149445D01*
X0396000Y0149445D01*
X0396000Y0148934D01*
X0131000Y0081945D02*
X0131000Y0071945D01*
X0131000Y0048195D01*
X0131000Y0019445D01*
X0131000Y0009445D01*
X0121000Y0009445D02*
X0121000Y0019445D01*
X0121000Y0071945D01*
X0121000Y0081945D01*
X0073559Y0104603D02*
X0073500Y0105695D01*
X0066000Y0113195D01*
X0111000Y0016945D02*
X0111000Y0009445D01*
D22*
X0141000Y0009445D02*
X0141000Y0019445D01*
X0141000Y0071945D01*
X0141000Y0081945D01*
X0151000Y0081945D02*
X0156000Y0076945D01*
X0156000Y0025695D01*
X0151000Y0020695D01*
X0151000Y0019445D01*
X0156000Y0021945D02*
X0161000Y0026945D01*
X0161000Y0071945D01*
X0166000Y0069445D02*
X0163500Y0066945D01*
X0163500Y0021945D01*
X0161000Y0019445D01*
X0156000Y0021945D02*
X0156000Y0014445D01*
X0161000Y0009445D01*
X0151000Y0009445D02*
X0146000Y0014445D01*
X0146000Y0039445D01*
X0152250Y0045695D01*
X0151000Y0046945D01*
X0151000Y0071945D01*
X0161000Y0081945D02*
X0166000Y0076945D01*
X0166000Y0069445D01*
X0166000Y0065695D02*
X0171000Y0070695D01*
X0171000Y0071945D01*
X0176000Y0069445D02*
X0176000Y0076945D01*
X0171000Y0081945D01*
X0181000Y0081945D02*
X0186000Y0076945D01*
X0186000Y0024445D01*
X0181000Y0019445D01*
X0176000Y0014445D02*
X0176000Y0053195D01*
X0174750Y0051945D01*
X0176000Y0053195D02*
X0181000Y0058195D01*
X0181000Y0071945D01*
X0176000Y0069445D02*
X0171000Y0064445D01*
X0171000Y0019445D01*
X0166000Y0014445D02*
X0166000Y0065695D01*
X0188500Y0081945D02*
X0189750Y0083195D01*
X0188500Y0081945D02*
X0188500Y0004445D01*
X0063500Y0004445D01*
X0056000Y0011945D01*
X0066000Y0011945D02*
X0076000Y0011945D01*
X0091000Y0031945D02*
X0056000Y0031945D01*
X0036000Y0011945D01*
X0031000Y0016945D02*
X0026000Y0011945D01*
X0016000Y0011945D01*
X0031000Y0016945D02*
X0031000Y0101945D01*
X0061000Y0131945D01*
X0061000Y0145695D01*
X0109750Y0194445D01*
X0111000Y0194445D01*
X0123500Y0181945D01*
X0151000Y0181945D01*
X0151000Y0194445D01*
X0131000Y0194445D02*
X0131000Y0191945D01*
X0124750Y0185695D01*
X0071000Y0179445D02*
X0071000Y0194445D01*
X0059750Y0185695D02*
X0051000Y0194445D01*
X0046000Y0179445D02*
X0031000Y0194445D01*
X0046000Y0179445D02*
X0046000Y0158195D01*
X0028500Y0140695D01*
X0028500Y0044445D01*
X0026000Y0041945D01*
X0016000Y0041945D01*
X0036000Y0041945D02*
X0061000Y0066945D01*
X0061000Y0084445D01*
X0076000Y0099445D01*
X0079750Y0099445D01*
X0079750Y0109445D01*
X0074750Y0114445D01*
X0073559Y0114445D01*
X0091000Y0106945D02*
X0096000Y0111945D01*
X0096000Y0144445D01*
X0086000Y0155695D02*
X0086000Y0051945D01*
X0076000Y0041945D01*
X0066000Y0041945D01*
X0091000Y0031945D02*
X0091000Y0085695D01*
X0111000Y0105695D01*
X0116000Y0101945D02*
X0141000Y0126945D01*
X0141000Y0145695D01*
X0189750Y0194445D01*
X0191000Y0194445D01*
X0197250Y0188195D01*
X0197250Y0185695D01*
X0198500Y0181945D02*
X0211000Y0194445D01*
X0223500Y0181945D01*
X0221000Y0179445D01*
X0221000Y0066945D01*
X0211000Y0056945D01*
X0221000Y0056945D02*
X0226000Y0061945D01*
X0226000Y0076945D01*
X0231000Y0081945D01*
X0239750Y0080695D02*
X0231000Y0071945D01*
X0231000Y0056945D01*
X0223500Y0049445D02*
X0241000Y0049445D01*
X0241000Y0076945D01*
X0246000Y0081945D01*
X0243500Y0084445D01*
X0243500Y0189445D01*
X0239750Y0190695D02*
X0243500Y0194445D01*
X0251000Y0194445D01*
X0239750Y0190695D02*
X0239750Y0181945D01*
X0223500Y0181945D01*
X0224750Y0185695D02*
X0231000Y0191945D01*
X0231000Y0194445D01*
X0271000Y0194445D02*
X0286000Y0179445D01*
X0311000Y0179445D01*
X0311000Y0194445D01*
X0351000Y0193501D02*
X0351000Y0193195D01*
X0396000Y0193195D01*
X0396000Y0193501D01*
X0256000Y0144445D02*
X0251000Y0139445D01*
X0251000Y0136945D01*
X0247250Y0131945D02*
X0246000Y0130695D01*
X0246000Y0089445D01*
X0253500Y0081945D01*
X0253500Y0015695D01*
X0261000Y0008195D01*
X0261000Y0007890D01*
X0226000Y0023195D02*
X0214750Y0011945D01*
X0192250Y0011945D01*
X0201000Y0016945D02*
X0211000Y0026945D01*
X0201000Y0026945D02*
X0223500Y0049445D01*
X0226000Y0030695D02*
X0243500Y0048195D01*
X0243500Y0069445D01*
X0246000Y0071945D01*
X0239750Y0080695D02*
X0239750Y0161945D01*
X0176000Y0144445D02*
X0176000Y0111945D01*
X0171000Y0106945D01*
X0166000Y0111945D02*
X0166000Y0093195D01*
X0172250Y0086945D01*
X0193500Y0086945D01*
X0193500Y0028195D01*
X0176000Y0014445D02*
X0181000Y0009445D01*
X0171000Y0009445D02*
X0166000Y0014445D01*
X0116000Y0033195D02*
X0114750Y0031945D01*
X0116000Y0033195D02*
X0116000Y0101945D01*
X0153559Y0124288D02*
X0154750Y0123195D01*
X0166000Y0111945D01*
X0251000Y0126945D02*
X0256000Y0121945D01*
X0256000Y0091945D01*
X0276000Y0071945D01*
X0311000Y0084445D02*
X0311000Y0058195D01*
X0351000Y0018195D01*
X0351000Y0007890D01*
X0226000Y0023195D02*
X0226000Y0030695D01*
X0283500Y0111945D02*
X0311000Y0084445D01*
X0351000Y0119445D02*
X0351000Y0119751D01*
X0351000Y0119445D02*
X0396000Y0119445D01*
X0396000Y0119751D01*
X0071000Y0179445D02*
X0046000Y0179445D01*
X0016000Y0144445D02*
X0016000Y0111945D01*
X0011000Y0106945D01*
X0011000Y0096945D02*
X0011000Y0081945D01*
X0006000Y0076945D02*
X0006000Y0121945D01*
X0011000Y0126945D01*
X0006000Y0076945D02*
X0011000Y0071945D01*
D23*
X0111000Y0105695D03*
X0189750Y0083195D03*
X0174750Y0051945D03*
X0152250Y0045695D03*
X0131000Y0048195D03*
X0114750Y0031945D03*
X0193500Y0028195D03*
X0192250Y0011945D03*
X0283500Y0111945D03*
X0247250Y0131945D03*
X0239750Y0161945D03*
X0198500Y0181945D03*
X0197250Y0185695D03*
X0224750Y0185695D03*
X0243500Y0189445D03*
X0124750Y0185695D03*
X0086000Y0155695D03*
X0059750Y0185695D03*
M02*
