G75*
%MOIN*%
%OFA0B0*%
%FSLAX25Y25*%
%IPPOS*%
%LPD*%
%AMOC8*
5,1,8,0,0,1.08239X$1,22.5*
%
%ADD10C,0.09554*%
%ADD11C,0.08372*%
%ADD12C,0.06000*%
%ADD13C,0.06800*%
%ADD14C,0.05556*%
%ADD15C,0.07131*%
%ADD16C,0.12668*%
D10*
X0261000Y0007890D03*
X0306000Y0007890D03*
X0351000Y0007890D03*
X0396000Y0007890D03*
X0396000Y0040252D03*
X0351000Y0040252D03*
X0306000Y0040252D03*
X0261000Y0040252D03*
X0351000Y0087388D03*
X0396000Y0087388D03*
X0396000Y0119751D03*
X0351000Y0119751D03*
X0351000Y0161138D03*
X0396000Y0161138D03*
X0396000Y0193501D03*
X0351000Y0193501D03*
D11*
X0351000Y0148934D03*
X0396000Y0148934D03*
X0396000Y0075184D03*
X0396000Y0052457D03*
X0351000Y0052457D03*
X0351000Y0075184D03*
X0306000Y0052457D03*
X0261000Y0052457D03*
D12*
X0016000Y0011945D03*
X0026000Y0011945D03*
X0036000Y0011945D03*
X0046000Y0011945D03*
X0056000Y0011945D03*
X0066000Y0011945D03*
X0076000Y0011945D03*
X0086000Y0016945D03*
X0096000Y0016945D03*
X0096000Y0036945D03*
X0086000Y0036945D03*
X0076000Y0041945D03*
X0066000Y0041945D03*
X0056000Y0041945D03*
X0046000Y0041945D03*
X0036000Y0041945D03*
X0026000Y0041945D03*
X0016000Y0041945D03*
X0011000Y0061945D03*
X0011000Y0071945D03*
X0011000Y0081945D03*
X0041000Y0081945D03*
X0041000Y0071945D03*
X0041000Y0061945D03*
X0066000Y0061945D03*
X0066000Y0071945D03*
X0066000Y0081945D03*
X0091000Y0096945D03*
X0091000Y0106945D03*
X0091000Y0126945D03*
X0091000Y0136945D03*
X0011000Y0136945D03*
X0011000Y0126945D03*
X0011000Y0106945D03*
X0011000Y0096945D03*
X0096000Y0081945D03*
X0096000Y0071945D03*
X0096000Y0061945D03*
X0171000Y0096945D03*
X0171000Y0106945D03*
X0171000Y0126945D03*
X0171000Y0136945D03*
X0251000Y0136945D03*
X0251000Y0126945D03*
X0251000Y0106945D03*
X0251000Y0096945D03*
X0246000Y0081945D03*
X0231000Y0081945D03*
X0231000Y0071945D03*
X0246000Y0071945D03*
X0276000Y0071945D03*
X0286000Y0071945D03*
X0286000Y0081945D03*
X0276000Y0081945D03*
X0316000Y0081945D03*
X0316000Y0071945D03*
X0326000Y0091945D03*
X0326000Y0121945D03*
X0326000Y0161945D03*
X0326000Y0191945D03*
X0201000Y0081945D03*
X0201000Y0071945D03*
X0201000Y0016945D03*
X0201000Y0006945D03*
X0231000Y0006945D03*
X0231000Y0016945D03*
D13*
X0181000Y0019445D03*
X0171000Y0019445D03*
X0161000Y0019445D03*
X0151000Y0019445D03*
X0141000Y0019445D03*
X0131000Y0019445D03*
X0121000Y0019445D03*
X0111000Y0019445D03*
X0111000Y0009445D03*
X0121000Y0009445D03*
X0131000Y0009445D03*
X0141000Y0009445D03*
X0151000Y0009445D03*
X0161000Y0009445D03*
X0171000Y0009445D03*
X0181000Y0009445D03*
X0181000Y0071945D03*
X0171000Y0071945D03*
X0161000Y0071945D03*
X0151000Y0071945D03*
X0141000Y0071945D03*
X0131000Y0071945D03*
X0121000Y0071945D03*
X0111000Y0071945D03*
X0111000Y0081945D03*
X0121000Y0081945D03*
X0131000Y0081945D03*
X0141000Y0081945D03*
X0151000Y0081945D03*
X0161000Y0081945D03*
X0171000Y0081945D03*
X0181000Y0081945D03*
D14*
X0201000Y0056945D03*
X0211000Y0056945D03*
X0221000Y0056945D03*
X0231000Y0056945D03*
X0231000Y0026945D03*
X0221000Y0026945D03*
X0211000Y0026945D03*
X0201000Y0026945D03*
X0186000Y0144445D03*
X0176000Y0144445D03*
X0146000Y0144445D03*
X0136000Y0144445D03*
X0106000Y0144445D03*
X0096000Y0144445D03*
X0066000Y0144445D03*
X0056000Y0144445D03*
X0026000Y0144445D03*
X0016000Y0144445D03*
X0011000Y0194445D03*
X0031000Y0194445D03*
X0051000Y0194445D03*
X0071000Y0194445D03*
X0091000Y0194445D03*
X0111000Y0194445D03*
X0131000Y0194445D03*
X0151000Y0194445D03*
X0171000Y0194445D03*
X0191000Y0194445D03*
X0211000Y0194445D03*
X0231000Y0194445D03*
X0251000Y0194445D03*
X0271000Y0194445D03*
X0291000Y0194445D03*
X0311000Y0194445D03*
X0306000Y0144445D03*
X0296000Y0144445D03*
X0266000Y0144445D03*
X0256000Y0144445D03*
X0226000Y0144445D03*
X0216000Y0144445D03*
D15*
X0233559Y0124288D03*
X0233559Y0114445D03*
X0233559Y0104603D03*
X0311059Y0104603D03*
X0311059Y0114445D03*
X0311059Y0124288D03*
X0153559Y0124288D03*
X0153559Y0114445D03*
X0153559Y0104603D03*
X0073559Y0104603D03*
X0073559Y0114445D03*
X0073559Y0124288D03*
D16*
X0046000Y0132162D03*
X0046000Y0096729D03*
X0126000Y0096729D03*
X0126000Y0132162D03*
X0206000Y0132162D03*
X0206000Y0096729D03*
X0283500Y0096729D03*
X0283500Y0132162D03*
M02*
